{"glyphs":{"0":{"ha":590,"x_min":17,"x_max":572,"o":"m 572 439 q 567 356 572 403 q 552 261 563 310 q 524 165 542 213 q 478 81 506 118 q 415 22 451 44 q 329 0 378 0 q 188 33 247 0 q 91 121 129 67 q 35 244 53 175 q 17 386 17 314 q 38 544 17 461 q 101 699 58 628 q 209 815 144 769 q 363 861 274 861 q 392 849 381 861 q 404 819 404 836 l 404 817 q 490 756 457 800 q 540 656 522 711 q 565 543 558 601 q 572 439 572 485 m 288 738 q 238 660 258 706 q 206 564 218 614 q 188 464 193 514 q 182 374 182 414 q 188 290 182 339 q 208 194 193 240 q 253 116 224 149 q 329 83 282 83 q 385 103 361 83 q 427 156 410 124 q 456 228 444 189 q 475 308 468 268 q 485 382 482 347 q 488 439 488 417 q 482 522 488 471 q 463 621 476 572 q 424 704 449 669 q 358 739 399 739 q 325 732 346 739 q 311 729 317 729 q 299 732 304 729 q 288 738 293 735 z "},"1":{"ha":283,"x_min":6,"x_max":263,"o":"m 47 660 q 18 672 31 660 q 6 701 6 683 q 15 728 6 717 q 33 750 24 739 q 50 772 42 761 q 104 837 83 815 q 149 860 125 858 q 199 837 181 860 q 229 788 218 814 q 247 719 240 758 q 256 640 253 681 q 261 561 260 600 q 263 490 263 522 q 261 387 263 444 q 256 270 260 329 q 243 155 251 211 q 219 54 235 99 q 200 17 213 35 q 164 0 188 0 q 129 15 144 0 q 110 51 118 26 q 100 135 103 75 q 96 299 96 197 q 99 503 96 401 q 106 707 101 604 q 92 690 99 699 q 79 675 86 682 q 47 660 67 660 z "},"2":{"ha":544,"x_min":15,"x_max":528,"o":"m 350 774 q 347 774 349 774 q 340 775 344 775 q 308 772 329 775 q 258 756 288 768 q 192 719 229 743 q 113 656 156 696 q 85 644 101 644 q 55 656 67 644 q 43 685 43 668 q 56 715 43 703 q 202 822 129 785 q 340 858 275 858 q 437 827 401 858 q 472 735 472 796 q 465 679 472 708 q 448 622 458 650 q 425 567 438 593 q 401 517 413 540 q 310 357 361 438 q 215 208 260 276 q 171 142 192 174 q 138 88 150 110 q 192 83 161 83 q 253 88 214 83 q 333 98 292 92 q 411 114 375 104 q 463 133 447 124 q 486 142 474 142 q 516 129 504 142 q 528 100 528 117 q 507 65 528 81 q 453 39 486 50 q 381 20 421 28 q 303 8 340 13 q 236 2 267 4 q 192 0 206 0 q 136 3 167 0 q 78 17 106 7 q 33 49 51 28 q 15 103 15 69 q 51 203 15 139 q 157 381 86 268 q 235 509 194 443 q 304 633 275 575 q 318 663 310 646 q 333 698 326 679 q 346 734 340 717 q 351 765 351 751 q 351 770 351 768 q 350 774 350 772 z "},"3":{"ha":501,"x_min":14,"x_max":486,"o":"m 253 501 q 341 469 299 492 q 416 415 383 447 q 467 341 449 383 q 486 247 486 299 q 460 141 486 188 q 393 63 435 94 q 299 16 351 32 q 192 0 246 0 q 147 3 176 0 q 88 13 117 6 q 36 33 58 19 q 14 68 14 46 q 26 97 14 85 q 56 110 39 110 q 69 107 61 110 q 192 83 136 83 q 250 97 225 83 q 292 132 275 110 q 318 183 310 154 q 326 242 326 211 q 313 310 326 278 q 275 369 300 343 q 214 412 250 396 q 132 428 178 428 q 94 438 108 428 q 79 467 79 447 q 97 510 79 483 q 201 667 163 601 q 264 778 239 732 q 172 779 225 779 q 64 779 119 779 q 35 792 47 779 q 22 821 22 804 q 35 851 22 839 q 64 863 47 863 q 162 863 114 863 q 247 862 210 863 q 308 861 285 861 q 332 861 332 861 q 383 841 364 861 q 403 789 403 821 q 386 719 403 758 q 347 639 369 679 q 298 562 324 599 q 253 501 272 525 z "},"4":{"ha":535,"x_min":3,"x_max":511,"o":"m 3 379 q 28 449 3 404 q 92 548 53 494 q 178 657 131 601 q 270 758 226 713 q 349 832 314 803 q 400 861 385 861 q 431 847 418 861 q 440 831 438 840 q 443 814 443 822 q 481 736 468 790 q 501 620 494 682 q 510 501 508 558 q 511 411 511 443 q 507 269 511 336 q 493 150 503 203 q 485 106 490 132 q 469 56 479 79 q 442 17 458 33 q 400 0 425 0 q 365 15 381 0 q 356 31 360 22 q 348 58 351 40 q 343 103 344 75 q 342 172 342 131 q 342 229 342 200 q 343 288 343 258 q 270 283 304 285 q 208 281 236 281 q 147 283 182 281 q 79 294 111 285 q 25 324 47 304 q 3 379 3 344 m 349 653 q 238 510 294 581 q 124 369 182 440 q 165 365 144 367 q 208 364 186 364 q 271 366 236 364 q 346 371 306 368 q 352 517 350 444 q 356 663 354 589 q 352 658 353 660 q 349 653 351 656 z "},"5":{"ha":550,"x_min":18,"x_max":540,"o":"m 172 531 q 203 533 189 533 q 232 533 218 533 q 346 517 290 533 q 444 467 401 500 q 514 384 488 433 q 540 271 540 335 q 513 154 540 204 q 439 69 485 104 q 335 17 393 35 q 215 0 276 0 q 46 32 139 0 q 18 71 18 42 q 31 100 18 88 q 60 113 43 113 q 74 110 65 113 q 148 90 113 97 q 215 83 183 83 q 288 99 257 83 q 338 140 318 114 q 369 200 358 165 q 379 272 379 235 q 370 336 379 304 q 343 393 361 368 q 297 434 325 418 q 232 450 269 450 q 189 449 211 450 q 143 442 167 449 q 138 440 139 442 q 85 455 106 440 q 52 492 64 469 q 35 542 40 515 q 31 593 31 568 q 35 650 31 619 q 48 710 39 681 q 71 767 57 740 q 103 813 85 793 q 143 839 117 829 q 201 853 169 849 q 263 859 232 858 q 315 860 293 860 l 344 860 q 373 847 361 858 q 385 817 385 835 q 371 788 383 799 q 342 776 358 776 l 315 776 q 282 776 301 776 q 242 774 263 775 q 203 769 221 772 q 172 761 185 767 q 169 736 171 754 q 168 681 168 718 q 172 531 168 606 z "},"6":{"ha":514,"x_min":19,"x_max":500,"o":"m 181 435 q 235 451 207 446 q 288 456 263 456 q 376 435 338 456 q 443 382 415 415 q 485 306 471 349 q 500 217 500 263 q 432 56 500 113 q 253 0 364 0 q 135 24 181 0 q 63 90 89 47 q 28 190 38 132 q 19 317 19 249 q 24 418 19 361 q 39 535 28 475 q 70 652 50 594 q 123 756 90 710 q 202 829 156 801 q 313 857 249 857 q 342 856 325 857 q 376 849 360 854 q 403 835 392 844 q 414 808 414 825 q 401 779 414 792 q 372 767 389 767 q 363 768 365 767 q 318 774 342 774 q 267 753 289 774 q 231 702 246 733 q 207 633 217 671 q 192 557 197 594 q 183 487 186 519 q 181 435 181 454 m 294 372 q 243 358 264 372 q 209 323 222 344 q 190 275 196 301 q 183 224 183 249 q 189 175 183 200 q 208 130 194 150 q 242 97 221 110 q 294 85 264 85 q 383 124 349 85 q 417 221 417 163 q 408 276 417 249 q 385 324 400 303 q 347 359 369 346 q 294 372 324 372 z "},"7":{"ha":415,"x_min":8,"x_max":403,"o":"m 178 778 q 131 777 154 778 q 92 775 108 776 q 54 772 71 774 q 22 783 36 772 q 8 814 8 794 q 19 842 8 831 q 47 856 31 854 q 88 858 49 856 q 178 861 126 861 q 240 860 210 861 q 300 853 269 858 q 381 819 358 843 q 403 738 403 794 q 394 640 403 699 q 370 515 385 582 q 336 378 356 449 q 297 244 317 308 q 256 128 276 181 q 217 44 235 76 q 197 17 211 33 q 160 0 183 0 q 134 8 143 0 q 120 29 125 17 q 114 56 115 42 q 113 83 113 71 q 132 237 113 146 q 179 426 151 328 q 238 615 207 524 q 290 771 268 707 q 248 776 275 774 q 178 778 221 778 z "},"8":{"ha":533,"x_min":17,"x_max":515,"o":"m 61 628 q 81 718 61 676 q 133 790 100 760 q 208 838 165 821 q 300 856 251 856 q 378 835 344 856 q 435 781 413 814 q 468 708 457 749 q 479 629 479 668 q 460 525 479 576 q 397 442 442 474 q 485 354 456 411 q 515 233 515 297 q 497 139 515 182 q 447 65 479 96 q 372 17 415 33 q 276 0 328 0 q 178 15 225 0 q 94 58 131 29 q 38 131 58 88 q 17 231 17 174 q 53 363 17 301 q 153 458 90 424 q 84 531 107 486 q 61 628 61 575 m 281 83 q 390 125 349 85 q 432 233 432 165 q 424 285 432 260 q 400 333 417 311 q 358 367 383 354 q 300 382 333 381 q 265 403 276 385 q 224 374 242 394 q 197 328 207 354 q 181 276 186 303 q 176 226 176 249 q 181 176 176 201 q 199 130 186 150 q 231 97 211 110 q 281 83 251 83 m 221 624 q 224 584 221 604 q 235 547 226 564 q 258 520 243 531 q 296 510 272 510 q 314 503 311 504 q 318 501 317 503 q 355 519 340 506 q 378 550 369 532 q 392 588 388 568 q 396 629 396 608 q 391 675 396 650 q 375 722 386 700 q 346 758 364 743 q 301 772 328 772 q 264 756 279 772 q 239 715 249 739 q 225 666 229 692 q 221 624 221 640 z "},"9":{"ha":514,"x_min":14,"x_max":494,"o":"m 100 49 q 116 81 100 72 q 151 90 132 90 q 174 85 164 88 q 196 83 185 83 q 247 103 225 83 q 283 155 268 124 q 307 224 297 186 q 323 301 317 263 q 331 372 329 339 q 335 424 333 404 q 279 407 307 413 q 226 401 251 401 q 138 422 176 401 q 71 475 99 442 q 28 551 43 508 q 14 642 14 594 q 82 801 14 746 q 261 857 150 857 q 380 833 335 857 q 451 767 425 810 q 485 667 476 725 q 494 540 494 608 q 490 440 494 497 q 475 323 486 383 q 444 205 464 263 q 391 101 424 147 q 312 28 358 56 q 201 0 265 0 q 172 1 189 0 q 138 8 154 3 q 111 22 122 13 q 100 49 100 32 m 97 638 q 106 583 97 610 q 129 533 114 556 q 168 498 144 511 q 221 485 192 485 q 271 499 250 485 q 305 534 292 513 q 324 582 318 556 q 331 633 331 608 q 325 682 331 657 q 306 727 319 707 q 272 760 293 747 q 219 772 251 772 q 131 734 165 772 q 97 638 97 696 z "},"\u0000":{"ha":0,"x_min":0,"x_max":0,"o":""},"\r":{"ha":347,"x_min":0,"x_max":0,"o":""}," ":{"ha":563,"x_min":0,"x_max":0,"o":""},"b":{"ha":492,"x_min":24,"x_max":488,"o":"m 24 332 q 24 439 24 381 q 29 557 25 497 q 41 675 33 617 q 61 781 49 733 q 83 829 68 804 q 128 854 97 854 q 158 842 147 854 q 171 811 168 829 q 178 727 176 772 q 181 635 181 682 q 182 543 182 589 q 182 457 182 497 q 182 424 182 440 q 181 392 182 407 q 242 401 210 401 q 336 383 292 401 q 414 333 381 365 q 467 257 447 300 q 488 164 488 214 q 440 44 488 89 q 318 -1 393 -1 q 233 27 269 -1 q 172 92 197 56 q 170 61 171 75 q 168 36 169 47 q 164 10 167 24 q 156 -15 161 -3 q 140 -34 150 -26 q 115 -42 131 -42 q 83 -31 100 -42 q 54 13 65 -21 q 37 84 43 42 q 28 172 31 126 q 24 259 25 217 q 24 332 24 301 m 315 82 q 322 89 319 82 q 326 105 325 96 q 328 123 328 114 q 328 138 328 132 q 322 185 328 154 q 306 245 317 215 q 279 297 296 275 q 242 318 263 318 q 181 300 213 318 q 180 283 181 292 q 179 267 179 275 q 199 217 186 249 q 231 155 213 185 q 271 103 249 125 q 315 82 293 82 z "},"c":{"ha":424,"x_min":18,"x_max":408,"o":"m 182 207 q 184 174 182 194 q 192 133 186 153 q 207 98 197 113 q 233 83 217 83 q 290 101 264 83 q 328 147 317 119 q 367 172 339 172 q 396 160 383 172 q 408 131 408 147 q 404 114 408 122 q 394 94 404 113 q 363 56 383 76 q 311 17 343 35 q 235 0 279 0 q 148 15 188 0 q 79 58 108 31 q 34 125 50 86 q 18 211 18 164 q 35 303 18 260 q 83 381 53 347 q 154 433 113 414 q 246 453 196 453 q 276 449 258 453 q 312 438 294 446 q 341 419 329 431 q 353 390 353 407 q 340 362 353 374 q 311 350 328 350 q 290 356 297 350 q 246 369 267 369 q 215 349 228 369 q 196 302 203 329 q 185 248 189 275 q 182 207 182 221 z "},"d":{"ha":492,"x_min":4,"x_max":468,"o":"m 176 0 q 52 45 100 0 q 4 165 4 90 q 24 258 4 215 q 78 334 44 301 q 156 385 111 367 q 249 403 200 403 q 310 393 281 403 l 310 458 q 310 622 310 540 q 317 788 310 704 q 327 833 319 811 q 364 856 335 856 q 387 850 372 856 q 414 824 401 844 q 435 765 426 803 q 449 681 443 728 q 459 583 456 635 q 465 483 463 531 q 467 397 467 436 q 468 333 468 357 q 456 96 468 186 q 449 56 453 79 q 436 10 444 32 q 414 -26 428 -11 q 376 -40 400 -40 q 351 -33 361 -40 q 336 -13 342 -25 q 328 12 331 -1 q 324 38 325 25 q 320 63 321 49 q 318 93 319 76 q 258 28 293 57 q 176 0 222 0 m 164 139 q 164 124 164 133 q 165 106 164 115 q 169 90 167 97 q 176 83 172 83 q 220 105 199 83 q 260 157 242 126 q 292 219 279 188 q 311 268 306 250 l 311 301 q 250 319 279 319 q 213 298 229 319 q 185 247 196 276 q 169 186 175 217 q 164 139 164 156 z "},"e":{"ha":428,"x_min":18,"x_max":411,"o":"m 18 222 q 33 312 18 269 q 77 386 49 354 q 146 437 106 418 q 236 456 186 456 q 332 425 290 456 q 374 336 374 394 q 358 271 374 300 q 315 222 342 242 q 257 190 289 201 q 192 179 225 179 q 179 182 188 179 q 185 155 181 172 q 196 122 189 138 q 213 95 203 107 q 236 83 222 83 q 293 101 267 83 q 332 147 319 119 q 369 172 343 172 q 399 160 388 172 q 411 131 411 147 q 408 114 411 125 q 397 94 407 113 q 367 56 388 76 q 314 17 346 35 q 238 0 282 0 q 147 17 188 0 q 78 63 107 33 q 34 134 50 93 q 18 222 18 175 m 236 372 q 212 359 222 372 q 194 327 201 346 q 183 290 188 308 q 178 261 179 272 q 192 263 182 263 q 265 287 240 263 q 290 335 290 311 q 272 365 290 357 q 236 372 254 372 z "},"f":{"ha":374,"x_min":19,"x_max":367,"o":"m 150 0 q 99 24 121 0 q 63 85 78 47 q 40 169 49 122 q 27 259 32 215 q 21 340 22 303 q 19 396 19 376 q 22 481 19 432 q 34 580 25 529 q 59 680 43 631 q 101 768 75 729 q 163 831 126 807 q 250 854 200 854 q 283 850 263 854 q 322 837 303 846 q 353 815 340 828 q 367 786 367 803 q 355 757 367 769 q 325 744 343 744 q 303 751 311 744 q 249 771 272 771 q 222 751 233 771 q 204 702 211 732 q 193 636 197 672 q 187 567 189 600 q 184 506 185 533 q 183 468 183 479 q 188 332 183 399 q 235 335 214 333 q 268 340 257 338 q 282 343 272 343 q 311 331 299 343 q 324 301 324 318 q 316 278 324 289 q 296 263 308 267 q 250 253 278 256 q 192 249 222 250 q 197 165 194 207 q 199 82 199 124 q 197 55 199 69 q 191 28 196 40 q 176 8 186 17 q 150 0 167 0 z "},"g":{"ha":460,"x_min":10,"x_max":450,"o":"m 233 -310 q 106 -262 154 -310 q 57 -142 57 -215 q 69 -112 57 -125 q 99 -100 81 -100 q 128 -112 115 -100 q 140 -142 140 -125 q 163 -203 140 -181 q 218 -226 186 -226 q 241 -223 229 -226 q 263 -210 253 -219 q 279 -183 272 -200 q 286 -136 286 -165 q 260 -62 286 -81 q 185 -42 233 -44 l 157 -42 q 124 -31 138 -42 q 113 1 111 -19 q 131 35 113 21 q 144 43 133 36 q 169 61 154 50 q 55 124 100 76 q 10 246 10 171 q 27 328 10 290 q 74 395 44 367 q 142 440 103 424 q 224 456 181 456 q 261 464 243 456 q 293 485 279 472 q 315 510 307 497 q 324 531 324 522 q 335 560 324 547 q 365 572 347 572 q 394 560 382 572 q 407 531 407 547 q 397 488 407 515 q 346 410 386 461 q 393 342 379 383 q 407 261 407 301 q 397 188 407 219 q 369 129 388 156 q 326 81 351 103 q 272 35 301 58 q 340 17 308 28 q 397 -13 372 6 q 435 -59 421 -32 q 450 -125 450 -86 q 430 -207 450 -172 q 378 -265 410 -242 q 308 -299 346 -287 q 233 -310 269 -310 m 172 244 q 174 217 172 235 q 182 183 175 200 q 202 152 189 165 q 238 139 215 139 q 277 151 261 139 q 303 181 293 163 q 319 220 314 199 q 324 261 324 242 q 322 283 324 271 q 317 308 321 296 q 306 331 313 321 q 289 346 299 342 q 261 336 278 336 q 234 347 246 336 q 219 372 222 357 q 188 331 204 367 q 172 244 172 296 z "},"h":{"ha":461,"x_min":24,"x_max":456,"o":"m 54 54 q 37 122 43 82 q 28 206 31 163 q 24 289 25 249 q 24 358 24 329 q 24 461 24 406 q 29 574 25 517 q 41 685 33 631 q 61 786 49 740 q 83 833 68 810 q 128 857 97 857 q 163 835 156 857 q 174 792 171 814 q 181 635 181 713 q 182 478 182 557 q 181 413 182 444 q 181 351 181 382 q 224 396 199 376 q 283 415 250 415 q 363 393 331 415 q 417 336 396 371 q 447 260 438 301 q 456 179 456 218 q 451 126 456 157 q 435 67 447 94 q 404 19 424 39 q 354 0 385 0 q 317 17 332 0 q 297 53 303 29 q 290 106 292 78 q 290 160 289 133 q 290 207 290 188 q 291 239 290 218 q 292 280 292 260 q 289 315 292 300 q 278 331 286 331 q 238 299 256 331 q 205 225 219 267 q 181 142 190 183 q 168 81 172 100 q 164 54 167 68 q 156 28 161 40 q 140 9 150 17 q 115 1 131 1 q 83 12 100 1 q 54 54 67 22 z "},"i":{"ha":194,"x_min":15,"x_max":174,"o":"m 158 50 q 141 15 153 31 q 107 0 129 0 q 58 22 76 0 q 30 74 39 43 q 18 138 21 104 q 15 193 15 171 q 19 260 15 217 q 33 347 22 304 q 64 422 43 390 q 119 454 85 454 q 151 440 140 454 q 165 406 163 425 q 172 328 171 367 q 174 250 174 289 q 174 206 174 233 q 172 150 174 179 q 167 94 171 121 q 158 50 164 67 m 158 564 q 143 526 158 542 q 106 511 128 511 q 68 526 83 511 q 53 564 53 542 q 68 601 53 586 q 106 617 83 617 q 143 601 128 617 q 158 564 158 586 z "},"j":{"ha":206,"x_min":-151,"x_max":189,"o":"m -110 -192 q -87 -199 -99 -192 q -48 -219 -61 -215 q -29 -222 -35 -222 q 0 -185 -10 -221 q 15 -82 10 -149 q 26 140 24 29 q 38 361 29 250 q 41 391 39 375 q 49 422 43 407 q 65 446 54 436 q 93 456 75 456 q 127 442 114 456 q 149 410 140 429 q 163 371 158 392 q 171 335 168 350 q 178 281 175 313 q 184 216 182 250 q 188 148 186 182 q 189 86 189 114 q 180 -31 189 36 q 147 -158 171 -97 q 83 -262 124 -219 q -22 -306 42 -306 q -62 -301 -40 -306 q -105 -286 -85 -296 q -138 -263 -125 -276 q -151 -233 -151 -250 q -140 -204 -151 -217 q -110 -192 -128 -192 m 29 564 q 44 601 29 586 q 81 617 60 617 q 118 601 103 617 q 133 564 133 586 q 118 526 133 542 q 81 511 103 511 q 44 526 60 511 q 29 564 29 542 z "},"k":{"ha":447,"x_min":24,"x_max":442,"o":"m 24 357 q 24 460 24 404 q 29 572 25 515 q 41 684 33 629 q 61 785 49 739 q 83 833 68 808 q 128 857 97 857 q 163 835 156 857 q 174 790 171 813 q 181 633 181 711 q 182 476 182 556 q 181 384 182 429 q 179 299 181 339 q 222 334 200 315 q 266 369 244 353 q 308 401 288 386 q 342 424 328 415 q 363 429 351 429 q 392 417 381 429 q 404 388 404 404 q 385 351 404 364 q 353 330 372 343 q 313 300 335 317 q 269 265 292 283 q 225 228 246 246 q 292 210 254 222 q 363 181 329 199 q 419 136 396 163 q 442 74 442 110 q 427 24 442 46 q 381 0 413 1 q 348 6 365 -1 q 306 26 331 13 q 238 69 271 46 q 172 118 204 93 q 168 75 171 96 q 164 49 167 63 q 156 25 161 36 q 140 7 150 14 q 115 0 131 0 q 83 10 100 0 q 54 53 67 21 q 37 121 43 81 q 28 204 31 161 q 24 288 25 247 q 24 357 24 328 z "},"l":{"ha":201,"x_min":19,"x_max":178,"o":"m 19 357 q 20 460 19 404 q 25 572 21 515 q 37 684 29 629 q 57 785 44 739 q 78 833 64 808 q 124 857 93 857 q 159 835 151 857 q 169 790 167 813 q 177 633 176 711 q 178 476 178 556 q 176 275 178 382 q 164 75 175 168 q 160 49 163 63 q 151 25 157 36 q 136 7 146 14 q 111 0 126 0 q 79 10 96 0 q 50 53 63 21 q 33 121 39 81 q 24 204 26 161 q 20 288 21 247 q 19 357 19 328 z "},"m":{"ha":717,"x_min":25,"x_max":699,"o":"m 117 1 q 67 23 86 1 q 40 75 49 44 q 28 139 31 106 q 25 194 25 172 q 28 262 25 218 q 42 349 32 306 q 74 423 53 392 q 129 454 94 454 q 158 443 149 454 q 173 415 168 432 q 178 381 178 399 q 181 349 179 363 q 225 395 199 375 q 285 415 251 415 q 360 395 326 415 q 415 339 393 375 q 461 392 433 369 q 526 415 489 415 q 606 393 574 415 q 660 336 639 371 q 690 260 681 301 q 699 179 699 218 q 694 126 699 157 q 678 67 690 94 q 647 19 667 39 q 597 0 628 0 q 555 21 568 0 q 536 71 542 42 q 532 130 531 100 q 533 178 533 160 q 536 217 533 192 q 540 268 539 243 q 537 312 540 293 q 521 331 533 331 q 497 313 508 331 q 478 269 486 294 q 464 219 469 244 q 457 179 458 193 q 449 126 453 157 q 434 67 444 94 q 405 19 424 39 q 356 0 386 0 q 313 21 326 0 q 294 71 300 42 q 290 130 289 100 q 292 178 292 160 q 293 217 292 192 q 294 268 294 243 q 292 312 294 293 q 279 331 289 331 q 238 295 256 331 q 206 213 219 260 q 183 119 193 165 q 168 51 174 72 q 151 17 163 32 q 117 1 139 1 z "},"n":{"ha":472,"x_min":24,"x_max":456,"o":"m 290 178 q 292 217 290 192 q 292 268 293 243 q 289 312 292 293 q 278 331 286 331 q 249 314 263 331 q 225 271 236 297 q 205 212 214 244 q 188 149 196 179 q 176 92 181 118 q 167 51 171 65 q 149 17 161 32 q 115 1 138 1 q 66 23 85 1 q 38 75 47 44 q 26 139 29 106 q 24 194 24 172 q 27 262 24 218 q 41 349 31 306 q 72 423 51 392 q 128 454 93 454 q 157 443 147 454 q 172 415 167 432 q 177 381 176 399 q 179 349 178 363 q 224 395 197 375 q 283 415 250 415 q 363 393 331 415 q 417 336 396 371 q 447 260 438 301 q 456 179 456 218 q 451 126 456 157 q 435 67 447 94 q 404 19 424 39 q 354 0 385 0 q 312 21 325 0 q 293 71 299 42 q 289 130 288 100 q 290 178 290 160 z "},"o":{"ha":435,"x_min":18,"x_max":415,"o":"m 232 456 q 258 448 247 456 q 271 432 268 440 l 282 432 q 345 413 319 432 q 386 365 371 394 q 408 301 401 336 q 415 236 415 267 q 406 157 415 199 q 374 81 396 115 q 315 23 351 46 q 225 0 278 0 q 146 15 183 0 q 80 58 108 31 q 35 126 51 86 q 18 217 18 167 q 33 306 18 263 q 77 382 49 349 q 145 435 106 415 q 232 456 185 456 m 275 349 q 235 374 249 349 q 210 352 221 374 q 194 303 200 331 q 184 250 188 276 q 181 215 181 224 q 182 189 181 210 q 190 144 183 168 q 210 102 196 121 q 249 83 224 83 q 288 100 272 83 q 314 141 304 117 q 328 192 324 165 q 332 238 332 218 q 330 270 332 251 q 322 306 328 289 q 304 336 315 324 q 275 349 293 349 z "},"p":{"ha":489,"x_min":22,"x_max":486,"o":"m 181 -44 q 178 -134 181 -87 q 169 -219 176 -181 q 149 -283 163 -258 q 114 -308 136 -308 q 72 -287 89 -308 q 45 -234 56 -267 q 30 -161 35 -201 q 24 -82 25 -121 q 22 -9 22 -43 q 22 46 22 25 q 23 115 22 72 q 27 208 24 158 q 37 309 31 258 q 55 401 43 360 q 84 467 67 442 q 126 493 101 493 q 154 483 144 493 q 168 456 164 472 q 174 423 172 440 q 175 392 175 406 q 242 404 208 404 q 335 386 290 404 q 413 335 379 368 q 466 260 446 303 q 486 167 486 217 q 439 45 486 90 q 317 0 392 0 q 238 25 272 0 q 181 82 204 50 l 181 -44 m 240 321 q 179 301 214 321 l 179 267 q 199 217 186 249 q 231 156 213 186 q 270 105 249 126 q 314 83 292 83 q 324 101 322 83 q 326 133 326 119 q 322 181 326 150 q 306 244 317 213 q 279 298 296 275 q 240 321 263 321 z "},"r":{"ha":444,"x_min":24,"x_max":436,"o":"m 279 210 q 281 242 279 221 q 283 282 282 263 q 285 316 285 301 q 282 331 285 331 q 242 296 260 331 q 209 215 224 261 q 184 122 194 168 q 167 50 174 75 q 149 15 161 31 q 115 0 138 0 q 66 22 85 0 q 38 74 47 43 q 26 138 29 104 q 24 193 24 171 q 27 260 24 217 q 41 347 31 304 q 72 422 51 390 q 128 454 93 454 q 157 442 147 454 q 172 414 167 431 q 177 379 176 397 q 179 349 178 361 q 224 394 199 375 q 285 414 250 414 q 394 371 353 414 q 436 260 436 328 q 431 215 436 239 q 413 172 425 192 q 383 140 401 153 q 340 126 365 126 q 292 153 304 126 q 279 210 279 179 z "},"q":{"ha":489,"x_min":3,"x_max":467,"o":"m 308 82 q 251 25 285 50 q 172 0 217 0 q 50 45 97 0 q 3 167 3 90 q 23 260 3 217 q 76 335 43 303 q 154 386 110 368 q 247 404 199 404 q 314 392 281 404 q 315 423 314 406 q 319 456 315 440 q 334 483 324 472 q 363 493 344 493 q 405 467 388 493 q 434 401 422 442 q 452 309 446 360 q 462 208 458 258 q 466 115 465 158 q 467 46 467 72 q 467 -8 467 26 q 465 -82 467 -43 q 459 -161 464 -121 q 444 -234 454 -201 q 417 -287 433 -267 q 375 -308 400 -308 q 340 -283 353 -308 q 319 -219 326 -258 q 309 -134 311 -181 q 307 -44 307 -87 q 308 33 307 0 q 308 82 308 67 m 163 133 q 165 101 163 119 q 175 83 167 83 q 219 105 197 83 q 258 156 240 126 q 290 217 276 186 q 310 267 304 249 l 310 301 q 247 321 275 321 q 209 298 225 321 q 183 244 193 275 q 167 181 172 213 q 163 133 163 150 z "},"s":{"ha":419,"x_min":15,"x_max":403,"o":"m 204 0 q 148 5 181 0 q 86 19 115 10 q 36 45 57 29 q 15 83 15 61 q 28 113 15 101 q 57 125 40 125 q 82 117 72 125 q 128 94 97 106 q 190 83 160 83 q 229 93 214 83 q 244 128 244 103 q 238 154 244 143 q 219 173 231 165 q 194 188 208 181 q 164 201 179 194 q 124 221 144 210 q 88 247 104 232 q 60 281 71 261 q 49 324 49 300 q 71 383 49 358 q 125 422 93 407 q 192 444 157 438 q 253 451 226 451 q 283 449 265 451 q 316 442 300 447 q 343 425 332 436 q 354 397 354 414 q 342 368 354 381 q 313 356 331 356 q 281 363 301 356 q 242 369 261 369 q 221 364 229 369 q 213 343 213 358 q 238 301 213 315 q 292 271 263 286 q 368 219 333 250 q 403 136 403 189 q 382 71 403 97 q 331 28 361 44 q 265 6 300 13 q 204 0 231 0 z "},"t":{"ha":332,"x_min":6,"x_max":324,"o":"m 236 790 q 240 713 240 764 q 244 604 243 665 q 244 476 244 543 l 244 449 q 268 453 264 450 q 282 456 276 456 q 312 443 300 456 q 324 414 324 431 q 315 389 324 399 q 295 374 307 379 q 269 367 283 369 q 243 364 256 365 q 241 219 243 292 q 231 75 239 147 q 226 49 229 63 q 218 25 224 36 q 203 7 213 14 q 178 0 193 0 q 147 10 164 0 q 117 53 129 21 q 101 121 107 81 q 91 204 94 161 q 87 288 88 247 q 86 357 86 328 l 86 363 q 58 363 69 363 q 46 364 47 364 q 17 378 29 365 q 7 408 6 390 q 21 437 8 425 q 51 447 33 449 q 61 447 56 447 q 88 446 68 446 q 90 528 89 485 q 96 617 92 572 q 107 704 100 661 q 125 785 114 747 q 133 810 128 797 q 147 833 139 822 q 165 850 154 843 q 190 857 176 857 q 227 835 219 857 q 236 790 235 813 z "},"u":{"ha":475,"x_min":21,"x_max":453,"o":"m 349 0 q 324 8 333 0 q 309 26 314 15 q 302 51 304 38 q 299 75 300 64 q 256 24 282 47 q 193 0 229 0 q 110 26 143 0 q 58 90 78 51 q 29 175 38 129 q 21 260 21 221 q 24 317 21 283 q 39 381 28 350 q 69 433 50 411 q 121 456 89 456 q 164 432 150 456 q 183 377 178 408 q 187 313 188 346 q 186 261 186 281 q 185 217 186 246 q 185 158 185 188 q 188 108 185 129 q 199 86 190 86 q 227 106 214 86 q 251 155 240 125 q 270 222 261 185 q 286 294 279 258 q 299 359 293 329 q 308 404 304 389 q 326 439 314 424 q 361 454 338 454 q 411 433 393 454 q 438 381 429 411 q 450 317 447 350 q 453 261 453 285 q 449 192 453 236 q 435 106 446 149 q 404 32 425 64 q 349 0 383 0 z "},"v":{"ha":419,"x_min":21,"x_max":404,"o":"m 193 142 q 200 103 196 115 q 207 85 204 90 q 249 138 229 96 q 283 231 268 181 q 308 331 299 282 q 322 404 318 379 q 336 430 325 419 q 363 440 347 440 q 392 428 381 440 q 404 399 404 415 q 399 356 404 382 q 388 303 394 331 q 375 251 382 276 q 364 211 368 226 q 342 148 356 185 q 310 78 329 111 q 263 23 290 46 q 201 0 236 0 q 115 28 150 0 q 60 97 81 56 q 30 187 39 139 q 21 276 21 235 q 24 329 21 299 q 38 388 28 360 q 67 436 49 417 q 115 456 85 456 q 144 448 132 456 q 163 428 156 440 q 174 402 171 417 q 179 374 178 388 q 183 322 182 350 q 186 263 185 294 q 189 200 188 231 q 193 142 190 169 z "},"w":{"ha":689,"x_min":22,"x_max":669,"o":"m 22 276 q 26 329 22 299 q 40 388 29 360 q 68 436 50 417 q 117 456 86 456 q 145 448 133 456 q 165 428 157 440 q 176 402 172 417 q 181 374 179 388 q 185 322 183 350 q 188 263 186 294 q 190 200 189 231 q 194 142 192 169 q 201 103 197 115 q 208 85 206 90 q 240 119 226 92 q 263 178 253 146 q 278 242 272 211 q 286 290 285 274 q 291 340 286 311 q 306 394 296 368 q 335 438 317 419 q 381 456 353 456 q 409 448 397 456 q 428 428 421 440 q 440 402 436 417 q 444 374 443 388 q 449 322 447 350 q 451 263 450 294 q 454 200 453 231 q 458 142 456 169 q 465 103 461 115 q 472 85 469 90 q 514 138 494 96 q 549 231 533 181 q 574 331 564 282 q 588 404 583 379 q 601 430 590 419 q 628 440 613 440 q 658 428 646 440 q 669 399 669 415 q 665 356 669 382 q 653 303 660 331 q 640 251 647 276 q 629 211 633 226 q 608 148 621 185 q 575 78 594 111 q 528 23 556 46 q 467 0 501 0 q 381 29 418 0 q 324 100 344 58 q 303 64 315 82 q 277 32 292 46 q 244 9 263 18 q 203 0 225 0 q 117 28 151 0 q 61 97 82 56 q 31 187 40 139 q 22 276 22 235 z "},"x":{"ha":411,"x_min":24,"x_max":389,"o":"m 24 404 q 40 442 24 428 q 79 456 57 456 q 125 440 101 456 q 170 401 149 424 q 210 355 192 379 q 242 314 229 331 q 281 374 264 346 q 308 425 299 401 q 347 450 319 450 q 376 438 364 450 q 389 408 389 426 q 376 372 389 396 q 347 323 364 349 q 315 274 331 297 q 290 239 299 250 q 313 200 300 224 q 339 151 326 176 q 360 100 351 125 q 368 56 368 75 q 355 17 368 33 q 318 0 342 0 q 296 6 306 0 q 269 24 283 11 q 240 53 254 38 q 213 84 225 68 q 192 113 200 100 q 135 45 158 72 q 108 15 111 18 q 76 1 96 1 q 47 13 60 1 q 35 43 35 25 q 46 71 35 57 q 74 103 58 85 q 104 139 88 118 q 140 183 121 160 q 88 263 114 222 q 42 347 61 304 q 29 375 35 361 q 24 404 24 389 z "},"y":{"ha":474,"x_min":15,"x_max":453,"o":"m 242 -307 q 206 -302 228 -307 q 163 -288 183 -297 q 127 -265 142 -279 q 113 -235 113 -251 q 125 -206 113 -218 q 154 -193 138 -193 q 178 -200 165 -193 q 212 -217 194 -211 q 235 -224 229 -224 q 253 -205 246 -224 q 267 -158 261 -186 q 278 -94 274 -129 q 286 -26 283 -60 q 290 34 289 7 q 292 74 292 61 q 249 23 275 46 q 188 0 222 0 q 105 26 138 0 q 52 90 72 51 q 24 175 32 129 q 15 260 15 221 q 19 317 15 283 q 33 381 22 350 q 64 433 44 411 q 115 456 83 456 q 158 432 144 456 q 177 377 172 408 q 181 313 182 346 q 181 261 181 281 q 180 214 181 243 q 180 156 179 185 q 183 107 181 128 q 193 86 186 86 q 218 103 206 86 q 242 146 231 119 q 264 206 254 172 q 281 271 274 239 q 294 331 289 303 q 303 375 300 358 q 308 401 306 388 q 317 427 311 415 q 332 447 322 439 q 357 454 342 454 q 397 434 381 454 q 423 383 413 414 q 440 313 433 351 q 449 239 446 275 q 452 172 451 203 q 453 126 453 142 q 450 47 453 93 q 440 -47 447 1 q 417 -141 432 -94 q 380 -224 403 -187 q 323 -284 357 -261 q 242 -307 289 -307 z "},"z":{"ha":425,"x_min":19,"x_max":408,"o":"m 42 400 q 52 426 42 415 q 78 440 63 438 q 150 447 114 444 q 222 450 186 450 q 274 446 250 450 q 317 431 299 442 q 347 399 336 419 q 358 347 358 379 q 340 275 358 313 q 295 203 322 238 q 237 137 268 168 q 181 83 206 106 q 217 84 194 83 q 265 88 240 85 q 310 94 289 90 q 343 106 332 99 q 367 114 354 114 q 397 102 385 114 q 408 72 408 90 q 383 34 408 49 q 325 12 358 19 q 256 2 292 4 q 200 0 221 0 q 147 3 178 0 q 88 15 117 6 q 40 43 60 25 q 19 92 19 61 q 45 158 19 119 q 106 237 71 197 q 175 312 140 276 q 228 367 210 347 q 156 364 194 367 q 83 357 117 361 q 53 369 65 357 q 42 400 42 382 z "},"a":{"ha":469,"x_min":18,"x_max":450,"o":"m 157 0 q 51 35 85 0 q 18 111 18 69 q 43 190 18 157 q 106 244 68 222 q 187 275 143 265 q 268 285 231 285 q 275 283 272 285 q 270 310 274 294 q 260 339 267 325 q 244 363 254 353 q 219 372 235 372 q 191 368 207 372 q 160 356 175 364 q 135 336 146 347 q 121 311 124 325 q 107 288 118 296 q 81 279 96 279 q 51 291 64 279 q 39 321 39 303 q 58 369 39 344 q 93 410 76 394 q 144 440 113 425 q 219 456 175 456 q 316 437 274 456 q 388 386 358 418 q 434 310 418 354 q 450 214 450 265 q 443 148 450 185 q 420 78 436 111 q 378 22 404 44 q 317 -1 353 -1 q 288 11 300 -1 q 275 40 275 24 q 276 47 275 43 q 276 53 276 50 q 279 65 279 58 q 157 0 222 0 m 269 201 q 227 194 249 201 q 188 174 206 188 q 160 142 171 160 q 150 100 150 124 q 153 85 150 85 q 190 97 172 85 q 224 126 208 108 q 251 165 239 144 q 269 201 263 186 z "},"A":{"ha":525,"x_min":18,"x_max":503,"o":"m 494 -3 q 481 -31 493 -19 q 453 -42 469 -42 q 411 -25 428 -42 q 384 15 394 -8 q 369 65 374 39 q 361 110 364 92 q 353 206 356 154 q 350 317 351 258 q 292 308 324 313 q 227 298 260 303 q 164 290 194 293 q 110 283 133 286 q 101 126 101 200 q 106 47 101 83 q 94 15 106 28 q 64 1 83 1 q 37 12 49 1 q 22 39 25 22 q 18 126 18 76 q 23 233 18 164 q 39 383 28 301 q 69 549 50 464 q 119 703 89 633 q 191 816 150 772 q 288 860 232 860 q 378 824 342 860 q 439 731 415 788 q 476 603 463 674 q 495 464 489 533 q 502 335 501 394 q 503 240 503 276 q 501 147 503 190 q 499 71 500 103 q 496 19 497 39 q 494 -3 494 -1 m 119 368 q 172 374 143 371 q 231 382 200 378 q 291 392 261 386 q 347 401 321 397 q 342 542 346 474 q 331 665 339 610 q 326 689 329 671 q 317 726 322 707 q 303 761 311 746 q 288 776 296 776 q 243 751 264 776 q 204 687 222 726 q 172 599 186 647 q 147 506 157 551 q 129 423 136 460 q 119 368 122 386 z "},"B":{"ha":668,"x_min":25,"x_max":651,"o":"m 651 226 q 624 125 651 168 q 554 54 596 82 q 463 13 513 26 q 369 -1 414 -1 q 268 15 317 -1 q 179 63 219 32 q 174 31 178 49 q 165 -3 171 13 q 147 -30 158 -19 q 117 -40 136 -40 q 94 -35 108 -40 q 69 -12 81 -31 q 52 35 60 4 q 40 105 44 67 q 32 185 35 143 q 28 265 29 226 q 26 337 26 304 q 25 389 25 369 q 26 483 25 429 q 31 592 26 536 q 42 701 35 649 q 61 792 49 754 q 83 837 68 815 q 128 858 99 858 q 163 838 154 858 q 175 794 172 817 q 176 786 176 790 q 178 776 176 782 q 274 837 219 814 q 388 860 329 860 q 470 847 429 860 q 544 808 511 833 q 599 744 578 782 q 619 656 619 706 q 603 574 619 611 q 558 504 586 536 q 494 446 531 472 q 419 399 458 419 q 507 390 465 399 q 581 360 549 381 q 632 308 613 340 q 651 226 651 275 m 186 650 q 190 510 189 579 q 192 371 192 442 q 191 271 192 324 q 188 169 190 218 q 268 106 219 129 q 368 82 317 82 q 486 217 486 85 q 465 292 486 268 q 393 315 444 315 q 331 310 361 315 q 268 304 300 304 q 232 313 249 304 q 215 344 215 322 q 225 382 214 368 q 246 404 236 396 q 326 464 288 439 q 392 518 364 489 q 438 589 421 547 q 456 697 456 631 q 454 719 456 706 q 446 745 453 732 q 424 767 439 758 q 381 776 408 776 q 325 767 354 776 q 269 741 296 757 q 222 703 243 725 q 189 657 200 682 q 186 650 189 653 z "},"C":{"ha":586,"x_min":18,"x_max":574,"o":"m 181 392 q 185 310 181 363 q 205 208 190 258 q 247 120 219 157 q 317 83 274 83 q 394 108 361 83 q 449 161 428 132 q 482 215 471 190 q 493 239 493 239 q 508 259 497 251 q 532 267 519 267 q 561 255 549 267 q 574 225 574 243 q 567 198 574 215 q 550 163 560 181 q 530 131 540 146 q 514 108 519 115 q 424 28 474 56 q 317 0 375 0 q 179 38 236 0 q 87 136 122 76 q 35 268 51 196 q 18 410 18 340 q 35 560 18 482 q 91 705 53 639 q 190 814 129 771 q 336 857 250 857 q 376 851 351 857 q 424 835 400 846 q 466 808 449 824 q 483 774 483 793 q 471 744 483 757 q 442 732 458 732 q 417 740 428 732 q 333 774 371 776 q 280 751 303 774 q 240 692 257 728 q 212 612 224 656 q 193 526 200 568 q 183 449 186 485 q 181 392 181 413 z "},"D":{"ha":664,"x_min":25,"x_max":646,"o":"m 25 390 q 26 484 25 431 q 31 594 26 538 q 42 703 35 650 q 61 793 49 756 q 83 838 68 817 q 128 860 99 860 q 152 853 143 860 q 166 835 161 846 q 173 810 171 824 q 176 786 175 797 q 264 840 217 819 q 360 860 311 860 q 495 817 440 860 q 583 708 550 774 q 631 568 617 643 q 646 428 646 493 q 631 288 646 363 q 583 149 617 213 q 493 42 549 85 q 357 0 438 0 q 263 15 308 0 q 178 57 217 29 q 173 26 176 43 q 163 -5 169 10 q 146 -29 157 -19 q 117 -39 135 -39 q 94 -34 108 -39 q 69 -11 81 -29 q 52 37 60 6 q 40 106 44 68 q 32 186 35 144 q 28 267 29 228 q 26 338 26 306 q 25 390 25 371 m 486 428 q 476 563 486 500 q 449 674 467 626 q 409 749 432 721 q 360 776 386 776 q 309 767 335 776 q 260 744 283 758 q 217 709 236 729 q 185 667 197 689 q 190 519 188 592 q 192 372 192 447 q 190 267 192 322 q 186 160 189 211 q 263 104 217 125 q 357 83 308 83 q 405 104 385 83 q 440 157 425 125 q 463 228 454 189 q 477 307 472 268 q 484 378 482 346 q 486 428 486 410 z "},"E":{"ha":553,"x_min":21,"x_max":539,"o":"m 279 0 q 142 22 207 0 q 96 59 115 31 q 63 126 76 88 q 42 211 50 165 q 28 300 33 257 q 22 380 24 343 q 21 438 21 417 q 24 535 21 486 q 39 632 28 583 q 74 751 54 706 q 124 821 93 796 q 202 855 156 846 q 318 864 249 864 q 422 859 375 864 q 479 851 468 854 q 502 838 494 849 q 510 811 510 826 q 498 782 510 794 q 468 769 486 769 q 463 770 465 769 q 458 771 461 771 q 407 777 447 774 q 318 781 367 781 q 286 780 306 781 q 246 777 267 779 q 206 771 225 775 q 176 760 188 767 q 176 741 176 751 q 178 715 176 731 q 182 440 178 578 l 221 440 q 260 441 236 440 q 310 444 285 442 q 358 449 336 446 q 388 457 379 451 q 413 465 400 465 q 442 453 431 465 q 454 424 454 442 q 438 390 454 403 q 393 372 421 378 q 334 362 365 365 q 272 358 303 358 q 219 357 242 357 l 183 357 q 192 94 183 226 q 235 85 214 88 q 278 83 257 83 q 396 102 344 83 q 472 139 447 121 q 497 147 485 147 q 526 135 514 147 q 539 106 539 122 q 508 60 539 79 q 433 27 476 40 q 347 7 390 14 q 279 0 304 0 z "},"F":{"ha":494,"x_min":22,"x_max":492,"o":"m 201 440 q 241 441 217 440 q 291 443 265 442 q 339 448 317 444 q 369 457 361 451 q 394 465 381 465 q 424 453 411 465 q 436 424 436 440 q 418 390 436 404 q 374 371 401 378 q 316 361 347 364 q 254 358 285 358 q 201 357 224 357 l 192 357 q 196 265 194 311 q 197 178 197 218 q 197 148 197 163 q 196 121 197 133 q 193 83 194 99 q 189 56 192 67 q 172 17 185 35 q 136 0 160 0 q 111 6 125 0 q 85 32 97 13 q 53 121 65 63 q 35 246 42 179 q 25 378 28 313 q 22 488 22 444 q 27 601 22 542 q 47 711 32 660 q 90 801 61 763 q 164 850 118 839 q 231 861 197 858 q 299 864 265 864 q 403 859 356 864 q 461 851 450 854 q 492 811 492 842 q 479 782 492 794 q 450 769 467 769 q 439 771 443 769 q 388 777 428 774 q 299 781 349 781 q 267 780 286 781 q 227 777 247 779 q 189 771 207 775 q 158 760 171 767 q 160 756 160 758 q 176 598 171 676 q 188 440 182 519 l 201 440 z "},"G":{"ha":618,"x_min":18,"x_max":607,"o":"m 483 774 q 471 744 483 757 q 442 732 458 732 q 417 740 428 732 q 333 774 371 776 q 280 751 303 774 q 240 692 257 728 q 212 612 224 656 q 193 526 200 568 q 183 449 186 485 q 181 392 181 413 q 185 311 181 363 q 204 210 190 260 q 244 122 218 160 q 313 83 271 85 q 372 103 344 83 q 424 151 400 122 q 465 211 447 179 q 496 268 483 243 q 428 254 463 261 q 360 243 394 247 q 318 239 335 239 q 280 249 297 239 q 263 283 263 260 q 275 313 263 300 q 304 325 288 325 q 318 322 310 325 q 351 326 324 322 q 446 343 378 329 q 488 353 468 349 q 522 360 507 357 q 556 368 540 364 q 560 369 558 368 q 565 369 563 369 q 595 357 583 369 q 607 328 607 344 q 598 293 607 317 q 576 244 589 269 q 551 195 564 218 q 533 164 539 172 q 494 106 517 135 q 445 53 472 76 q 386 15 418 31 q 317 0 354 0 q 179 38 236 0 q 87 136 122 76 q 35 268 51 196 q 18 410 18 340 q 35 560 18 482 q 91 705 53 639 q 190 814 129 771 q 336 857 250 857 q 376 851 351 857 q 424 835 400 846 q 466 808 449 824 q 483 774 483 793 z "},"H":{"ha":607,"x_min":24,"x_max":581,"o":"m 421 440 q 419 499 419 469 q 418 556 418 528 q 419 622 418 583 q 423 702 419 661 q 433 780 426 743 q 451 838 439 817 q 478 865 463 860 q 503 871 493 871 q 538 856 522 871 q 551 834 544 849 q 564 785 558 819 q 574 690 569 751 q 579 529 578 629 q 581 455 581 493 q 581 379 581 417 q 580 231 581 301 q 578 108 579 160 l 578 33 q 568 -2 578 13 q 535 -17 558 -17 q 511 -11 525 -17 q 485 14 497 -6 q 460 82 471 38 q 442 177 450 126 q 431 276 435 228 q 425 356 428 325 q 308 332 367 342 q 189 311 249 322 q 185 188 188 249 q 175 85 182 126 q 170 57 174 72 q 160 29 167 42 q 142 8 153 17 q 115 0 132 0 q 94 4 107 0 q 68 26 81 8 q 44 104 53 51 q 31 217 35 157 q 25 332 26 276 q 24 415 24 388 q 24 505 24 453 q 29 612 25 557 q 40 718 33 667 q 60 806 47 769 q 83 850 67 829 q 126 871 99 871 q 162 851 153 871 q 174 808 171 831 q 177 778 176 796 q 181 738 178 761 q 188 567 186 653 q 190 396 190 482 q 306 416 249 406 q 421 440 363 426 z "},"I":{"ha":488,"x_min":15,"x_max":475,"o":"m 29 813 q 42 844 29 833 q 75 854 56 854 q 107 853 89 853 q 142 851 122 851 q 188 850 163 850 q 208 851 201 850 q 225 858 217 857 q 239 860 233 860 q 263 853 251 860 q 323 856 292 854 q 386 863 354 858 q 392 864 388 864 q 422 851 410 864 q 433 822 433 839 q 423 795 433 807 q 397 781 413 783 q 342 774 369 776 q 289 771 315 772 q 301 579 299 675 q 303 388 303 483 q 302 309 303 350 q 300 228 301 268 q 296 151 299 188 q 289 85 293 114 q 360 90 325 88 q 428 96 394 92 q 431 97 429 96 q 433 97 432 97 q 463 85 451 97 q 475 56 475 72 q 465 28 475 40 q 439 14 454 17 q 349 5 394 7 q 258 1 303 3 q 242 -9 250 -7 q 228 -11 233 -11 q 213 -9 221 -11 q 194 0 204 -7 q 97 3 136 1 q 54 4 57 4 q 26 19 38 7 q 15 46 15 31 q 28 76 15 65 q 60 88 42 88 q 88 86 61 88 q 158 85 114 85 q 140 245 143 164 q 136 406 136 326 q 140 586 136 493 q 164 767 144 679 q 67 772 76 769 q 40 785 51 774 q 29 813 29 797 z "},"J":{"ha":464,"x_min":14,"x_max":453,"o":"m 207 847 q 233 847 219 847 q 263 849 247 847 q 277 854 269 853 q 288 856 285 856 q 308 850 299 856 q 356 854 332 851 q 406 860 381 857 q 439 849 425 860 q 453 818 453 839 q 442 791 453 803 q 417 776 432 779 q 385 773 401 774 q 354 769 369 772 q 378 632 372 703 q 385 492 385 561 q 381 391 385 446 q 365 281 376 336 q 333 176 353 226 q 281 86 313 125 q 203 24 249 47 q 97 0 158 0 q 70 1 85 0 q 43 6 56 1 q 22 20 31 11 q 14 46 14 29 q 26 75 14 63 q 56 88 38 88 q 59 87 58 88 q 63 86 60 86 q 69 85 65 86 q 78 85 74 85 q 135 115 113 85 q 174 187 158 146 q 197 269 189 228 q 207 333 204 311 q 224 505 219 417 q 231 664 228 593 q 231 719 231 693 q 233 764 232 744 l 207 764 q 122 766 154 764 q 86 768 89 768 q 60 782 71 769 q 49 810 49 794 q 62 840 49 829 q 94 851 75 851 q 126 850 108 850 q 162 848 142 849 q 207 847 182 847 z "},"K":{"ha":631,"x_min":25,"x_max":613,"o":"m 69 26 q 47 99 56 50 q 33 203 38 147 q 26 310 28 258 q 25 388 25 361 q 26 481 25 428 q 31 591 26 535 q 42 700 35 647 q 61 790 49 753 q 83 835 68 814 q 128 857 99 857 q 164 836 156 857 q 175 793 172 815 q 184 715 181 757 q 189 628 188 672 q 190 542 190 585 q 190 463 190 500 q 274 524 225 486 q 366 606 322 563 q 440 697 410 650 q 471 786 471 744 q 483 815 471 803 q 513 828 496 828 q 542 815 531 828 q 554 786 554 803 q 523 675 554 731 q 445 569 492 619 q 346 475 399 518 q 249 401 293 432 q 308 367 272 389 q 383 315 343 344 q 465 253 424 286 q 538 185 506 219 q 592 119 571 151 q 613 58 613 86 q 597 17 613 35 q 557 -1 582 -1 q 516 10 542 -1 q 442 60 490 22 q 313 167 375 111 q 190 282 251 224 q 186 171 189 215 q 176 83 183 126 q 171 56 175 71 q 160 28 167 40 q 144 7 154 15 q 117 -1 133 -1 q 94 3 108 -1 q 69 26 81 8 z "},"L":{"ha":524,"x_min":22,"x_max":522,"o":"m 268 0 q 217 2 246 0 q 160 12 188 4 q 110 33 133 19 q 78 72 88 47 q 51 167 61 114 q 34 274 40 219 q 25 378 28 328 q 22 464 22 428 q 24 549 22 496 q 32 658 26 601 q 48 764 38 714 q 75 840 58 814 q 103 865 89 860 q 126 871 117 871 q 147 866 133 871 q 171 840 160 861 q 184 786 182 819 q 188 731 186 753 q 189 691 189 711 q 189 647 189 671 q 183 372 189 510 q 163 99 178 235 q 197 88 172 93 q 268 83 222 83 q 313 85 288 83 q 364 89 338 86 q 415 96 390 92 q 456 107 439 100 q 481 115 467 115 q 510 103 499 115 q 522 74 522 90 q 489 33 522 47 q 413 10 456 18 q 327 1 369 3 q 268 0 285 0 z "},"M":{"ha":707,"x_min":24,"x_max":682,"o":"m 179 506 q 157 601 168 554 q 135 689 146 649 q 133 696 133 692 q 131 703 132 700 q 113 520 118 611 q 107 338 107 429 q 108 278 107 318 q 113 197 110 239 q 123 119 117 154 q 140 71 129 83 q 153 42 153 58 q 140 13 153 25 q 111 0 128 0 q 81 14 93 0 q 48 76 60 35 q 31 166 36 118 q 25 261 26 214 q 24 339 24 308 q 26 451 24 382 q 35 592 29 521 q 49 727 40 664 q 72 822 58 790 q 97 852 83 846 q 119 858 110 858 q 142 853 131 858 q 206 812 178 844 q 258 733 235 779 q 298 631 281 686 q 327 523 315 576 q 347 424 339 469 q 358 349 354 378 q 434 585 401 465 q 494 824 467 704 q 510 848 497 839 q 538 857 522 857 q 594 837 571 857 q 631 788 617 817 q 653 725 646 758 q 664 667 660 692 q 678 528 675 597 q 682 388 682 458 q 681 280 682 333 q 677 180 679 226 q 672 96 675 133 q 668 33 669 58 q 667 11 667 21 q 667 -1 667 1 q 653 -30 665 -18 q 625 -42 642 -42 q 606 -37 614 -42 q 582 -19 593 -32 q 562 20 571 -6 q 546 86 553 46 q 533 188 539 126 q 524 355 526 265 q 518 529 521 444 q 517 554 518 542 q 517 578 517 567 q 474 429 497 503 q 422 283 451 356 q 406 247 415 267 q 385 208 397 226 q 357 178 374 190 q 319 167 340 167 q 269 205 288 172 q 232 294 250 238 q 206 394 219 339 q 179 506 193 449 z "},"N":{"ha":571,"x_min":25,"x_max":546,"o":"m 424 815 q 436 845 424 833 q 465 857 449 857 q 504 831 493 857 q 526 744 518 797 q 539 634 535 692 q 544 522 543 576 q 546 431 546 468 q 545 378 546 411 q 543 303 544 344 q 539 219 542 263 q 531 138 536 176 q 519 68 526 99 q 501 24 511 38 q 460 0 488 0 q 419 17 436 0 q 389 50 401 33 q 365 90 378 67 q 335 143 351 113 q 221 383 272 261 q 119 629 169 506 q 112 480 115 558 q 108 326 108 401 q 114 168 108 240 q 135 56 119 96 q 138 42 138 47 q 125 13 138 25 q 96 0 113 0 q 56 28 67 0 q 33 147 40 72 q 25 328 25 222 q 32 571 25 450 q 51 814 39 692 q 66 840 54 829 q 93 851 78 851 q 171 813 132 851 q 247 713 210 774 q 317 578 283 653 q 377 433 350 504 q 424 304 404 363 q 454 217 444 246 q 463 436 463 328 q 453 663 463 565 q 426 800 443 760 q 424 808 425 804 q 424 815 424 811 z "},"O":{"ha":664,"x_min":18,"x_max":644,"o":"m 18 419 q 38 572 18 494 q 98 714 57 650 q 201 818 139 778 q 351 858 264 858 q 488 820 432 858 q 579 724 544 782 q 629 594 614 665 q 644 456 644 524 q 628 308 644 388 q 574 160 611 228 q 478 46 538 92 q 336 0 419 0 q 192 39 253 0 q 94 138 132 78 q 37 273 56 199 q 18 419 18 347 m 353 775 q 265 733 299 775 q 210 634 231 692 q 183 516 190 576 q 175 417 175 456 q 182 326 175 382 q 206 216 189 269 q 256 123 224 163 q 338 83 288 83 q 443 124 400 83 q 512 222 486 164 q 549 343 538 279 q 561 456 561 407 q 551 560 561 504 q 517 663 542 615 q 453 743 493 711 q 353 775 414 775 z "},"P":{"ha":665,"x_min":25,"x_max":661,"o":"m 25 410 q 26 498 25 447 q 31 602 26 549 q 42 706 35 656 q 61 793 49 757 q 84 837 68 817 q 128 857 100 857 q 163 837 154 857 q 175 794 172 817 q 178 772 176 785 q 181 744 179 760 q 288 824 226 793 q 418 856 350 856 q 503 842 460 856 q 582 805 547 829 q 639 745 617 781 q 661 664 661 710 q 631 531 661 592 q 549 425 600 469 q 433 356 499 381 q 299 331 368 331 q 192 351 240 331 q 190 280 192 317 q 188 208 189 243 q 183 141 186 172 q 176 85 181 110 q 172 57 175 72 q 161 29 168 42 q 144 8 154 17 q 117 0 133 0 q 95 5 108 0 q 71 26 82 10 q 45 103 54 50 q 32 214 36 156 q 26 327 28 272 q 25 410 25 382 m 500 664 q 485 740 500 708 q 419 772 471 771 q 351 760 385 772 q 289 728 318 749 q 235 681 260 707 q 194 625 211 654 q 188 617 193 622 q 190 532 189 574 q 192 447 190 490 q 299 414 233 414 q 391 435 353 414 q 453 491 429 456 q 489 572 478 526 q 500 664 500 617 z "},"Q":{"ha":707,"x_min":15,"x_max":688,"o":"m 61 417 q 81 569 61 492 q 141 711 100 647 q 244 815 182 775 q 394 856 307 856 q 531 817 475 856 q 622 721 588 779 q 672 592 657 663 q 688 453 688 521 q 671 306 688 385 q 617 158 654 226 q 522 43 581 89 q 381 -3 464 -3 q 237 36 297 -3 q 138 135 176 75 q 80 270 99 196 q 61 417 61 344 m 396 772 q 308 731 342 772 q 254 632 274 689 q 227 514 235 575 q 219 415 219 453 q 222 358 219 392 q 232 287 225 324 q 250 213 239 250 q 279 147 261 176 q 322 99 297 118 q 381 81 347 81 q 486 121 443 81 q 555 219 529 161 q 592 340 581 276 q 604 453 604 404 q 594 557 604 501 q 560 660 585 613 q 497 740 536 708 q 396 772 457 772 m 594 -7 q 624 -19 613 -7 q 636 -49 636 -32 q 613 -86 636 -75 q 394 -139 504 -139 q 263 -119 329 -139 q 144 -60 197 -99 q 55 35 90 -21 q 17 163 19 92 q 27 192 15 179 q 57 206 39 204 q 86 195 74 207 q 100 165 99 183 q 131 72 103 113 q 202 2 160 31 q 295 -41 244 -26 q 393 -56 346 -56 q 576 -11 485 -56 q 594 -7 585 -7 z "},"R":{"ha":668,"x_min":25,"x_max":647,"o":"m 307 333 q 248 335 275 333 q 192 351 221 338 q 188 208 190 281 q 176 88 185 136 q 172 60 175 75 q 161 31 168 44 q 144 10 154 18 q 117 1 133 1 q 78 19 93 1 q 56 60 64 36 q 44 110 47 85 q 38 153 40 136 q 28 271 31 204 q 25 411 25 338 q 26 500 25 449 q 31 605 26 551 q 42 708 35 658 q 61 794 49 758 q 84 838 68 818 q 128 858 100 858 q 157 847 147 858 q 172 817 167 835 q 178 781 176 800 q 181 749 179 763 q 280 827 224 797 q 397 857 336 857 q 487 840 442 857 q 567 790 532 822 q 625 715 603 758 q 647 617 647 671 q 588 467 647 528 q 433 365 529 406 q 497 306 461 343 q 563 226 532 268 q 616 142 594 183 q 638 67 638 100 q 624 22 638 43 q 582 0 610 0 q 530 24 554 0 q 489 67 506 47 q 393 197 438 129 q 307 333 349 264 m 285 415 q 376 432 338 415 q 438 478 414 449 q 474 549 463 508 q 486 639 486 590 q 483 685 486 661 q 469 728 479 708 q 441 761 460 749 q 392 774 422 774 q 334 761 363 774 q 280 728 306 749 q 233 682 254 708 q 194 628 211 656 q 188 618 193 624 q 190 534 189 576 q 192 450 190 492 q 285 415 231 415 z "},"S":{"ha":582,"x_min":13,"x_max":567,"o":"m 467 749 q 443 756 454 749 q 365 775 413 775 q 289 753 319 775 q 258 672 258 731 q 297 567 258 607 q 386 493 335 526 q 450 449 418 471 q 508 397 482 426 q 551 331 535 368 q 567 243 567 294 q 541 133 567 179 q 475 58 515 88 q 385 14 435 28 q 285 0 335 0 q 141 27 211 0 q 25 101 71 54 q 13 131 13 114 q 25 160 13 149 q 54 172 38 172 q 83 160 71 172 q 174 104 119 125 q 283 83 228 83 q 380 118 353 83 q 407 208 407 153 q 397 276 407 246 q 372 331 388 307 q 335 374 356 354 q 290 410 314 393 q 223 455 257 433 q 161 502 189 476 q 116 560 133 528 q 99 639 99 593 q 125 737 99 696 q 191 805 151 778 q 276 845 231 832 q 358 858 321 858 q 402 855 376 858 q 451 844 428 851 q 492 823 475 836 q 508 790 508 810 q 496 761 508 774 q 467 749 483 749 z "},"T":{"ha":476,"x_min":10,"x_max":469,"o":"m 10 814 q 21 842 10 829 q 49 856 32 854 q 91 858 51 856 q 189 860 131 860 q 207 869 199 867 q 222 871 215 871 q 236 869 228 871 q 253 858 244 867 q 343 855 297 857 q 433 846 389 853 q 459 832 449 843 q 469 806 469 821 q 458 776 469 789 q 431 763 447 763 q 428 764 429 763 q 357 769 394 767 q 283 775 319 772 q 290 709 288 746 q 294 632 293 672 q 297 551 296 592 q 297 472 297 510 q 295 267 297 376 q 281 63 293 158 q 269 21 278 42 q 233 0 261 0 q 187 28 206 0 q 156 101 168 57 q 139 198 144 144 q 132 302 133 251 q 131 394 131 353 q 131 454 131 435 q 134 615 131 535 q 153 775 138 696 q 81 774 108 775 q 51 772 53 772 q 22 784 33 772 q 10 814 10 796 z "},"U":{"ha":668,"x_min":22,"x_max":644,"o":"m 644 475 q 642 381 644 435 q 635 272 640 328 q 622 162 631 215 q 599 69 613 108 q 591 53 596 64 q 578 31 586 42 q 558 13 569 21 q 529 4 546 4 q 493 20 506 4 q 476 59 481 36 q 471 106 471 82 q 471 144 471 129 q 472 229 471 181 q 476 344 474 278 q 477 356 476 351 q 478 368 478 361 q 447 265 467 328 q 399 144 428 203 q 330 42 369 85 q 238 0 290 0 q 156 30 190 0 q 99 107 122 60 q 60 213 75 154 q 36 329 44 271 q 25 438 28 388 q 22 521 22 489 q 23 572 22 539 q 27 642 24 604 q 38 720 31 681 q 59 792 46 760 q 92 845 72 825 q 139 865 111 865 q 171 852 160 865 q 186 821 182 839 q 191 783 190 803 q 192 749 192 763 q 188 614 192 701 q 185 511 186 565 q 183 403 183 457 q 184 353 183 385 q 187 287 185 322 q 193 215 189 251 q 203 150 197 179 q 219 102 210 121 q 240 83 228 83 q 274 104 250 83 q 328 189 297 125 q 382 333 357 251 q 426 501 407 415 q 458 672 444 588 q 479 825 471 757 q 494 851 482 840 q 521 863 506 863 q 564 849 546 863 q 594 814 582 835 q 614 769 607 793 q 625 724 621 744 q 640 596 636 664 q 644 475 644 528 z "},"V":{"ha":628,"x_min":18,"x_max":615,"o":"m 86 861 q 121 847 107 861 q 144 812 135 832 q 160 769 154 792 q 168 732 165 747 q 189 628 179 686 q 210 504 199 569 q 235 359 222 431 q 261 225 247 288 q 288 128 276 158 q 307 89 300 99 q 354 167 331 113 q 401 291 378 221 q 444 440 424 361 q 483 593 465 519 q 513 728 500 667 q 533 825 526 790 q 547 849 536 840 q 574 858 558 858 q 603 847 590 858 q 615 817 615 835 q 614 808 615 811 q 581 646 600 732 q 540 473 563 560 q 492 302 518 386 q 435 146 465 218 q 414 101 426 126 q 385 53 401 76 q 349 15 369 31 q 304 0 329 0 q 217 45 257 0 q 144 160 176 90 q 89 315 113 229 q 49 481 65 400 q 26 631 33 563 q 18 733 18 699 q 20 772 18 750 q 29 815 22 794 q 49 848 36 835 q 86 861 63 861 z "},"W":{"ha":949,"x_min":21,"x_max":931,"o":"m 553 471 q 565 406 560 443 q 576 329 571 369 q 590 241 583 285 q 604 161 596 197 q 622 108 614 124 q 633 86 629 92 q 678 160 656 107 q 724 285 701 214 q 766 438 746 357 q 802 593 786 518 q 831 729 818 668 q 849 824 843 790 q 863 849 851 839 q 889 858 874 858 q 921 844 911 858 q 931 810 931 829 q 900 647 917 733 q 863 474 883 561 q 816 303 842 388 q 761 147 790 219 q 742 103 753 128 q 715 55 731 78 q 678 16 699 32 q 633 0 658 0 q 565 19 596 0 q 512 68 535 39 q 472 132 489 97 q 444 197 456 167 q 426 136 438 171 q 397 72 415 101 q 354 21 379 42 q 294 0 329 0 q 208 44 247 0 q 138 156 168 88 q 86 310 108 225 q 49 474 64 394 q 28 622 35 554 q 21 724 21 689 q 22 765 21 742 q 31 810 24 789 q 51 847 38 832 q 90 861 65 861 q 110 857 97 861 q 133 838 122 853 q 157 786 149 818 q 171 731 165 754 q 190 628 181 686 q 208 504 199 569 q 231 359 219 431 q 256 225 242 288 q 283 123 271 153 q 300 85 294 93 q 342 146 324 97 q 372 253 360 194 q 392 367 385 313 q 401 447 400 422 q 403 456 401 453 q 408 492 404 472 q 421 526 413 511 q 444 552 429 542 q 479 563 458 563 q 510 553 497 563 q 531 531 522 544 q 544 502 539 518 q 553 471 550 486 z "},"X":{"ha":629,"x_min":22,"x_max":608,"o":"m 383 406 q 442 299 414 350 q 492 204 469 249 q 531 128 517 157 q 551 83 544 99 q 558 60 557 67 q 560 49 560 53 q 539 8 560 21 q 511 0 528 0 q 478 10 496 0 q 428 53 456 22 q 374 122 401 85 q 324 195 347 158 q 285 256 300 232 q 224 165 253 207 q 174 92 196 124 q 138 42 151 61 q 122 19 125 22 q 89 1 108 1 q 59 14 71 1 q 47 43 47 26 q 54 68 47 58 q 69 89 54 68 q 110 146 85 110 q 167 231 135 182 q 238 335 200 279 q 202 396 224 358 q 157 478 181 433 q 109 569 133 522 q 65 661 85 617 q 34 742 46 706 q 22 803 22 779 q 35 843 22 825 q 71 861 47 861 q 93 856 82 861 q 106 847 99 853 q 126 826 114 840 q 156 785 138 811 q 201 715 175 758 q 265 613 229 671 q 336 489 300 554 q 448 674 396 583 q 528 835 500 765 q 567 861 539 861 q 596 849 583 861 q 608 819 608 836 q 594 775 608 807 q 558 701 581 743 q 510 614 536 660 q 458 526 483 568 q 413 452 433 485 q 383 406 392 419 z "},"Y":{"ha":586,"x_min":14,"x_max":572,"o":"m 196 0 q 166 12 178 0 q 154 42 154 24 q 166 72 154 60 q 194 83 178 83 q 216 100 204 83 q 240 140 228 117 q 260 185 251 163 q 274 217 269 207 q 226 299 253 251 q 169 401 199 347 q 113 513 140 456 q 63 624 85 569 q 27 728 40 679 q 14 814 14 778 q 26 843 14 831 q 56 856 38 856 q 85 843 74 856 q 97 814 97 831 q 118 715 97 775 q 171 585 139 654 q 240 447 203 517 q 310 318 276 376 q 353 463 333 389 q 392 604 374 538 q 400 640 394 617 q 413 690 406 663 q 429 747 419 718 q 451 801 439 776 q 476 840 463 825 q 506 856 489 856 q 540 845 526 856 q 560 819 553 835 q 570 784 568 803 q 572 749 572 765 q 560 633 572 706 q 523 478 547 561 q 465 310 499 394 q 390 156 432 225 q 299 44 347 88 q 196 0 250 0 z "},"Z":{"ha":625,"x_min":14,"x_max":607,"o":"m 442 774 q 416 778 433 776 q 368 781 399 781 q 261 775 315 781 q 154 761 207 769 q 120 771 135 761 q 106 803 106 781 q 115 829 106 818 q 140 843 125 840 q 253 858 197 853 q 368 864 310 864 q 435 860 403 864 q 493 842 468 856 q 533 803 518 828 q 547 738 547 779 q 526 643 547 690 q 481 556 504 596 q 383 417 439 488 q 274 281 326 347 q 192 181 229 228 q 142 107 156 135 q 212 88 174 92 q 285 83 250 83 q 365 88 325 83 q 439 101 404 93 q 500 118 474 108 q 539 139 526 128 q 565 149 550 149 q 595 136 583 149 q 607 107 607 124 q 567 56 607 76 q 475 24 528 36 q 369 6 422 11 q 286 0 315 0 q 206 6 253 0 q 117 27 160 11 q 44 72 75 43 q 14 144 14 100 q 31 205 14 168 q 93 308 47 242 q 175 419 129 361 q 268 538 221 478 q 336 623 304 582 q 393 700 368 664 q 426 747 415 729 q 442 774 438 764 z "},"`":{"ha":172,"x_min":10,"x_max":163,"o":"m 122 667 q 90 685 110 667 q 53 727 71 703 q 22 774 35 751 q 10 807 10 797 q 22 835 10 824 q 50 847 33 847 q 74 840 63 847 q 89 819 85 832 q 101 797 93 810 q 118 773 108 785 q 137 751 128 761 q 151 736 146 742 q 163 707 163 722 q 149 679 161 692 q 122 667 138 667 z "},"":{"ha":172,"x_min":10,"x_max":163,"o":"m 50 667 q 23 679 35 667 q 10 707 11 692 q 22 736 10 724 q 36 751 28 742 q 54 773 44 761 q 72 797 64 785 q 83 819 79 810 q 99 840 88 832 q 122 847 110 847 q 151 835 139 847 q 163 807 163 824 q 150 774 163 797 q 119 727 138 751 q 82 685 101 703 q 50 667 63 667 z "},"":{"ha":250,"x_min":15,"x_max":233,"o":"m 56 667 q 28 678 40 667 q 15 707 15 690 q 28 741 15 721 q 60 780 42 761 q 99 811 79 799 q 132 824 118 824 q 162 809 144 824 q 195 774 179 794 q 222 734 211 754 q 233 701 233 714 q 222 673 233 685 q 193 661 210 661 q 157 683 171 661 q 126 733 142 711 q 108 711 118 724 q 90 685 99 699 q 56 667 76 667 z "},"":{"ha":250,"x_min":17,"x_max":235,"o":"m 17 790 q 28 819 17 807 q 57 831 40 831 q 93 808 82 831 q 124 758 108 781 q 161 807 142 778 q 176 821 167 817 q 194 825 185 825 q 223 813 211 825 q 235 785 235 801 q 222 751 235 771 q 190 712 208 731 q 152 681 172 693 q 119 668 132 668 q 90 682 107 668 q 56 716 72 696 q 28 757 39 736 q 17 790 17 778 z "},"":{"ha":256,"x_min":19,"x_max":236,"o":"m 19 778 q 31 806 19 794 q 60 818 43 818 q 88 806 76 818 q 100 778 100 794 q 122 747 100 747 q 144 753 133 747 q 156 783 156 760 q 167 812 156 800 q 196 824 179 824 q 224 812 213 824 q 236 783 236 800 q 206 699 236 731 q 122 667 176 667 q 46 698 72 667 q 19 778 19 729 z "},"":{"ha":256,"x_min":24,"x_max":232,"o":"m 24 736 q 35 766 24 754 q 65 778 47 778 q 95 766 83 778 q 107 736 107 754 q 95 707 107 719 q 65 694 83 694 q 35 707 47 694 q 24 736 24 719 m 149 736 q 160 766 149 754 q 190 778 172 778 q 220 766 208 778 q 232 736 232 754 q 220 707 232 719 q 190 694 208 694 q 160 707 172 694 q 149 736 149 719 z "},"":{"ha":263,"x_min":18,"x_max":256,"o":"m 56 26 q 64 44 57 38 q 82 51 71 51 q 101 43 93 51 q 110 24 110 35 q 107 -15 108 4 q 103 -53 106 -33 q 115 -51 110 -51 q 125 -51 119 -51 q 173 -58 150 -51 q 215 -76 196 -64 q 244 -108 233 -89 q 256 -154 256 -128 q 236 -222 256 -193 q 186 -271 217 -251 q 119 -300 156 -290 q 50 -310 83 -310 q 28 -303 38 -310 q 18 -282 18 -296 q 26 -262 18 -271 q 46 -254 35 -254 q 86 -246 67 -254 q 121 -224 106 -237 q 145 -190 136 -210 q 154 -150 154 -171 q 142 -118 154 -128 q 108 -108 129 -108 q 76 -112 93 -108 l 71 -112 q 51 -103 60 -112 q 43 -82 42 -94 l 56 26 z "},"":{"ha":122,"x_min":19,"x_max":103,"o":"m 19 736 q 31 766 19 754 q 61 778 43 778 q 91 766 79 778 q 103 736 103 754 q 91 707 103 719 q 61 694 79 694 q 31 707 43 694 q 19 736 19 719 z "},"":{"ha":233,"x_min":18,"x_max":215,"o":"m 18 796 q 26 841 18 819 q 48 879 33 863 q 82 906 63 896 q 126 917 101 917 q 192 883 169 917 q 215 811 215 850 q 185 729 215 764 q 107 694 156 694 q 41 726 64 694 q 18 796 18 757 m 126 861 q 87 840 100 861 q 74 796 74 819 q 81 765 74 781 q 107 750 88 750 q 146 769 132 750 q 160 811 160 788 q 152 844 160 826 q 126 861 144 861 z "},"":{"ha":240,"x_min":13,"x_max":226,"o":"m 163 -29 q 147 -73 156 -46 q 129 -129 138 -100 q 115 -186 121 -158 q 108 -232 108 -214 q 115 -254 108 -251 q 155 -246 136 -254 q 178 -233 174 -237 q 199 -225 186 -225 q 218 -233 210 -225 q 226 -253 226 -242 q 213 -277 226 -267 q 181 -295 200 -287 q 144 -306 163 -303 q 115 -310 126 -310 q 40 -285 67 -310 q 13 -211 13 -260 q 22 -151 13 -183 q 44 -86 31 -118 q 75 -24 58 -54 q 108 31 92 7 q 153 68 133 68 q 174 60 165 68 q 182 39 182 51 q 181 26 182 32 q 176 14 179 21 q 170 -6 174 6 q 163 -29 167 -17 z "},"":{"ha":306,"x_min":22,"x_max":283,"o":"m 107 708 q 103 701 106 708 q 89 676 100 686 q 63 667 78 667 q 34 678 46 667 q 22 707 22 690 q 49 765 22 742 q 107 789 75 789 q 148 780 128 789 q 183 754 168 771 q 203 746 192 746 q 215 772 204 761 q 243 783 226 783 q 272 772 260 783 q 283 743 283 760 q 263 685 283 707 q 206 664 242 664 q 159 675 182 664 q 122 701 136 686 q 107 708 115 708 z "},"":{"ha":535,"x_min":18,"x_max":450,"o":"m 157 0 q 51 35 85 0 q 18 111 18 69 q 43 190 18 157 q 106 244 68 222 q 187 275 143 265 q 268 285 231 285 q 275 283 272 285 q 270 310 274 294 q 260 339 267 325 q 244 363 254 353 q 219 372 235 372 q 191 368 207 372 q 160 356 175 364 q 135 336 146 347 q 121 311 124 325 q 107 288 118 296 q 81 279 96 279 q 51 291 64 279 q 39 321 39 303 q 58 369 39 344 q 93 410 76 394 q 144 440 113 425 q 219 456 175 456 q 316 437 274 456 q 388 386 358 418 q 434 310 418 354 q 450 214 450 265 q 443 148 450 185 q 420 78 436 111 q 378 22 404 44 q 317 -1 353 -1 q 288 11 300 -1 q 275 40 275 24 q 276 47 275 43 q 276 53 276 50 q 279 65 279 58 q 157 0 222 0 m 269 201 q 227 194 249 201 q 188 174 206 188 q 160 142 171 160 q 150 100 150 124 q 153 85 150 85 q 190 97 172 85 q 224 126 208 108 q 251 165 239 144 q 269 201 263 186 m 229 458 q 195 477 216 458 q 156 521 175 496 q 125 570 138 547 q 112 604 112 594 q 124 634 112 622 q 153 646 136 646 q 178 638 166 646 q 194 617 190 631 q 206 594 198 607 q 224 569 214 581 q 244 547 234 557 q 259 531 253 536 q 271 500 271 516 q 257 471 269 484 q 229 458 245 458 z "},"":{"ha":535,"x_min":18,"x_max":450,"o":"m 157 0 q 51 35 85 0 q 18 111 18 69 q 43 190 18 157 q 106 244 68 222 q 187 275 143 265 q 268 285 231 285 q 275 283 272 285 q 270 310 274 294 q 260 339 267 325 q 244 363 254 353 q 219 372 235 372 q 191 368 207 372 q 160 356 175 364 q 135 336 146 347 q 121 311 124 325 q 107 288 118 296 q 81 279 96 279 q 51 291 64 279 q 39 321 39 303 q 58 369 39 344 q 93 410 76 394 q 144 440 113 425 q 219 456 175 456 q 316 437 274 456 q 388 386 358 418 q 434 310 418 354 q 450 214 450 265 q 443 148 450 185 q 420 78 436 111 q 378 22 404 44 q 317 -1 353 -1 q 288 11 300 -1 q 275 40 275 24 q 276 47 275 43 q 276 53 276 50 q 279 65 279 58 q 157 0 222 0 m 269 201 q 227 194 249 201 q 188 174 206 188 q 160 142 171 160 q 150 100 150 124 q 153 85 150 85 q 190 97 172 85 q 224 126 208 108 q 251 165 239 144 q 269 201 263 186 m 230 458 q 202 471 214 458 q 188 500 189 484 q 201 531 188 518 q 215 547 207 536 q 234 569 224 557 q 252 594 244 581 q 265 617 260 607 q 280 638 269 631 q 305 646 292 646 q 335 634 322 646 q 347 604 347 622 q 334 570 347 594 q 302 521 321 547 q 263 477 283 496 q 230 458 243 458 z "},"":{"ha":535,"x_min":18,"x_max":450,"o":"m 157 0 q 51 35 85 0 q 18 111 18 69 q 43 190 18 157 q 106 244 68 222 q 187 275 143 265 q 268 285 231 285 q 275 283 272 285 q 270 310 274 294 q 260 339 267 325 q 244 363 254 353 q 219 372 235 372 q 191 368 207 372 q 160 356 175 364 q 135 336 146 347 q 121 311 124 325 q 107 288 118 296 q 81 279 96 279 q 51 291 64 279 q 39 321 39 303 q 58 369 39 344 q 93 410 76 394 q 144 440 113 425 q 219 456 175 456 q 316 437 274 456 q 388 386 358 418 q 434 310 418 354 q 450 214 450 265 q 443 148 450 185 q 420 78 436 111 q 378 22 404 44 q 317 -1 353 -1 q 288 11 300 -1 q 275 40 275 24 q 276 47 275 43 q 276 53 276 50 q 279 65 279 58 q 157 0 222 0 m 269 201 q 227 194 249 201 q 188 174 206 188 q 160 142 171 160 q 150 100 150 124 q 153 85 150 85 q 190 97 172 85 q 224 126 208 108 q 251 165 239 144 q 269 201 263 186 m 155 458 q 126 471 139 458 q 113 500 113 483 q 127 536 113 515 q 160 576 141 557 q 200 609 180 596 q 235 622 220 622 q 266 607 248 622 q 300 570 284 591 q 329 529 317 549 q 340 495 340 508 q 328 465 340 477 q 298 453 316 453 q 261 476 275 453 q 229 528 245 505 q 210 505 220 518 q 191 477 200 492 q 155 458 177 458 z "},"":{"ha":535,"x_min":18,"x_max":450,"o":"m 157 0 q 51 35 85 0 q 18 111 18 69 q 43 190 18 157 q 106 244 68 222 q 187 275 143 265 q 268 285 231 285 q 275 283 272 285 q 270 310 274 294 q 260 339 267 325 q 244 363 254 353 q 219 372 235 372 q 191 368 207 372 q 160 356 175 364 q 135 336 146 347 q 121 311 124 325 q 107 288 118 296 q 81 279 96 279 q 51 291 64 279 q 39 321 39 303 q 58 369 39 344 q 93 410 76 394 q 144 440 113 425 q 219 456 175 456 q 316 437 274 456 q 388 386 358 418 q 434 310 418 354 q 450 214 450 265 q 443 148 450 185 q 420 78 436 111 q 378 22 404 44 q 317 -1 353 -1 q 288 11 300 -1 q 275 40 275 24 q 276 47 275 43 q 276 53 276 50 q 279 65 279 58 q 157 0 222 0 m 269 201 q 227 194 249 201 q 188 174 206 188 q 160 142 171 160 q 150 100 150 124 q 153 85 150 85 q 190 97 172 85 q 224 126 208 108 q 251 165 239 144 q 269 201 263 186 m 174 502 q 170 495 172 502 q 155 468 167 479 q 128 458 144 458 q 98 471 110 458 q 86 500 86 483 q 113 561 86 536 q 174 586 141 586 q 217 576 196 586 q 253 549 238 567 q 274 541 262 541 q 287 568 275 557 q 316 580 298 580 q 345 568 333 580 q 358 538 358 555 q 336 478 358 500 q 277 455 314 455 q 228 467 252 455 q 190 495 204 479 q 174 502 183 502 z "},"":{"ha":535,"x_min":18,"x_max":450,"o":"m 157 0 q 51 35 85 0 q 18 111 18 69 q 43 190 18 157 q 106 244 68 222 q 187 275 143 265 q 268 285 231 285 q 275 283 272 285 q 270 310 274 294 q 260 339 267 325 q 244 363 254 353 q 219 372 235 372 q 191 368 207 372 q 160 356 175 364 q 135 336 146 347 q 121 311 124 325 q 107 288 118 296 q 81 279 96 279 q 51 291 64 279 q 39 321 39 303 q 58 369 39 344 q 93 410 76 394 q 144 440 113 425 q 219 456 175 456 q 316 437 274 456 q 388 386 358 418 q 434 310 418 354 q 450 214 450 265 q 443 148 450 185 q 420 78 436 111 q 378 22 404 44 q 317 -1 353 -1 q 288 11 300 -1 q 275 40 275 24 q 276 47 275 43 q 276 53 276 50 q 279 65 279 58 q 157 0 222 0 m 269 201 q 227 194 249 201 q 188 174 206 188 q 160 142 171 160 q 150 100 150 124 q 153 85 150 85 q 190 97 172 85 q 224 126 208 108 q 251 165 239 144 q 269 201 263 186 m 119 524 q 131 553 119 542 q 161 565 143 565 q 191 553 179 565 q 203 524 203 542 q 191 494 203 507 q 161 482 179 482 q 131 494 143 482 q 119 524 119 507 m 244 524 q 256 553 244 542 q 286 565 268 565 q 316 553 304 565 q 328 524 328 542 q 316 494 328 507 q 286 482 304 482 q 256 494 268 482 q 244 524 244 507 z "},"":{"ha":535,"x_min":18,"x_max":450,"o":"m 157 0 q 51 35 85 0 q 18 111 18 69 q 43 190 18 157 q 106 244 68 222 q 187 275 143 265 q 268 285 231 285 q 275 283 272 285 q 270 310 274 294 q 260 339 267 325 q 244 363 254 353 q 219 372 235 372 q 191 368 207 372 q 160 356 175 364 q 135 336 146 347 q 121 311 124 325 q 107 288 118 296 q 81 279 96 279 q 51 291 64 279 q 39 321 39 303 q 58 369 39 344 q 93 410 76 394 q 144 440 113 425 q 219 456 175 456 q 316 437 274 456 q 388 386 358 418 q 434 310 418 354 q 450 214 450 265 q 443 148 450 185 q 420 78 436 111 q 378 22 404 44 q 317 -1 353 -1 q 288 11 300 -1 q 275 40 275 24 q 276 47 275 43 q 276 53 276 50 q 279 65 279 58 q 157 0 222 0 m 269 201 q 227 194 249 201 q 188 174 206 188 q 160 142 171 160 q 150 100 150 124 q 153 85 150 85 q 190 97 172 85 q 224 126 208 108 q 251 165 239 144 q 269 201 263 186 m 135 579 q 142 624 135 603 q 165 663 150 646 q 199 690 179 679 q 243 700 218 700 q 309 667 286 700 q 332 594 332 633 q 302 513 332 547 q 224 478 272 478 q 158 509 181 478 q 135 579 135 540 m 243 644 q 203 624 217 644 q 190 579 190 603 q 197 549 190 564 q 224 533 204 533 q 263 552 249 533 q 276 594 276 571 q 269 627 276 610 q 243 644 261 644 z "},"":{"ha":486,"x_min":18,"x_max":411,"o":"m 18 222 q 33 312 18 269 q 77 386 49 354 q 146 437 106 418 q 236 456 186 456 q 332 425 290 456 q 374 336 374 394 q 358 271 374 300 q 315 222 342 242 q 257 190 289 201 q 192 179 225 179 q 179 182 188 179 q 185 155 181 172 q 196 122 189 138 q 213 95 203 107 q 236 83 222 83 q 293 101 267 83 q 332 147 319 119 q 369 172 343 172 q 399 160 388 172 q 411 131 411 147 q 408 114 411 125 q 397 94 407 113 q 367 56 388 76 q 314 17 346 35 q 238 0 282 0 q 147 17 188 0 q 78 63 107 33 q 34 134 50 93 q 18 222 18 175 m 236 372 q 212 359 222 372 q 194 327 201 346 q 183 290 188 308 q 178 261 179 272 q 192 263 182 263 q 265 287 240 263 q 290 335 290 311 q 272 365 290 357 q 236 372 254 372 m 244 458 q 211 477 231 458 q 172 521 190 496 q 140 570 153 547 q 127 604 127 594 q 139 634 127 622 q 169 646 151 646 q 193 638 182 646 q 209 617 205 631 q 222 594 214 607 q 240 569 230 581 q 259 547 250 557 q 274 531 269 536 q 286 500 286 516 q 272 471 284 484 q 244 458 260 458 z "},"":{"ha":486,"x_min":18,"x_max":411,"o":"m 18 222 q 33 312 18 269 q 77 386 49 354 q 146 437 106 418 q 236 456 186 456 q 332 425 290 456 q 374 336 374 394 q 358 271 374 300 q 315 222 342 242 q 257 190 289 201 q 192 179 225 179 q 179 182 188 179 q 185 155 181 172 q 196 122 189 138 q 213 95 203 107 q 236 83 222 83 q 293 101 267 83 q 332 147 319 119 q 369 172 343 172 q 399 160 388 172 q 411 131 411 147 q 408 114 411 125 q 397 94 407 113 q 367 56 388 76 q 314 17 346 35 q 238 0 282 0 q 147 17 188 0 q 78 63 107 33 q 34 134 50 93 q 18 222 18 175 m 236 372 q 212 359 222 372 q 194 327 201 346 q 183 290 188 308 q 178 261 179 272 q 192 263 182 263 q 265 287 240 263 q 290 335 290 311 q 272 365 290 357 q 236 372 254 372 m 245 458 q 217 471 229 458 q 203 500 205 484 q 216 531 203 518 q 231 547 222 536 q 249 569 239 557 q 268 594 260 581 q 280 617 276 607 q 296 638 284 631 q 320 646 307 646 q 350 634 338 646 q 362 604 362 622 q 349 570 362 594 q 317 521 336 547 q 278 477 299 496 q 245 458 258 458 z "},"":{"ha":486,"x_min":18,"x_max":411,"o":"m 18 222 q 33 312 18 269 q 77 386 49 354 q 146 437 106 418 q 236 456 186 456 q 332 425 290 456 q 374 336 374 394 q 358 271 374 300 q 315 222 342 242 q 257 190 289 201 q 192 179 225 179 q 179 182 188 179 q 185 155 181 172 q 196 122 189 138 q 213 95 203 107 q 236 83 222 83 q 293 101 267 83 q 332 147 319 119 q 369 172 343 172 q 399 160 388 172 q 411 131 411 147 q 408 114 411 125 q 397 94 407 113 q 367 56 388 76 q 314 17 346 35 q 238 0 282 0 q 147 17 188 0 q 78 63 107 33 q 34 134 50 93 q 18 222 18 175 m 236 372 q 212 359 222 372 q 194 327 201 346 q 183 290 188 308 q 178 261 179 272 q 192 263 182 263 q 265 287 240 263 q 290 335 290 311 q 272 365 290 357 q 236 372 254 372 m 169 458 q 140 471 153 458 q 127 500 127 483 q 141 536 127 515 q 174 576 155 557 q 214 609 194 596 q 249 622 234 622 q 280 607 262 622 q 314 570 298 591 q 343 529 331 549 q 354 495 354 508 q 342 465 354 477 q 312 453 330 453 q 275 476 289 453 q 243 528 259 505 q 224 505 234 518 q 205 477 214 492 q 169 458 191 458 z "},"":{"ha":486,"x_min":18,"x_max":411,"o":"m 18 222 q 33 312 18 269 q 77 386 49 354 q 146 437 106 418 q 236 456 186 456 q 332 425 290 456 q 374 336 374 394 q 358 271 374 300 q 315 222 342 242 q 257 190 289 201 q 192 179 225 179 q 179 182 188 179 q 185 155 181 172 q 196 122 189 138 q 213 95 203 107 q 236 83 222 83 q 293 101 267 83 q 332 147 319 119 q 369 172 343 172 q 399 160 388 172 q 411 131 411 147 q 408 114 411 125 q 397 94 407 113 q 367 56 388 76 q 314 17 346 35 q 238 0 282 0 q 147 17 188 0 q 78 63 107 33 q 34 134 50 93 q 18 222 18 175 m 236 372 q 212 359 222 372 q 194 327 201 346 q 183 290 188 308 q 178 261 179 272 q 192 263 182 263 q 265 287 240 263 q 290 335 290 311 q 272 365 290 357 q 236 372 254 372 m 133 524 q 145 553 133 542 q 175 565 157 565 q 205 553 193 565 q 217 524 217 542 q 205 494 217 507 q 175 482 193 482 q 145 494 157 482 q 133 524 133 507 m 258 524 q 270 553 258 542 q 300 565 282 565 q 330 553 318 565 q 342 524 342 542 q 330 494 342 507 q 300 482 318 482 q 270 494 282 482 q 258 524 258 507 z "},"":{"ha":533,"x_min":24,"x_max":456,"o":"m 290 178 q 292 217 290 192 q 292 268 293 243 q 289 312 292 293 q 278 331 286 331 q 249 314 263 331 q 225 271 236 297 q 205 212 214 244 q 188 149 196 179 q 176 92 181 118 q 167 51 171 65 q 149 17 161 32 q 115 1 138 1 q 66 23 85 1 q 38 75 47 44 q 26 139 29 106 q 24 194 24 172 q 27 262 24 218 q 41 349 31 306 q 72 423 51 392 q 128 454 93 454 q 157 443 147 454 q 172 415 167 432 q 177 381 176 399 q 179 349 178 363 q 224 395 197 375 q 283 415 250 415 q 363 393 331 415 q 417 336 396 371 q 447 260 438 301 q 456 179 456 218 q 451 126 456 157 q 435 67 447 94 q 404 19 424 39 q 354 0 385 0 q 312 21 325 0 q 293 71 299 42 q 289 130 288 100 q 290 178 290 160 m 235 491 q 231 483 234 491 q 216 457 228 467 q 189 447 205 447 q 159 460 171 447 q 147 489 147 472 q 174 550 147 525 q 235 575 202 575 q 278 565 257 575 q 315 538 299 556 q 335 530 323 530 q 348 557 336 546 q 377 569 359 569 q 406 556 394 569 q 419 527 419 544 q 397 467 419 489 q 338 444 375 444 q 289 456 313 444 q 251 483 265 467 q 235 491 244 491 z "},"":{"ha":489,"x_min":18,"x_max":415,"o":"m 232 456 q 258 448 247 456 q 271 432 268 440 l 282 432 q 345 413 319 432 q 386 365 371 394 q 408 301 401 336 q 415 236 415 267 q 406 157 415 199 q 374 81 396 115 q 315 23 351 46 q 225 0 278 0 q 146 15 183 0 q 80 58 108 31 q 35 126 51 86 q 18 217 18 167 q 33 306 18 263 q 77 382 49 349 q 145 435 106 415 q 232 456 185 456 m 275 349 q 235 374 249 349 q 210 352 221 374 q 194 303 200 331 q 184 250 188 276 q 181 215 181 224 q 182 189 181 210 q 190 144 183 168 q 210 102 196 121 q 249 83 224 83 q 288 100 272 83 q 314 141 304 117 q 328 192 324 165 q 332 238 332 218 q 330 270 332 251 q 322 306 328 289 q 304 336 315 324 q 275 349 293 349 m 252 458 q 219 477 239 458 q 180 521 199 496 q 148 570 161 547 q 135 604 135 594 q 147 634 135 622 q 177 646 160 646 q 202 638 190 646 q 218 617 213 631 q 230 594 222 607 q 248 569 238 581 q 268 547 258 557 q 283 531 277 536 q 294 500 294 516 q 281 471 293 484 q 252 458 268 458 z "},"":{"ha":489,"x_min":18,"x_max":415,"o":"m 232 456 q 258 448 247 456 q 271 432 268 440 l 282 432 q 345 413 319 432 q 386 365 371 394 q 408 301 401 336 q 415 236 415 267 q 406 157 415 199 q 374 81 396 115 q 315 23 351 46 q 225 0 278 0 q 146 15 183 0 q 80 58 108 31 q 35 126 51 86 q 18 217 18 167 q 33 306 18 263 q 77 382 49 349 q 145 435 106 415 q 232 456 185 456 m 275 349 q 235 374 249 349 q 210 352 221 374 q 194 303 200 331 q 184 250 188 276 q 181 215 181 224 q 182 189 181 210 q 190 144 183 168 q 210 102 196 121 q 249 83 224 83 q 288 100 272 83 q 314 141 304 117 q 328 192 324 165 q 332 238 332 218 q 330 270 332 251 q 322 306 328 289 q 304 336 315 324 q 275 349 293 349 m 253 458 q 225 471 238 458 q 212 500 213 484 q 225 531 212 518 q 239 547 230 536 q 258 569 248 557 q 276 594 268 581 q 288 617 284 607 q 304 638 293 631 q 329 646 316 646 q 358 634 346 646 q 371 604 371 622 q 358 570 371 594 q 326 521 345 547 q 287 477 307 496 q 253 458 266 458 z "},"":{"ha":489,"x_min":18,"x_max":415,"o":"m 232 456 q 258 448 247 456 q 271 432 268 440 l 282 432 q 345 413 319 432 q 386 365 371 394 q 408 301 401 336 q 415 236 415 267 q 406 157 415 199 q 374 81 396 115 q 315 23 351 46 q 225 0 278 0 q 146 15 183 0 q 80 58 108 31 q 35 126 51 86 q 18 217 18 167 q 33 306 18 263 q 77 382 49 349 q 145 435 106 415 q 232 456 185 456 m 275 349 q 235 374 249 349 q 210 352 221 374 q 194 303 200 331 q 184 250 188 276 q 181 215 181 224 q 182 189 181 210 q 190 144 183 168 q 210 102 196 121 q 249 83 224 83 q 288 100 272 83 q 314 141 304 117 q 328 192 324 165 q 332 238 332 218 q 330 270 332 251 q 322 306 328 289 q 304 336 315 324 q 275 349 293 349 m 179 458 q 150 471 163 458 q 137 500 137 483 q 150 536 137 515 q 184 576 164 557 q 224 609 203 596 q 258 622 244 622 q 289 607 271 622 q 324 570 307 591 q 352 529 341 549 q 364 495 364 508 q 352 465 364 477 q 322 453 339 453 q 284 476 299 453 q 252 528 268 505 q 234 505 244 518 q 215 477 224 492 q 179 458 200 458 z "},"":{"ha":489,"x_min":18,"x_max":415,"o":"m 232 456 q 258 448 247 456 q 271 432 268 440 l 282 432 q 345 413 319 432 q 386 365 371 394 q 408 301 401 336 q 415 236 415 267 q 406 157 415 199 q 374 81 396 115 q 315 23 351 46 q 225 0 278 0 q 146 15 183 0 q 80 58 108 31 q 35 126 51 86 q 18 217 18 167 q 33 306 18 263 q 77 382 49 349 q 145 435 106 415 q 232 456 185 456 m 275 349 q 235 374 249 349 q 210 352 221 374 q 194 303 200 331 q 184 250 188 276 q 181 215 181 224 q 182 189 181 210 q 190 144 183 168 q 210 102 196 121 q 249 83 224 83 q 288 100 272 83 q 314 141 304 117 q 328 192 324 165 q 332 238 332 218 q 330 270 332 251 q 322 306 328 289 q 304 336 315 324 q 275 349 293 349 m 198 502 q 193 495 196 502 q 179 468 190 479 q 151 458 167 458 q 122 471 134 458 q 109 500 109 483 q 137 561 109 536 q 198 586 164 586 q 240 576 219 586 q 277 549 261 567 q 297 541 286 541 q 310 568 299 557 q 339 580 322 580 q 369 568 357 580 q 381 538 381 555 q 360 478 381 500 q 300 455 338 455 q 252 467 276 455 q 213 495 228 479 q 198 502 206 502 z "},"":{"ha":489,"x_min":18,"x_max":415,"o":"m 232 456 q 258 448 247 456 q 271 432 268 440 l 282 432 q 345 413 319 432 q 386 365 371 394 q 408 301 401 336 q 415 236 415 267 q 406 157 415 199 q 374 81 396 115 q 315 23 351 46 q 225 0 278 0 q 146 15 183 0 q 80 58 108 31 q 35 126 51 86 q 18 217 18 167 q 33 306 18 263 q 77 382 49 349 q 145 435 106 415 q 232 456 185 456 m 275 349 q 235 374 249 349 q 210 352 221 374 q 194 303 200 331 q 184 250 188 276 q 181 215 181 224 q 182 189 181 210 q 190 144 183 168 q 210 102 196 121 q 249 83 224 83 q 288 100 272 83 q 314 141 304 117 q 328 192 324 165 q 332 238 332 218 q 330 270 332 251 q 322 306 328 289 q 304 336 315 324 q 275 349 293 349 m 142 524 q 153 553 142 542 q 183 565 165 565 q 213 553 201 565 q 225 524 225 542 q 213 494 225 507 q 183 482 201 482 q 153 494 165 482 q 142 524 142 507 m 267 524 q 278 553 267 542 q 308 565 290 565 q 338 553 326 565 q 350 524 350 542 q 338 494 350 507 q 308 482 326 482 q 278 494 290 482 q 267 524 267 507 z "},"":{"ha":542,"x_min":21,"x_max":453,"o":"m 349 0 q 324 8 333 0 q 309 26 314 15 q 302 51 304 38 q 299 75 300 64 q 256 24 282 47 q 193 0 229 0 q 110 26 143 0 q 58 90 78 51 q 29 175 38 129 q 21 260 21 221 q 24 317 21 283 q 39 381 28 350 q 69 433 50 411 q 121 456 89 456 q 164 432 150 456 q 183 377 178 408 q 187 313 188 346 q 186 261 186 281 q 185 217 186 246 q 185 158 185 188 q 188 108 185 129 q 199 86 190 86 q 227 106 214 86 q 251 155 240 125 q 270 222 261 185 q 286 294 279 258 q 299 359 293 329 q 308 404 304 389 q 326 439 314 424 q 361 454 338 454 q 411 433 393 454 q 438 381 429 411 q 450 317 447 350 q 453 261 453 285 q 449 192 453 236 q 435 106 446 149 q 404 32 425 64 q 349 0 383 0 m 243 458 q 209 477 230 458 q 170 521 189 496 q 138 570 151 547 q 125 604 125 594 q 138 634 125 622 q 167 646 150 646 q 192 638 180 646 q 208 617 204 631 q 220 594 212 607 q 238 569 228 581 q 258 547 248 557 q 273 531 267 536 q 285 500 285 516 q 271 471 283 484 q 243 458 259 458 z "},"":{"ha":542,"x_min":21,"x_max":453,"o":"m 349 0 q 324 8 333 0 q 309 26 314 15 q 302 51 304 38 q 299 75 300 64 q 256 24 282 47 q 193 0 229 0 q 110 26 143 0 q 58 90 78 51 q 29 175 38 129 q 21 260 21 221 q 24 317 21 283 q 39 381 28 350 q 69 433 50 411 q 121 456 89 456 q 164 432 150 456 q 183 377 178 408 q 187 313 188 346 q 186 261 186 281 q 185 217 186 246 q 185 158 185 188 q 188 108 185 129 q 199 86 190 86 q 227 106 214 86 q 251 155 240 125 q 270 222 261 185 q 286 294 279 258 q 299 359 293 329 q 308 404 304 389 q 326 439 314 424 q 361 454 338 454 q 411 433 393 454 q 438 381 429 411 q 450 317 447 350 q 453 261 453 285 q 449 192 453 236 q 435 106 446 149 q 404 32 425 64 q 349 0 383 0 m 244 458 q 216 471 228 458 q 202 500 203 484 q 215 531 202 518 q 229 547 221 536 q 248 569 238 557 q 266 594 258 581 q 278 617 274 607 q 294 638 283 631 q 319 646 306 646 q 349 634 336 646 q 361 604 361 622 q 348 570 361 594 q 316 521 335 547 q 277 477 297 496 q 244 458 257 458 z "},"":{"ha":542,"x_min":21,"x_max":453,"o":"m 349 0 q 324 8 333 0 q 309 26 314 15 q 302 51 304 38 q 299 75 300 64 q 256 24 282 47 q 193 0 229 0 q 110 26 143 0 q 58 90 78 51 q 29 175 38 129 q 21 260 21 221 q 24 317 21 283 q 39 381 28 350 q 69 433 50 411 q 121 456 89 456 q 164 432 150 456 q 183 377 178 408 q 187 313 188 346 q 186 261 186 281 q 185 217 186 246 q 185 158 185 188 q 188 108 185 129 q 199 86 190 86 q 227 106 214 86 q 251 155 240 125 q 270 222 261 185 q 286 294 279 258 q 299 359 293 329 q 308 404 304 389 q 326 439 314 424 q 361 454 338 454 q 411 433 393 454 q 438 381 429 411 q 450 317 447 350 q 453 261 453 285 q 449 192 453 236 q 435 106 446 149 q 404 32 425 64 q 349 0 383 0 m 168 458 q 139 471 152 458 q 126 500 126 483 q 139 536 126 515 q 173 576 153 557 q 212 609 192 596 q 247 622 233 622 q 278 607 260 622 q 313 570 296 591 q 341 529 330 549 q 353 495 353 508 q 340 465 353 477 q 311 453 328 453 q 273 476 288 453 q 241 528 257 505 q 223 505 233 518 q 204 477 212 492 q 168 458 189 458 z "},"":{"ha":542,"x_min":21,"x_max":453,"o":"m 349 0 q 324 8 333 0 q 309 26 314 15 q 302 51 304 38 q 299 75 300 64 q 256 24 282 47 q 193 0 229 0 q 110 26 143 0 q 58 90 78 51 q 29 175 38 129 q 21 260 21 221 q 24 317 21 283 q 39 381 28 350 q 69 433 50 411 q 121 456 89 456 q 164 432 150 456 q 183 377 178 408 q 187 313 188 346 q 186 261 186 281 q 185 217 186 246 q 185 158 185 188 q 188 108 185 129 q 199 86 190 86 q 227 106 214 86 q 251 155 240 125 q 270 222 261 185 q 286 294 279 258 q 299 359 293 329 q 308 404 304 389 q 326 439 314 424 q 361 454 338 454 q 411 433 393 454 q 438 381 429 411 q 450 317 447 350 q 453 261 453 285 q 449 192 453 236 q 435 106 446 149 q 404 32 425 64 q 349 0 383 0 m 132 524 q 144 553 132 542 q 174 565 156 565 q 203 553 192 565 q 215 524 215 542 q 203 494 215 507 q 174 482 192 482 q 144 494 156 482 q 132 524 132 507 m 257 524 q 269 553 257 542 q 299 565 281 565 q 328 553 317 565 q 340 524 340 542 q 328 494 340 507 q 299 482 317 482 q 269 494 281 482 q 257 524 257 507 z "},"":{"ha":524,"x_min":15,"x_max":453,"o":"m 242 -307 q 206 -302 228 -307 q 163 -288 183 -297 q 127 -265 142 -279 q 113 -235 113 -251 q 125 -206 113 -218 q 154 -193 138 -193 q 178 -200 165 -193 q 212 -217 194 -211 q 235 -224 229 -224 q 253 -205 246 -224 q 267 -158 261 -186 q 278 -94 274 -129 q 286 -26 283 -60 q 290 34 289 7 q 292 74 292 61 q 249 23 275 46 q 188 0 222 0 q 105 26 138 0 q 52 90 72 51 q 24 175 32 129 q 15 260 15 221 q 19 317 15 283 q 33 381 22 350 q 64 433 44 411 q 115 456 83 456 q 158 432 144 456 q 177 377 172 408 q 181 313 182 346 q 181 261 181 281 q 180 214 181 243 q 180 156 179 185 q 183 107 181 128 q 193 86 186 86 q 218 103 206 86 q 242 146 231 119 q 264 206 254 172 q 281 271 274 239 q 294 331 289 303 q 303 375 300 358 q 308 401 306 388 q 317 427 311 415 q 332 447 322 439 q 357 454 342 454 q 397 434 381 454 q 423 383 413 414 q 440 313 433 351 q 449 239 446 275 q 452 172 451 203 q 453 126 453 142 q 450 47 453 93 q 440 -47 447 1 q 417 -141 432 -94 q 380 -224 403 -187 q 323 -284 357 -261 q 242 -307 289 -307 m 249 458 q 221 471 233 458 q 207 500 209 484 q 220 531 207 518 q 235 547 226 536 q 254 569 244 557 q 272 594 264 581 q 284 617 280 607 q 300 638 288 631 q 325 646 312 646 q 354 634 342 646 q 366 604 366 622 q 353 570 366 594 q 322 521 340 547 q 283 477 303 496 q 249 458 262 458 z "},"":{"ha":524,"x_min":15,"x_max":453,"o":"m 242 -307 q 206 -302 228 -307 q 163 -288 183 -297 q 127 -265 142 -279 q 113 -235 113 -251 q 125 -206 113 -218 q 154 -193 138 -193 q 178 -200 165 -193 q 212 -217 194 -211 q 235 -224 229 -224 q 253 -205 246 -224 q 267 -158 261 -186 q 278 -94 274 -129 q 286 -26 283 -60 q 290 34 289 7 q 292 74 292 61 q 249 23 275 46 q 188 0 222 0 q 105 26 138 0 q 52 90 72 51 q 24 175 32 129 q 15 260 15 221 q 19 317 15 283 q 33 381 22 350 q 64 433 44 411 q 115 456 83 456 q 158 432 144 456 q 177 377 172 408 q 181 313 182 346 q 181 261 181 281 q 180 214 181 243 q 180 156 179 185 q 183 107 181 128 q 193 86 186 86 q 218 103 206 86 q 242 146 231 119 q 264 206 254 172 q 281 271 274 239 q 294 331 289 303 q 303 375 300 358 q 308 401 306 388 q 317 427 311 415 q 332 447 322 439 q 357 454 342 454 q 397 434 381 454 q 423 383 413 414 q 440 313 433 351 q 449 239 446 275 q 452 172 451 203 q 453 126 453 142 q 450 47 453 93 q 440 -47 447 1 q 417 -141 432 -94 q 380 -224 403 -187 q 323 -284 357 -261 q 242 -307 289 -307 m 138 524 q 149 553 138 542 q 179 565 161 565 q 209 553 197 565 q 221 524 221 542 q 209 494 221 507 q 179 482 197 482 q 149 494 161 482 q 138 524 138 507 m 263 524 q 274 553 263 542 q 304 565 286 565 q 334 553 322 565 q 346 524 346 542 q 334 494 346 507 q 304 482 322 482 q 274 494 286 482 q 263 524 263 507 z "},"":{"ha":464,"x_min":15,"x_max":403,"o":"m 204 0 q 148 5 181 0 q 86 19 115 10 q 36 45 57 29 q 15 83 15 61 q 28 113 15 101 q 57 125 40 125 q 82 117 72 125 q 128 94 97 106 q 190 83 160 83 q 229 93 214 83 q 244 128 244 103 q 238 154 244 143 q 219 173 231 165 q 194 188 208 181 q 164 201 179 194 q 124 221 144 210 q 88 247 104 232 q 60 281 71 261 q 49 324 49 300 q 71 383 49 358 q 125 422 93 407 q 192 444 157 438 q 253 451 226 451 q 283 449 265 451 q 316 442 300 447 q 343 425 332 436 q 354 397 354 414 q 342 368 354 381 q 313 356 331 356 q 281 363 301 356 q 242 369 261 369 q 221 364 229 369 q 213 343 213 358 q 238 301 213 315 q 292 271 263 286 q 368 219 333 250 q 403 136 403 189 q 382 71 403 97 q 331 28 361 44 q 265 6 300 13 q 204 0 231 0 m 149 587 q 162 617 149 604 q 191 629 174 629 q 229 606 217 629 q 261 554 245 577 q 300 604 280 574 q 315 619 306 615 q 334 623 324 623 q 364 611 352 623 q 376 581 376 599 q 363 546 376 567 q 330 505 349 525 q 290 473 311 486 q 256 460 269 460 q 225 474 243 460 q 190 510 207 489 q 161 552 172 531 q 149 587 149 574 z "},"":{"ha":464,"x_min":15,"x_max":403,"o":"m 204 0 q 148 5 181 0 q 86 19 115 10 q 36 45 57 29 q 15 83 15 61 q 28 113 15 101 q 57 125 40 125 q 82 117 72 125 q 128 94 97 106 q 190 83 160 83 q 229 93 214 83 q 244 128 244 103 q 238 154 244 143 q 219 173 231 165 q 194 188 208 181 q 164 201 179 194 q 124 221 144 210 q 88 247 104 232 q 60 281 71 261 q 49 324 49 300 q 71 383 49 358 q 125 422 93 407 q 192 444 157 438 q 253 451 226 451 q 283 449 265 451 q 316 442 300 447 q 343 425 332 436 q 354 397 354 414 q 342 368 354 381 q 313 356 331 356 q 281 363 301 356 q 242 369 261 369 q 221 364 229 369 q 213 343 213 358 q 238 301 213 315 q 292 271 263 286 q 368 219 333 250 q 403 136 403 189 q 382 71 403 97 q 331 28 361 44 q 265 6 300 13 q 204 0 231 0 m 260 458 q 232 471 245 458 q 218 500 220 484 q 231 531 218 518 q 246 547 237 536 q 265 569 255 557 q 283 594 275 581 q 295 617 291 607 q 311 638 299 631 q 336 646 323 646 q 365 634 353 646 q 378 604 378 622 q 365 570 378 594 q 333 521 352 547 q 294 477 314 496 q 260 458 273 458 z "},"":{"ha":472,"x_min":19,"x_max":408,"o":"m 42 400 q 52 426 42 415 q 78 440 63 438 q 150 447 114 444 q 222 450 186 450 q 274 446 250 450 q 317 431 299 442 q 347 399 336 419 q 358 347 358 379 q 340 275 358 313 q 295 203 322 238 q 237 137 268 168 q 181 83 206 106 q 217 84 194 83 q 265 88 240 85 q 310 94 289 90 q 343 106 332 99 q 367 114 354 114 q 397 102 385 114 q 408 72 408 90 q 383 34 408 49 q 325 12 358 19 q 256 2 292 4 q 200 0 221 0 q 147 3 178 0 q 88 15 117 6 q 40 43 60 25 q 19 92 19 61 q 45 158 19 119 q 106 237 71 197 q 175 312 140 276 q 228 367 210 347 q 156 364 194 367 q 83 357 117 361 q 53 369 65 357 q 42 400 42 382 m 92 587 q 105 617 92 604 q 134 629 117 629 q 172 606 160 629 q 204 554 188 577 q 243 604 223 574 q 258 619 249 615 q 278 623 267 623 q 307 611 295 623 q 320 581 320 599 q 306 546 320 567 q 273 505 292 525 q 233 473 254 486 q 199 460 212 460 q 168 474 186 460 q 133 510 150 489 q 104 552 116 531 q 92 587 92 574 z "},"":{"ha":472,"x_min":19,"x_max":408,"o":"m 42 400 q 52 426 42 415 q 78 440 63 438 q 150 447 114 444 q 222 450 186 450 q 274 446 250 450 q 317 431 299 442 q 347 399 336 419 q 358 347 358 379 q 340 275 358 313 q 295 203 322 238 q 237 137 268 168 q 181 83 206 106 q 217 84 194 83 q 265 88 240 85 q 310 94 289 90 q 343 106 332 99 q 367 114 354 114 q 397 102 385 114 q 408 72 408 90 q 383 34 408 49 q 325 12 358 19 q 256 2 292 4 q 200 0 221 0 q 147 3 178 0 q 88 15 117 6 q 40 43 60 25 q 19 92 19 61 q 45 158 19 119 q 106 237 71 197 q 175 312 140 276 q 228 367 210 347 q 156 364 194 367 q 83 357 117 361 q 53 369 65 357 q 42 400 42 382 m 203 458 q 175 471 188 458 q 162 500 163 484 q 175 531 162 518 q 189 547 180 536 q 208 569 198 557 q 226 594 218 581 q 238 617 234 607 q 254 638 243 631 q 279 646 266 646 q 308 634 296 646 q 321 604 321 622 q 308 570 321 594 q 276 521 295 547 q 237 477 257 496 q 203 458 216 458 z "},"":{"ha":472,"x_min":19,"x_max":408,"o":"m 42 400 q 52 426 42 415 q 78 440 63 438 q 150 447 114 444 q 222 450 186 450 q 274 446 250 450 q 317 431 299 442 q 347 399 336 419 q 358 347 358 379 q 340 275 358 313 q 295 203 322 238 q 237 137 268 168 q 181 83 206 106 q 217 84 194 83 q 265 88 240 85 q 310 94 289 90 q 343 106 332 99 q 367 114 354 114 q 397 102 385 114 q 408 72 408 90 q 383 34 408 49 q 325 12 358 19 q 256 2 292 4 q 200 0 221 0 q 147 3 178 0 q 88 15 117 6 q 40 43 60 25 q 19 92 19 61 q 45 158 19 119 q 106 237 71 197 q 175 312 140 276 q 228 367 210 347 q 156 364 194 367 q 83 357 117 361 q 53 369 65 357 q 42 400 42 382 m 154 524 q 166 553 154 542 q 196 565 178 565 q 226 553 214 565 q 238 524 238 542 q 226 494 238 507 q 196 482 214 482 q 166 494 178 482 q 154 524 154 507 z "},"":{"ha":492,"x_min":24,"x_max":436,"o":"m 279 210 q 281 242 279 221 q 283 282 282 263 q 285 316 285 301 q 282 331 285 331 q 242 296 260 331 q 209 215 224 261 q 184 122 194 168 q 167 50 174 75 q 149 15 161 31 q 115 0 138 0 q 66 22 85 0 q 38 74 47 43 q 26 138 29 104 q 24 193 24 171 q 27 260 24 217 q 41 347 31 304 q 72 422 51 390 q 128 454 93 454 q 157 442 147 454 q 172 414 167 431 q 177 379 176 397 q 179 349 178 361 q 224 394 199 375 q 285 414 250 414 q 394 371 353 414 q 436 260 436 328 q 431 215 436 239 q 413 172 425 192 q 383 140 401 153 q 340 126 365 126 q 292 153 304 126 q 279 210 279 179 m 294 444 q 266 457 278 444 q 252 486 253 471 q 265 517 252 504 q 279 533 271 523 q 298 555 288 543 q 316 580 308 567 q 328 604 324 593 q 344 625 333 617 q 369 633 356 633 q 399 620 386 633 q 411 591 411 608 q 398 557 411 580 q 366 507 385 533 q 327 463 347 482 q 294 444 307 444 z "},"":{"ha":535,"x_min":18,"x_max":450,"o":"m 157 0 q 51 35 85 0 q 18 111 18 69 q 43 190 18 157 q 106 244 68 222 q 187 275 143 265 q 268 285 231 285 q 275 283 272 285 q 270 310 274 294 q 260 339 267 325 q 244 363 254 353 q 219 372 235 372 q 191 368 207 372 q 160 356 175 364 q 135 336 146 347 q 121 311 124 325 q 107 288 118 296 q 81 279 96 279 q 51 291 64 279 q 39 321 39 303 q 58 369 39 344 q 93 410 76 394 q 144 440 113 425 q 219 456 175 456 q 316 437 274 456 q 388 386 358 418 q 434 310 418 354 q 450 214 450 265 q 443 148 450 185 q 420 78 436 111 q 378 22 404 44 q 317 -1 353 -1 q 288 11 300 -1 q 275 40 275 24 q 276 47 275 43 q 276 53 276 50 q 279 65 279 58 q 157 0 222 0 m 269 201 q 227 194 249 201 q 188 174 206 188 q 160 142 171 160 q 150 100 150 124 q 153 85 150 85 q 190 97 172 85 q 224 126 208 108 q 251 165 239 144 q 269 201 263 186 m 117 574 q 130 604 117 591 q 159 616 142 616 q 189 604 177 616 q 201 574 201 591 q 225 542 201 542 q 248 549 236 542 q 259 580 259 555 q 272 610 259 597 q 301 622 284 622 q 331 610 319 622 q 343 580 343 597 q 312 492 343 525 q 225 458 281 458 q 145 491 172 458 q 117 574 117 523 z "},"":{"ha":251,"x_min":19,"x_max":240,"o":"m 111 0 q 79 10 96 0 q 50 53 63 21 q 33 121 39 81 q 24 204 26 161 q 20 288 21 247 q 19 357 19 328 q 20 460 19 404 q 25 572 21 515 q 37 684 29 629 q 57 785 44 739 q 78 833 64 808 q 124 857 93 857 q 159 835 151 857 q 169 790 167 813 q 177 633 176 711 q 178 476 178 556 q 176 275 178 382 q 164 75 175 168 q 160 49 163 63 q 151 25 157 36 q 136 7 146 14 q 111 0 126 0 m 81 917 q 83 932 81 924 q 93 946 86 940 q 108 962 99 951 q 126 985 117 972 q 144 1010 136 997 q 157 1035 153 1024 q 174 1055 163 1047 q 197 1063 185 1063 q 228 1050 215 1063 q 240 1019 240 1038 q 227 986 240 1010 q 195 938 214 963 q 156 894 176 913 q 122 875 136 875 q 94 888 106 875 q 81 917 82 900 z "},"":{"ha":471,"x_min":18,"x_max":408,"o":"m 182 207 q 184 174 182 194 q 192 133 186 153 q 207 98 197 113 q 233 83 217 83 q 290 101 264 83 q 328 147 317 119 q 367 172 339 172 q 396 160 383 172 q 408 131 408 147 q 404 114 408 122 q 394 94 404 113 q 363 56 383 76 q 311 17 343 35 q 235 0 279 0 q 148 15 188 0 q 79 58 108 31 q 34 125 50 86 q 18 211 18 164 q 35 303 18 260 q 83 381 53 347 q 154 433 113 414 q 246 453 196 453 q 276 449 258 453 q 312 438 294 446 q 341 419 329 431 q 353 390 353 407 q 340 362 353 374 q 311 350 328 350 q 290 356 297 350 q 246 369 267 369 q 215 349 228 369 q 196 302 203 329 q 185 248 189 275 q 182 207 182 221 m 253 458 q 225 471 238 458 q 212 500 213 484 q 225 531 212 518 q 239 547 230 536 q 258 569 248 557 q 276 594 268 581 q 288 617 284 607 q 304 638 293 631 q 329 646 316 646 q 358 634 346 646 q 371 604 371 622 q 358 570 371 594 q 326 521 345 547 q 287 477 307 496 q 253 458 266 458 z "},"":{"ha":471,"x_min":18,"x_max":408,"o":"m 182 207 q 184 174 182 194 q 192 133 186 153 q 207 98 197 113 q 233 83 217 83 q 290 101 264 83 q 328 147 317 119 q 367 172 339 172 q 396 160 383 172 q 408 131 408 147 q 404 114 408 122 q 394 94 404 113 q 363 56 383 76 q 311 17 343 35 q 235 0 279 0 q 148 15 188 0 q 79 58 108 31 q 34 125 50 86 q 18 211 18 164 q 35 303 18 260 q 83 381 53 347 q 154 433 113 414 q 246 453 196 453 q 276 449 258 453 q 312 438 294 446 q 341 419 329 431 q 353 390 353 407 q 340 362 353 374 q 311 350 328 350 q 290 356 297 350 q 246 369 267 369 q 215 349 228 369 q 196 302 203 329 q 185 248 189 275 q 182 207 182 221 m 142 587 q 155 617 142 604 q 184 629 167 629 q 222 606 210 629 q 254 554 238 577 q 293 604 273 574 q 308 619 299 615 q 328 623 317 623 q 357 611 345 623 q 370 581 370 599 q 356 546 370 567 q 323 505 342 525 q 283 473 304 486 q 249 460 262 460 q 218 474 236 460 q 183 510 200 489 q 154 552 166 531 q 142 587 142 574 z "},"":{"ha":486,"x_min":18,"x_max":411,"o":"m 18 222 q 33 312 18 269 q 77 386 49 354 q 146 437 106 418 q 236 456 186 456 q 332 425 290 456 q 374 336 374 394 q 358 271 374 300 q 315 222 342 242 q 257 190 289 201 q 192 179 225 179 q 179 182 188 179 q 185 155 181 172 q 196 122 189 138 q 213 95 203 107 q 236 83 222 83 q 293 101 267 83 q 332 147 319 119 q 369 172 343 172 q 399 160 388 172 q 411 131 411 147 q 408 114 411 125 q 397 94 407 113 q 367 56 388 76 q 314 17 346 35 q 238 0 282 0 q 147 17 188 0 q 78 63 107 33 q 34 134 50 93 q 18 222 18 175 m 236 372 q 212 359 222 372 q 194 327 201 346 q 183 290 188 308 q 178 261 179 272 q 192 263 182 263 q 265 287 240 263 q 290 335 290 311 q 272 365 290 357 q 236 372 254 372 m 134 587 q 146 617 134 604 q 176 629 159 629 q 214 606 202 629 q 245 554 230 577 q 284 604 264 574 q 300 619 290 615 q 319 623 309 623 q 349 611 337 623 q 361 581 361 599 q 347 546 361 567 q 315 505 334 525 q 275 473 296 486 q 241 460 254 460 q 210 474 228 460 q 175 510 192 489 q 146 552 157 531 q 134 587 134 574 z "},"":{"ha":533,"x_min":24,"x_max":456,"o":"m 290 178 q 292 217 290 192 q 292 268 293 243 q 289 312 292 293 q 278 331 286 331 q 249 314 263 331 q 225 271 236 297 q 205 212 214 244 q 188 149 196 179 q 176 92 181 118 q 167 51 171 65 q 149 17 161 32 q 115 1 138 1 q 66 23 85 1 q 38 75 47 44 q 26 139 29 106 q 24 194 24 172 q 27 262 24 218 q 41 349 31 306 q 72 423 51 392 q 128 454 93 454 q 157 443 147 454 q 172 415 167 432 q 177 381 176 399 q 179 349 178 363 q 224 395 197 375 q 283 415 250 415 q 363 393 331 415 q 417 336 396 371 q 447 260 438 301 q 456 179 456 218 q 451 126 456 157 q 435 67 447 94 q 404 19 424 39 q 354 0 385 0 q 312 21 325 0 q 293 71 299 42 q 289 130 288 100 q 290 178 290 160 m 291 447 q 263 460 275 447 q 249 489 250 473 q 262 520 249 507 q 277 535 268 525 q 295 558 285 546 q 313 583 305 570 q 326 606 321 596 q 342 627 330 619 q 366 635 353 635 q 396 623 384 635 q 408 593 408 611 q 395 559 408 583 q 363 510 382 535 q 324 466 345 485 q 291 447 304 447 z "},"":{"ha":533,"x_min":24,"x_max":456,"o":"m 290 178 q 292 217 290 192 q 292 268 293 243 q 289 312 292 293 q 278 331 286 331 q 249 314 263 331 q 225 271 236 297 q 205 212 214 244 q 188 149 196 179 q 176 92 181 118 q 167 51 171 65 q 149 17 161 32 q 115 1 138 1 q 66 23 85 1 q 38 75 47 44 q 26 139 29 106 q 24 194 24 172 q 27 262 24 218 q 41 349 31 306 q 72 423 51 392 q 128 454 93 454 q 157 443 147 454 q 172 415 167 432 q 177 381 176 399 q 179 349 178 363 q 224 395 197 375 q 283 415 250 415 q 363 393 331 415 q 417 336 396 371 q 447 260 438 301 q 456 179 456 218 q 451 126 456 157 q 435 67 447 94 q 404 19 424 39 q 354 0 385 0 q 312 21 325 0 q 293 71 299 42 q 289 130 288 100 q 290 178 290 160 m 180 576 q 192 606 180 593 q 222 618 204 618 q 259 595 248 618 q 291 543 275 566 q 330 593 310 563 q 346 608 336 603 q 365 612 355 612 q 395 600 382 612 q 407 570 407 588 q 393 535 407 556 q 361 494 380 514 q 321 462 342 475 q 287 449 300 449 q 256 463 274 449 q 220 499 238 478 q 191 541 203 520 q 180 576 180 563 z "},"":{"ha":432,"x_min":18,"x_max":419,"o":"m 225 0 q 146 15 183 0 q 80 58 108 31 q 35 126 51 86 q 18 217 18 167 q 33 306 18 263 q 77 382 49 349 q 145 435 106 415 q 232 456 185 456 q 258 448 247 456 q 271 432 268 440 l 282 432 q 345 413 319 432 q 386 365 371 394 q 408 301 401 336 q 415 236 415 267 q 406 157 415 199 q 374 81 396 115 q 315 23 351 46 q 225 0 278 0 m 249 83 q 288 100 272 83 q 314 141 304 117 q 328 192 324 165 q 332 238 332 218 q 330 270 332 251 q 322 306 328 289 q 304 336 315 324 q 275 349 293 349 q 235 374 249 349 q 210 352 221 374 q 194 303 200 331 q 184 250 188 276 q 181 215 181 224 q 182 189 181 210 q 190 144 183 168 q 210 102 196 121 q 249 83 224 83 m 267 508 q 279 536 267 526 q 293 552 285 542 q 311 574 301 563 q 328 599 321 586 q 340 621 336 611 q 356 640 344 633 q 379 647 367 647 q 408 635 396 647 q 419 607 419 624 q 407 574 419 597 q 376 528 394 551 q 339 486 358 504 q 307 468 319 468 q 280 480 292 468 q 267 508 268 492 m 253 647 q 281 635 268 647 q 293 607 293 624 q 280 574 293 597 q 249 528 267 551 q 213 486 232 504 q 181 468 193 468 q 152 480 164 468 q 140 508 140 492 q 151 536 140 525 q 166 552 157 542 q 184 574 175 563 q 201 599 193 586 q 214 621 210 611 q 253 647 222 647 z "},"":{"ha":492,"x_min":24,"x_max":436,"o":"m 279 210 q 281 242 279 221 q 283 282 282 263 q 285 316 285 301 q 282 331 285 331 q 242 296 260 331 q 209 215 224 261 q 184 122 194 168 q 167 50 174 75 q 149 15 161 31 q 115 0 138 0 q 66 22 85 0 q 38 74 47 43 q 26 138 29 104 q 24 193 24 171 q 27 260 24 217 q 41 347 31 304 q 72 422 51 390 q 128 454 93 454 q 157 442 147 454 q 172 414 167 431 q 177 379 176 397 q 179 349 178 361 q 224 394 199 375 q 285 414 250 414 q 394 371 353 414 q 436 260 436 328 q 431 215 436 239 q 413 172 425 192 q 383 140 401 153 q 340 126 365 126 q 292 153 304 126 q 279 210 279 179 m 183 573 q 195 603 183 591 q 225 615 207 615 q 262 592 251 615 q 294 540 278 563 q 333 591 313 560 q 348 605 339 601 q 368 609 358 609 q 397 597 385 609 q 410 567 410 585 q 396 532 410 553 q 363 491 382 511 q 324 459 345 472 q 290 446 303 446 q 259 460 277 446 q 223 496 241 475 q 194 538 206 517 q 183 573 183 560 z "},"":{"ha":542,"x_min":21,"x_max":453,"o":"m 349 0 q 324 8 333 0 q 309 26 314 15 q 302 51 304 38 q 299 75 300 64 q 256 24 282 47 q 193 0 229 0 q 110 26 143 0 q 58 90 78 51 q 29 175 38 129 q 21 260 21 221 q 24 317 21 283 q 39 381 28 350 q 69 433 50 411 q 121 456 89 456 q 164 432 150 456 q 183 377 178 408 q 187 313 188 346 q 186 261 186 281 q 185 217 186 246 q 185 158 185 188 q 188 108 185 129 q 199 86 190 86 q 227 106 214 86 q 251 155 240 125 q 270 222 261 185 q 286 294 279 258 q 299 359 293 329 q 308 404 304 389 q 326 439 314 424 q 361 454 338 454 q 411 433 393 454 q 438 381 429 411 q 450 317 447 350 q 453 261 453 285 q 449 192 453 236 q 435 106 446 149 q 404 32 425 64 q 349 0 383 0 m 147 579 q 155 624 147 603 q 177 663 163 646 q 211 690 192 679 q 256 700 231 700 q 322 667 299 700 q 344 594 344 633 q 315 513 344 547 q 236 478 285 478 q 170 509 193 478 q 147 579 147 540 m 256 644 q 216 624 229 644 q 203 579 203 603 q 210 549 203 564 q 236 533 217 533 q 275 552 261 533 q 289 594 289 571 q 281 627 289 610 q 256 644 274 644 z "},"":{"ha":464,"x_min":19,"x_max":451,"o":"m 19 260 q 23 317 19 283 q 38 381 26 350 q 68 433 49 411 q 119 456 88 456 q 163 432 149 456 q 181 377 176 408 q 185 313 186 346 q 185 261 185 281 q 184 217 185 246 q 183 158 183 188 q 186 108 183 129 q 197 86 189 86 q 226 106 213 86 q 249 155 239 125 q 269 222 260 185 q 285 294 278 258 q 297 359 292 329 q 307 404 303 389 q 324 439 313 424 q 360 454 336 454 q 410 433 392 454 q 437 381 428 411 q 449 317 446 350 q 451 261 451 285 q 448 192 451 236 q 434 106 444 149 q 403 32 424 64 q 347 0 382 0 q 322 8 332 0 q 308 26 313 15 q 301 51 303 38 q 297 75 299 64 q 254 24 281 47 q 192 0 228 0 q 109 26 142 0 q 56 90 76 51 q 28 175 36 129 q 19 260 19 221 m 169 468 q 141 480 153 468 q 129 508 129 492 q 140 536 129 525 q 155 552 146 542 q 173 574 164 563 q 190 599 182 586 q 203 621 199 611 q 217 640 207 633 q 240 647 228 647 q 269 635 257 647 q 282 607 282 624 q 269 574 282 597 q 238 528 256 551 q 201 486 221 504 q 169 468 182 468 m 296 468 q 269 480 281 468 q 256 508 257 492 q 267 536 256 525 q 281 552 272 542 q 300 574 290 563 q 317 599 310 586 q 329 621 325 611 q 344 640 333 633 q 368 647 356 647 q 396 635 383 647 q 408 607 408 624 q 395 574 408 597 q 365 528 382 551 q 328 486 347 504 q 296 468 308 468 z "},"":{"ha":414,"x_min":8,"x_max":399,"o":"m 224 83 q 281 101 254 83 q 318 147 307 119 q 357 172 329 172 q 386 160 374 172 q 399 131 399 147 q 394 114 399 122 q 385 95 394 113 q 356 58 375 78 q 308 20 338 38 q 236 0 278 3 q 234 -27 235 -14 q 231 -53 233 -40 q 243 -51 238 -51 q 254 -51 249 -51 q 301 -58 278 -51 q 343 -76 325 -64 q 372 -108 361 -89 q 383 -154 383 -128 q 364 -222 383 -193 q 314 -271 344 -251 q 247 -300 283 -290 q 178 -310 211 -310 q 156 -303 165 -310 q 146 -282 146 -296 q 154 -262 146 -271 q 174 -254 163 -254 q 214 -246 194 -254 q 249 -224 233 -237 q 273 -190 264 -210 q 282 -150 282 -171 q 236 -108 282 -108 q 206 -112 221 -108 l 200 -112 q 178 -103 188 -112 q 172 -82 169 -94 l 181 4 q 56 72 103 17 q 8 211 8 128 q 26 303 8 260 q 73 381 43 347 q 144 433 103 414 q 236 453 186 453 q 267 449 249 453 q 302 438 285 446 q 331 419 319 431 q 343 390 343 407 q 331 362 343 374 q 301 350 318 350 q 281 356 288 350 q 236 369 257 369 q 206 349 218 369 q 186 302 193 329 q 176 248 179 275 q 172 207 172 221 q 174 174 172 194 q 182 133 176 153 q 197 98 188 113 q 224 83 207 83 z "},"":{"ha":419,"x_min":10,"x_max":403,"o":"m 171 182 q 176 155 172 172 q 188 122 181 138 q 204 95 194 107 q 228 83 214 83 q 285 101 258 83 q 324 147 311 119 q 361 172 335 172 q 391 160 379 172 q 403 131 403 147 q 396 106 403 119 q 379 81 389 93 q 359 57 369 68 q 342 40 349 46 q 334 15 339 28 q 325 -10 329 3 q 297 -92 307 -60 q 281 -151 288 -125 q 274 -188 275 -174 q 272 -212 272 -203 q 278 -235 272 -232 q 319 -226 300 -235 q 342 -214 338 -218 q 361 -206 349 -206 q 381 -214 372 -206 q 389 -233 389 -222 q 376 -258 389 -247 q 344 -276 363 -268 q 307 -287 325 -283 q 278 -290 289 -290 q 203 -265 231 -290 q 176 -192 176 -240 q 196 -97 176 -149 q 242 0 215 -44 q 148 15 190 0 q 75 59 106 31 q 27 128 44 88 q 10 222 10 169 q 25 312 10 269 q 69 386 40 354 q 138 437 97 418 q 228 456 178 456 q 324 425 282 456 q 365 336 365 394 q 349 271 365 300 q 307 222 333 242 q 249 190 281 201 q 183 179 217 179 q 171 182 179 179 m 169 261 q 183 263 174 263 q 257 287 232 263 q 282 335 282 311 q 264 365 282 357 q 228 372 246 372 q 203 359 214 372 q 186 327 193 346 q 175 290 179 308 q 169 261 171 272 z "},"":{"ha":458,"x_min":11,"x_max":443,"o":"m 32 321 q 51 369 32 344 q 86 410 69 394 q 137 440 106 425 q 213 456 168 456 q 309 437 267 456 q 381 386 351 418 q 427 310 411 354 q 443 214 443 265 q 437 153 443 188 q 417 86 431 118 q 381 31 403 54 q 328 0 360 7 q 323 -14 325 -7 q 318 -29 321 -21 q 294 -97 307 -58 q 274 -171 282 -135 q 267 -208 268 -193 q 265 -232 265 -222 q 271 -254 265 -251 q 311 -246 293 -254 q 333 -233 329 -237 q 354 -225 342 -225 q 374 -233 365 -225 q 382 -253 382 -242 q 369 -277 382 -267 q 337 -295 356 -287 q 300 -306 318 -303 q 271 -310 282 -310 q 196 -285 224 -310 q 168 -211 168 -260 q 178 -150 168 -183 q 202 -83 188 -117 q 234 -19 217 -50 q 268 36 251 13 q 269 51 268 43 q 272 65 271 58 q 150 0 215 0 q 44 35 78 0 q 11 111 11 69 q 36 190 11 157 q 99 244 61 222 q 180 275 136 265 q 261 285 224 285 q 268 283 265 285 q 263 310 267 294 q 253 339 260 325 q 238 363 247 353 q 213 372 228 372 q 184 368 200 372 q 153 356 168 364 q 128 336 139 347 q 114 311 117 325 q 100 288 111 296 q 74 279 89 279 q 44 291 57 279 q 32 321 32 303 m 143 100 q 146 85 143 85 q 183 97 165 85 q 217 126 201 108 q 244 165 232 144 q 263 201 256 186 q 220 194 242 201 q 181 174 199 188 q 153 142 164 160 q 143 100 143 124 z "},"":{"ha":736,"x_min":25,"x_max":647,"o":"m 307 333 q 248 335 275 333 q 192 351 221 338 q 188 208 190 281 q 176 88 185 136 q 172 60 175 75 q 161 31 168 44 q 144 10 154 18 q 117 1 133 1 q 78 19 93 1 q 56 60 64 36 q 44 110 47 85 q 38 153 40 136 q 28 271 31 204 q 25 411 25 338 q 26 500 25 449 q 31 605 26 551 q 42 708 35 658 q 61 794 49 758 q 84 838 68 818 q 128 858 100 858 q 157 847 147 858 q 172 817 167 835 q 178 781 176 800 q 181 749 179 763 q 280 827 224 797 q 397 857 336 857 q 487 840 442 857 q 567 790 532 822 q 625 715 603 758 q 647 617 647 671 q 588 467 647 528 q 433 365 529 406 q 497 306 461 343 q 563 226 532 268 q 616 142 594 183 q 638 67 638 100 q 624 22 638 43 q 582 0 610 0 q 530 24 554 0 q 489 67 506 47 q 393 197 438 129 q 307 333 349 264 m 285 415 q 376 432 338 415 q 438 478 414 449 q 474 549 463 508 q 486 639 486 590 q 483 685 486 661 q 469 728 479 708 q 441 761 460 749 q 392 774 422 774 q 334 761 363 774 q 280 728 306 749 q 233 682 254 708 q 194 628 211 656 q 188 618 193 624 q 190 534 189 576 q 192 450 190 492 q 285 415 231 415 m 412 890 q 384 903 396 890 q 370 932 371 916 q 383 963 370 950 q 397 979 389 968 q 416 1001 406 989 q 434 1026 426 1013 q 447 1049 442 1039 q 462 1070 451 1062 q 487 1078 474 1078 q 517 1066 504 1078 q 529 1036 529 1054 q 516 1002 529 1026 q 484 953 503 979 q 445 909 465 928 q 412 890 425 890 z "},"":{"ha":582,"x_min":18,"x_max":503,"o":"m 494 -3 q 481 -31 493 -19 q 453 -42 469 -42 q 411 -25 428 -42 q 384 15 394 -8 q 369 65 374 39 q 361 110 364 92 q 353 206 356 154 q 350 317 351 258 q 292 308 324 313 q 227 298 260 303 q 164 290 194 293 q 110 283 133 286 q 101 126 101 200 q 106 47 101 83 q 94 15 106 28 q 64 1 83 1 q 37 12 49 1 q 22 39 25 22 q 18 126 18 76 q 23 233 18 164 q 39 383 28 301 q 69 549 50 464 q 119 703 89 633 q 191 816 150 772 q 288 860 232 860 q 378 824 342 860 q 439 731 415 788 q 476 603 463 674 q 495 464 489 533 q 502 335 501 394 q 503 240 503 276 q 501 147 503 190 q 499 71 500 103 q 496 19 497 39 q 494 -3 494 -1 m 119 368 q 172 374 143 371 q 231 382 200 378 q 291 392 261 386 q 347 401 321 397 q 342 542 346 474 q 331 665 339 610 q 326 689 329 671 q 317 726 322 707 q 303 761 311 746 q 288 776 296 776 q 243 751 264 776 q 204 687 222 726 q 172 599 186 647 q 147 506 157 551 q 129 423 136 460 q 119 368 122 386 m 295 890 q 267 903 279 890 q 253 932 255 916 q 266 963 253 950 q 281 979 272 968 q 299 1001 289 989 q 318 1026 310 1013 q 330 1049 326 1039 q 346 1070 334 1062 q 370 1078 357 1078 q 400 1066 388 1078 q 412 1036 412 1054 q 399 1002 412 1026 q 367 953 386 979 q 328 909 349 928 q 295 890 308 890 z "},"":{"ha":582,"x_min":18,"x_max":503,"o":"m 494 -3 q 481 -31 493 -19 q 453 -42 469 -42 q 411 -25 428 -42 q 384 15 394 -8 q 369 65 374 39 q 361 110 364 92 q 353 206 356 154 q 350 317 351 258 q 292 308 324 313 q 227 298 260 303 q 164 290 194 293 q 110 283 133 286 q 101 126 101 200 q 106 47 101 83 q 94 15 106 28 q 64 1 83 1 q 37 12 49 1 q 22 39 25 22 q 18 126 18 76 q 23 233 18 164 q 39 383 28 301 q 69 549 50 464 q 119 703 89 633 q 191 816 150 772 q 288 860 232 860 q 378 824 342 860 q 439 731 415 788 q 476 603 463 674 q 495 464 489 533 q 502 335 501 394 q 503 240 503 276 q 501 147 503 190 q 499 71 500 103 q 496 19 497 39 q 494 -3 494 -1 m 119 368 q 172 374 143 371 q 231 382 200 378 q 291 392 261 386 q 347 401 321 397 q 342 542 346 474 q 331 665 339 610 q 326 689 329 671 q 317 726 322 707 q 303 761 311 746 q 288 776 296 776 q 243 751 264 776 q 204 687 222 726 q 172 599 186 647 q 147 506 157 551 q 129 423 136 460 q 119 368 122 386 m 220 890 q 191 903 204 890 q 178 932 178 915 q 192 968 178 947 q 225 1008 206 989 q 265 1041 245 1028 q 300 1054 285 1054 q 331 1039 313 1054 q 366 1002 349 1023 q 394 960 382 981 q 406 926 406 939 q 393 897 406 909 q 364 885 381 885 q 326 908 340 885 q 294 960 310 937 q 275 937 285 950 q 257 909 265 924 q 220 890 242 890 z "},"":{"ha":582,"x_min":18,"x_max":503,"o":"m 494 -3 q 481 -31 493 -19 q 453 -42 469 -42 q 411 -25 428 -42 q 384 15 394 -8 q 369 65 374 39 q 361 110 364 92 q 353 206 356 154 q 350 317 351 258 q 292 308 324 313 q 227 298 260 303 q 164 290 194 293 q 110 283 133 286 q 101 126 101 200 q 106 47 101 83 q 94 15 106 28 q 64 1 83 1 q 37 12 49 1 q 22 39 25 22 q 18 126 18 76 q 23 233 18 164 q 39 383 28 301 q 69 549 50 464 q 119 703 89 633 q 191 816 150 772 q 288 860 232 860 q 378 824 342 860 q 439 731 415 788 q 476 603 463 674 q 495 464 489 533 q 502 335 501 394 q 503 240 503 276 q 501 147 503 190 q 499 71 500 103 q 496 19 497 39 q 494 -3 494 -1 m 119 368 q 172 374 143 371 q 231 382 200 378 q 291 392 261 386 q 347 401 321 397 q 342 542 346 474 q 331 665 339 610 q 326 689 329 671 q 317 726 322 707 q 303 761 311 746 q 288 776 296 776 q 243 751 264 776 q 204 687 222 726 q 172 599 186 647 q 147 506 157 551 q 129 423 136 460 q 119 368 122 386 m 183 1006 q 195 1036 183 1023 q 225 1048 207 1048 q 254 1036 242 1048 q 267 1006 267 1023 q 290 974 267 974 q 313 981 301 974 q 325 1012 325 987 q 337 1041 325 1029 q 366 1054 349 1054 q 396 1041 384 1054 q 408 1012 408 1029 q 377 924 408 957 q 290 890 346 890 q 210 923 238 890 q 183 1006 183 955 z "},"":{"ha":582,"x_min":18,"x_max":503,"o":"m 494 -3 q 481 -31 493 -19 q 453 -42 469 -42 q 411 -25 428 -42 q 384 15 394 -8 q 369 65 374 39 q 361 110 364 92 q 353 206 356 154 q 350 317 351 258 q 292 308 324 313 q 227 298 260 303 q 164 290 194 293 q 110 283 133 286 q 101 126 101 200 q 106 47 101 83 q 94 15 106 28 q 64 1 83 1 q 37 12 49 1 q 22 39 25 22 q 18 126 18 76 q 23 233 18 164 q 39 383 28 301 q 69 549 50 464 q 119 703 89 633 q 191 816 150 772 q 288 860 232 860 q 378 824 342 860 q 439 731 415 788 q 476 603 463 674 q 495 464 489 533 q 502 335 501 394 q 503 240 503 276 q 501 147 503 190 q 499 71 500 103 q 496 19 497 39 q 494 -3 494 -1 m 119 368 q 172 374 143 371 q 231 382 200 378 q 291 392 261 386 q 347 401 321 397 q 342 542 346 474 q 331 665 339 610 q 326 689 329 671 q 317 726 322 707 q 303 761 311 746 q 288 776 296 776 q 243 751 264 776 q 204 687 222 726 q 172 599 186 647 q 147 506 157 551 q 129 423 136 460 q 119 368 122 386 m 182 938 q 194 967 182 956 q 224 979 206 979 q 253 967 242 979 q 265 938 265 956 q 253 908 265 921 q 224 896 242 896 q 194 908 206 896 q 182 938 182 921 m 307 938 q 319 967 307 956 q 349 979 331 979 q 378 967 367 979 q 390 938 390 956 q 378 908 390 921 q 349 896 367 896 q 319 908 331 896 q 307 938 307 921 z "},"":{"ha":558,"x_min":22,"x_max":522,"o":"m 268 0 q 217 2 246 0 q 160 12 188 4 q 110 33 133 19 q 78 72 88 47 q 51 167 61 114 q 34 274 40 219 q 25 378 28 328 q 22 464 22 428 q 24 549 22 496 q 32 658 26 601 q 48 764 38 714 q 75 840 58 814 q 103 865 89 860 q 126 871 117 871 q 147 866 133 871 q 171 840 160 861 q 184 786 182 819 q 188 731 186 753 q 189 691 189 711 q 189 647 189 671 q 183 372 189 510 q 163 99 178 235 q 197 88 172 93 q 268 83 222 83 q 313 85 288 83 q 364 89 338 86 q 415 96 390 92 q 456 107 439 100 q 481 115 467 115 q 510 103 499 115 q 522 74 522 90 q 489 33 522 47 q 413 10 456 18 q 327 1 369 3 q 268 0 285 0 m 128 890 q 100 903 113 890 q 87 932 88 916 q 100 963 87 950 q 114 979 105 968 q 133 1001 123 989 q 151 1026 143 1013 q 163 1049 159 1039 q 179 1070 168 1062 q 204 1078 191 1078 q 233 1066 221 1078 q 246 1036 246 1054 q 233 1002 246 1026 q 201 953 220 979 q 162 909 182 928 q 128 890 141 890 z "},"":{"ha":625,"x_min":18,"x_max":574,"o":"m 181 392 q 185 310 181 363 q 205 208 190 258 q 247 120 219 157 q 317 83 274 83 q 394 108 361 83 q 449 161 428 132 q 482 215 471 190 q 493 239 493 239 q 508 259 497 251 q 532 267 519 267 q 561 255 549 267 q 574 225 574 243 q 567 198 574 215 q 550 163 560 181 q 530 131 540 146 q 514 108 519 115 q 424 28 474 56 q 317 0 375 0 q 179 38 236 0 q 87 136 122 76 q 35 268 51 196 q 18 410 18 340 q 35 560 18 482 q 91 705 53 639 q 190 814 129 771 q 336 857 250 857 q 376 851 351 857 q 424 835 400 846 q 466 808 449 824 q 483 774 483 793 q 471 744 483 757 q 442 732 458 732 q 417 740 428 732 q 333 774 371 776 q 280 751 303 774 q 240 692 257 728 q 212 612 224 656 q 193 526 200 568 q 183 449 186 485 q 181 392 181 413 m 348 890 q 320 903 332 890 q 306 932 307 916 q 319 963 306 950 q 333 979 325 968 q 352 1001 342 989 q 370 1026 362 1013 q 383 1049 378 1039 q 399 1070 387 1062 q 423 1078 410 1078 q 453 1066 441 1078 q 465 1036 465 1054 q 452 1002 465 1026 q 420 953 439 979 q 381 909 401 928 q 348 890 361 890 z "},"":{"ha":625,"x_min":18,"x_max":574,"o":"m 181 392 q 185 310 181 363 q 205 208 190 258 q 247 120 219 157 q 317 83 274 83 q 394 108 361 83 q 449 161 428 132 q 482 215 471 190 q 493 239 493 239 q 508 259 497 251 q 532 267 519 267 q 561 255 549 267 q 574 225 574 243 q 567 198 574 215 q 550 163 560 181 q 530 131 540 146 q 514 108 519 115 q 424 28 474 56 q 317 0 375 0 q 179 38 236 0 q 87 136 122 76 q 35 268 51 196 q 18 410 18 340 q 35 560 18 482 q 91 705 53 639 q 190 814 129 771 q 336 857 250 857 q 376 851 351 857 q 424 835 400 846 q 466 808 449 824 q 483 774 483 793 q 471 744 483 757 q 442 732 458 732 q 417 740 428 732 q 333 774 371 776 q 280 751 303 774 q 240 692 257 728 q 212 612 224 656 q 193 526 200 568 q 183 449 186 485 q 181 392 181 413 m 237 1019 q 249 1049 237 1036 q 279 1061 261 1061 q 316 1038 305 1061 q 348 986 332 1009 q 387 1036 367 1006 q 402 1051 393 1047 q 422 1055 412 1055 q 452 1043 439 1055 q 464 1013 464 1031 q 450 978 464 999 q 418 937 436 957 q 378 905 399 918 q 344 892 357 892 q 313 906 331 892 q 277 942 295 921 q 248 984 260 963 q 237 1019 237 1006 z "},"":{"ha":583,"x_min":21,"x_max":539,"o":"m 279 0 q 142 22 207 0 q 96 59 115 31 q 63 126 76 88 q 42 211 50 165 q 28 300 33 257 q 22 380 24 343 q 21 438 21 417 q 24 535 21 486 q 39 632 28 583 q 74 751 54 706 q 124 821 93 796 q 202 855 156 846 q 318 864 249 864 q 422 859 375 864 q 479 851 468 854 q 502 838 494 849 q 510 811 510 826 q 498 782 510 794 q 468 769 486 769 q 463 770 465 769 q 458 771 461 771 q 407 777 447 774 q 318 781 367 781 q 286 780 306 781 q 246 777 267 779 q 206 771 225 775 q 176 760 188 767 q 176 741 176 751 q 178 715 176 731 q 182 440 178 578 l 221 440 q 260 441 236 440 q 310 444 285 442 q 358 449 336 446 q 388 457 379 451 q 413 465 400 465 q 442 453 431 465 q 454 424 454 442 q 438 390 454 403 q 393 372 421 378 q 334 362 365 365 q 272 358 303 358 q 219 357 242 357 l 183 357 q 192 94 183 226 q 235 85 214 88 q 278 83 257 83 q 396 102 344 83 q 472 139 447 121 q 497 147 485 147 q 526 135 514 147 q 539 106 539 122 q 508 60 539 79 q 433 27 476 40 q 347 7 390 14 q 279 0 304 0 m 330 890 q 302 903 314 890 q 288 932 289 916 q 301 963 288 950 q 315 979 307 968 q 334 1001 324 989 q 352 1026 344 1013 q 365 1049 360 1039 q 380 1070 369 1062 q 405 1078 392 1078 q 435 1066 422 1078 q 447 1036 447 1054 q 434 1002 447 1026 q 402 953 421 979 q 363 909 383 928 q 330 890 343 890 z "},"":{"ha":583,"x_min":21,"x_max":539,"o":"m 279 0 q 142 22 207 0 q 96 59 115 31 q 63 126 76 88 q 42 211 50 165 q 28 300 33 257 q 22 380 24 343 q 21 438 21 417 q 24 535 21 486 q 39 632 28 583 q 74 751 54 706 q 124 821 93 796 q 202 855 156 846 q 318 864 249 864 q 422 859 375 864 q 479 851 468 854 q 502 838 494 849 q 510 811 510 826 q 498 782 510 794 q 468 769 486 769 q 463 770 465 769 q 458 771 461 771 q 407 777 447 774 q 318 781 367 781 q 286 780 306 781 q 246 777 267 779 q 206 771 225 775 q 176 760 188 767 q 176 741 176 751 q 178 715 176 731 q 182 440 178 578 l 221 440 q 260 441 236 440 q 310 444 285 442 q 358 449 336 446 q 388 457 379 451 q 413 465 400 465 q 442 453 431 465 q 454 424 454 442 q 438 390 454 403 q 393 372 421 378 q 334 362 365 365 q 272 358 303 358 q 219 357 242 357 l 183 357 q 192 94 183 226 q 235 85 214 88 q 278 83 257 83 q 396 102 344 83 q 472 139 447 121 q 497 147 485 147 q 526 135 514 147 q 539 106 539 122 q 508 60 539 79 q 433 27 476 40 q 347 7 390 14 q 279 0 304 0 m 214 938 q 226 967 214 956 q 256 979 238 979 q 285 967 274 979 q 297 938 297 956 q 285 908 297 921 q 256 896 274 896 q 226 908 238 896 q 214 938 214 921 m 339 938 q 351 967 339 956 q 381 979 363 979 q 410 967 399 979 q 422 938 422 956 q 410 908 422 921 q 381 896 399 896 q 351 908 363 896 q 339 938 339 921 z "},"":{"ha":583,"x_min":21,"x_max":539,"o":"m 279 0 q 142 22 207 0 q 96 59 115 31 q 63 126 76 88 q 42 211 50 165 q 28 300 33 257 q 22 380 24 343 q 21 438 21 417 q 24 535 21 486 q 39 632 28 583 q 74 751 54 706 q 124 821 93 796 q 202 855 156 846 q 318 864 249 864 q 422 859 375 864 q 479 851 468 854 q 502 838 494 849 q 510 811 510 826 q 498 782 510 794 q 468 769 486 769 q 463 770 465 769 q 458 771 461 771 q 407 777 447 774 q 318 781 367 781 q 286 780 306 781 q 246 777 267 779 q 206 771 225 775 q 176 760 188 767 q 176 741 176 751 q 178 715 176 731 q 182 440 178 578 l 221 440 q 260 441 236 440 q 310 444 285 442 q 358 449 336 446 q 388 457 379 451 q 413 465 400 465 q 442 453 431 465 q 454 424 454 442 q 438 390 454 403 q 393 372 421 378 q 334 362 365 365 q 272 358 303 358 q 219 357 242 357 l 183 357 q 192 94 183 226 q 235 85 214 88 q 278 83 257 83 q 396 102 344 83 q 472 139 447 121 q 497 147 485 147 q 526 135 514 147 q 539 106 539 122 q 508 60 539 79 q 433 27 476 40 q 347 7 390 14 q 279 0 304 0 m 219 1019 q 231 1049 219 1036 q 261 1061 243 1061 q 298 1038 287 1061 q 330 986 314 1009 q 369 1036 349 1006 q 384 1051 375 1047 q 404 1055 394 1055 q 434 1043 421 1055 q 446 1013 446 1031 q 432 978 446 999 q 400 937 418 957 q 360 905 381 918 q 326 892 339 892 q 295 906 313 892 q 259 942 277 921 q 230 984 242 963 q 219 1019 219 1006 z "},"":{"ha":508,"x_min":15,"x_max":475,"o":"m 29 813 q 42 844 29 833 q 75 854 56 854 q 107 853 89 853 q 142 851 122 851 q 188 850 163 850 q 208 851 201 850 q 225 858 217 857 q 239 860 233 860 q 263 853 251 860 q 323 856 292 854 q 386 863 354 858 q 392 864 388 864 q 422 851 410 864 q 433 822 433 839 q 423 795 433 807 q 397 781 413 783 q 342 774 369 776 q 289 771 315 772 q 301 579 299 675 q 303 388 303 483 q 302 309 303 350 q 300 228 301 268 q 296 151 299 188 q 289 85 293 114 q 360 90 325 88 q 428 96 394 92 q 431 97 429 96 q 433 97 432 97 q 463 85 451 97 q 475 56 475 72 q 465 28 475 40 q 439 14 454 17 q 349 5 394 7 q 258 1 303 3 q 242 -9 250 -7 q 228 -11 233 -11 q 213 -9 221 -11 q 194 0 204 -7 q 97 3 136 1 q 54 4 57 4 q 26 19 38 7 q 15 46 15 31 q 28 76 15 65 q 60 88 42 88 q 88 86 61 88 q 158 85 114 85 q 140 245 143 164 q 136 406 136 326 q 140 586 136 493 q 164 767 144 679 q 67 772 76 769 q 40 785 51 774 q 29 813 29 797 m 247 890 q 218 903 231 890 q 205 932 206 916 q 218 963 205 950 q 232 979 223 968 q 251 1001 241 989 q 269 1026 261 1013 q 281 1049 277 1039 q 297 1070 286 1062 q 322 1078 309 1078 q 351 1066 339 1078 q 364 1036 364 1054 q 351 1002 364 1026 q 319 953 338 979 q 280 909 300 928 q 247 890 260 890 z "},"":{"ha":508,"x_min":15,"x_max":475,"o":"m 29 813 q 42 844 29 833 q 75 854 56 854 q 107 853 89 853 q 142 851 122 851 q 188 850 163 850 q 208 851 201 850 q 225 858 217 857 q 239 860 233 860 q 263 853 251 860 q 323 856 292 854 q 386 863 354 858 q 392 864 388 864 q 422 851 410 864 q 433 822 433 839 q 423 795 433 807 q 397 781 413 783 q 342 774 369 776 q 289 771 315 772 q 301 579 299 675 q 303 388 303 483 q 302 309 303 350 q 300 228 301 268 q 296 151 299 188 q 289 85 293 114 q 360 90 325 88 q 428 96 394 92 q 431 97 429 96 q 433 97 432 97 q 463 85 451 97 q 475 56 475 72 q 465 28 475 40 q 439 14 454 17 q 349 5 394 7 q 258 1 303 3 q 242 -9 250 -7 q 228 -11 233 -11 q 213 -9 221 -11 q 194 0 204 -7 q 97 3 136 1 q 54 4 57 4 q 26 19 38 7 q 15 46 15 31 q 28 76 15 65 q 60 88 42 88 q 88 86 61 88 q 158 85 114 85 q 140 245 143 164 q 136 406 136 326 q 140 586 136 493 q 164 767 144 679 q 67 772 76 769 q 40 785 51 774 q 29 813 29 797 m 170 890 q 141 903 154 890 q 128 932 128 915 q 142 968 128 947 q 175 1008 156 989 q 215 1041 195 1028 q 250 1054 235 1054 q 281 1039 263 1054 q 316 1002 299 1023 q 344 960 332 981 q 356 926 356 939 q 343 897 356 909 q 314 885 331 885 q 276 908 290 885 q 244 960 260 937 q 225 937 235 950 q 207 909 215 924 q 170 890 192 890 z "},"":{"ha":726,"x_min":25,"x_max":646,"o":"m 25 390 q 26 484 25 431 q 31 594 26 538 q 42 703 35 650 q 61 793 49 756 q 83 838 68 817 q 128 860 99 860 q 152 853 143 860 q 166 835 161 846 q 173 810 171 824 q 176 786 175 797 q 264 840 217 819 q 360 860 311 860 q 495 817 440 860 q 583 708 550 774 q 631 568 617 643 q 646 428 646 493 q 631 288 646 363 q 583 149 617 213 q 493 42 549 85 q 357 0 438 0 q 263 15 308 0 q 178 57 217 29 q 173 26 176 43 q 163 -5 169 10 q 146 -29 157 -19 q 117 -39 135 -39 q 94 -34 108 -39 q 69 -11 81 -29 q 52 37 60 6 q 40 106 44 68 q 32 186 35 144 q 28 267 29 228 q 26 338 26 306 q 25 390 25 371 m 486 428 q 476 563 486 500 q 449 674 467 626 q 409 749 432 721 q 360 776 386 776 q 309 767 335 776 q 260 744 283 758 q 217 709 236 729 q 185 667 197 689 q 190 519 188 592 q 192 372 192 447 q 190 267 192 322 q 186 160 189 211 q 263 104 217 125 q 357 83 308 83 q 405 104 385 83 q 440 157 425 125 q 463 228 454 189 q 477 307 472 268 q 484 378 482 346 q 486 428 486 410 m 263 1019 q 275 1049 263 1036 q 305 1061 288 1061 q 343 1038 331 1061 q 375 986 359 1009 q 414 1036 393 1006 q 429 1051 419 1047 q 448 1055 438 1055 q 478 1043 466 1055 q 490 1013 490 1031 q 477 978 490 999 q 444 937 463 957 q 404 905 425 918 q 370 892 383 892 q 339 906 357 892 q 304 942 321 921 q 275 984 286 963 q 263 1019 263 1006 z "},"":{"ha":646,"x_min":25,"x_max":546,"o":"m 424 815 q 436 845 424 833 q 465 857 449 857 q 504 831 493 857 q 526 744 518 797 q 539 634 535 692 q 544 522 543 576 q 546 431 546 468 q 545 378 546 411 q 543 303 544 344 q 539 219 542 263 q 531 138 536 176 q 519 68 526 99 q 501 24 511 38 q 460 0 488 0 q 419 17 436 0 q 389 50 401 33 q 365 90 378 67 q 335 143 351 113 q 221 383 272 261 q 119 629 169 506 q 112 480 115 558 q 108 326 108 401 q 114 168 108 240 q 135 56 119 96 q 138 42 138 47 q 125 13 138 25 q 96 0 113 0 q 56 28 67 0 q 33 147 40 72 q 25 328 25 222 q 32 571 25 450 q 51 814 39 692 q 66 840 54 829 q 93 851 78 851 q 171 813 132 851 q 247 713 210 774 q 317 578 283 653 q 377 433 350 504 q 424 304 404 363 q 454 217 444 246 q 463 436 463 328 q 453 663 463 565 q 426 800 443 760 q 424 808 425 804 q 424 815 424 811 m 305 890 q 277 903 289 890 q 263 932 264 916 q 276 963 263 950 q 290 979 282 968 q 309 1001 299 989 q 327 1026 319 1013 q 340 1049 335 1039 q 355 1070 344 1062 q 380 1078 367 1078 q 410 1066 397 1078 q 422 1036 422 1054 q 409 1002 422 1026 q 377 953 396 979 q 338 909 358 928 q 305 890 318 890 z "},"":{"ha":646,"x_min":25,"x_max":546,"o":"m 424 815 q 436 845 424 833 q 465 857 449 857 q 504 831 493 857 q 526 744 518 797 q 539 634 535 692 q 544 522 543 576 q 546 431 546 468 q 545 378 546 411 q 543 303 544 344 q 539 219 542 263 q 531 138 536 176 q 519 68 526 99 q 501 24 511 38 q 460 0 488 0 q 419 17 436 0 q 389 50 401 33 q 365 90 378 67 q 335 143 351 113 q 221 383 272 261 q 119 629 169 506 q 112 480 115 558 q 108 326 108 401 q 114 168 108 240 q 135 56 119 96 q 138 42 138 47 q 125 13 138 25 q 96 0 113 0 q 56 28 67 0 q 33 147 40 72 q 25 328 25 222 q 32 571 25 450 q 51 814 39 692 q 66 840 54 829 q 93 851 78 851 q 171 813 132 851 q 247 713 210 774 q 317 578 283 653 q 377 433 350 504 q 424 304 404 363 q 454 217 444 246 q 463 436 463 328 q 453 663 463 565 q 426 800 443 760 q 424 808 425 804 q 424 815 424 811 m 194 1019 q 206 1049 194 1036 q 236 1061 218 1061 q 273 1038 262 1061 q 305 986 289 1009 q 344 1036 324 1006 q 359 1051 350 1047 q 379 1055 369 1055 q 409 1043 396 1055 q 421 1013 421 1031 q 407 978 421 999 q 375 937 393 957 q 335 905 356 918 q 301 892 314 892 q 270 906 288 892 q 234 942 252 921 q 205 984 217 963 q 194 1019 194 1006 z "},"":{"ha":726,"x_min":18,"x_max":644,"o":"m 18 419 q 38 572 18 494 q 98 714 57 650 q 201 818 139 778 q 351 858 264 858 q 488 820 432 858 q 579 724 544 782 q 629 594 614 665 q 644 456 644 524 q 628 308 644 388 q 574 160 611 228 q 478 46 538 92 q 336 0 419 0 q 192 39 253 0 q 94 138 132 78 q 37 273 56 199 q 18 419 18 347 m 353 775 q 265 733 299 775 q 210 634 231 692 q 183 516 190 576 q 175 417 175 456 q 182 326 175 382 q 206 216 189 269 q 256 123 224 163 q 338 83 288 83 q 443 124 400 83 q 512 222 486 164 q 549 343 538 279 q 561 456 561 407 q 551 560 561 504 q 517 663 542 615 q 453 743 493 711 q 353 775 414 775 m 360 890 q 332 903 345 890 q 318 932 320 916 q 331 963 318 950 q 346 979 337 968 q 365 1001 355 989 q 383 1026 375 1013 q 395 1049 391 1039 q 411 1070 399 1062 q 436 1078 423 1078 q 465 1066 453 1078 q 478 1036 478 1054 q 465 1002 478 1026 q 433 953 452 979 q 394 909 414 928 q 360 890 373 890 z "},"":{"ha":726,"x_min":18,"x_max":644,"o":"m 18 419 q 38 572 18 494 q 98 714 57 650 q 201 818 139 778 q 351 858 264 858 q 488 820 432 858 q 579 724 544 782 q 629 594 614 665 q 644 456 644 524 q 628 308 644 388 q 574 160 611 228 q 478 46 538 92 q 336 0 419 0 q 192 39 253 0 q 94 138 132 78 q 37 273 56 199 q 18 419 18 347 m 353 775 q 265 733 299 775 q 210 634 231 692 q 183 516 190 576 q 175 417 175 456 q 182 326 175 382 q 206 216 189 269 q 256 123 224 163 q 338 83 288 83 q 443 124 400 83 q 512 222 486 164 q 549 343 538 279 q 561 456 561 407 q 551 560 561 504 q 517 663 542 615 q 453 743 493 711 q 353 775 414 775 m 286 890 q 257 903 270 890 q 244 932 244 915 q 257 968 244 947 q 291 1008 271 989 q 330 1041 310 1028 q 365 1054 351 1054 q 396 1039 378 1054 q 431 1002 414 1023 q 459 960 448 981 q 471 926 471 939 q 459 897 471 909 q 429 885 446 885 q 391 908 406 885 q 359 960 375 937 q 341 937 351 950 q 322 909 330 924 q 286 890 307 890 z "},"":{"ha":667,"x_min":21,"x_max":647,"o":"m 21 419 q 40 572 21 494 q 101 714 60 650 q 204 818 142 778 q 354 858 267 858 q 491 820 435 858 q 582 724 547 782 q 632 594 617 665 q 647 456 647 524 q 631 308 647 388 q 577 160 614 228 q 481 46 540 92 q 339 0 422 0 q 195 39 256 0 q 97 138 135 78 q 40 273 58 199 q 21 419 21 347 m 356 775 q 267 733 301 775 q 213 634 233 692 q 185 516 193 576 q 178 417 178 456 q 185 326 178 382 q 209 216 192 269 q 258 123 226 163 q 340 83 290 83 q 446 124 403 83 q 515 222 489 164 q 552 343 540 279 q 564 456 564 407 q 554 560 564 504 q 520 663 544 615 q 456 743 496 711 q 356 775 417 775 m 372 922 q 385 950 372 940 q 399 966 390 956 q 417 988 408 976 q 435 1013 426 1000 q 446 1035 443 1025 q 485 1061 457 1061 q 513 1049 501 1061 q 525 1021 525 1038 q 513 988 525 1011 q 482 942 500 965 q 444 900 464 918 q 413 882 425 882 q 385 894 397 882 q 372 922 374 906 m 319 1035 q 335 1054 324 1047 q 358 1061 346 1061 q 386 1049 374 1061 q 399 1021 399 1038 q 386 988 399 1011 q 356 942 374 965 q 318 900 338 918 q 286 882 299 882 q 259 894 271 882 q 246 922 247 906 q 257 950 246 939 q 272 966 263 956 q 290 988 281 976 q 308 1013 300 1000 q 319 1035 315 1025 z "},"":{"ha":726,"x_min":18,"x_max":644,"o":"m 18 419 q 38 572 18 494 q 98 714 57 650 q 201 818 139 778 q 351 858 264 858 q 488 820 432 858 q 579 724 544 782 q 629 594 614 665 q 644 456 644 524 q 628 308 644 388 q 574 160 611 228 q 478 46 538 92 q 336 0 419 0 q 192 39 253 0 q 94 138 132 78 q 37 273 56 199 q 18 419 18 347 m 353 775 q 265 733 299 775 q 210 634 231 692 q 183 516 190 576 q 175 417 175 456 q 182 326 175 382 q 206 216 189 269 q 256 123 224 163 q 338 83 288 83 q 443 124 400 83 q 512 222 486 164 q 549 343 538 279 q 561 456 561 407 q 551 560 561 504 q 517 663 542 615 q 453 743 493 711 q 353 775 414 775 m 244 938 q 256 967 244 956 q 286 979 268 979 q 316 967 304 979 q 328 938 328 956 q 316 908 328 921 q 286 896 304 896 q 256 908 268 896 q 244 938 244 921 m 369 938 q 381 967 369 956 q 411 979 393 979 q 441 967 429 979 q 453 938 453 956 q 441 908 453 921 q 411 896 429 896 q 381 908 393 896 q 369 938 369 921 z "},"":{"ha":736,"x_min":25,"x_max":647,"o":"m 307 333 q 248 335 275 333 q 192 351 221 338 q 188 208 190 281 q 176 88 185 136 q 172 60 175 75 q 161 31 168 44 q 144 10 154 18 q 117 1 133 1 q 78 19 93 1 q 56 60 64 36 q 44 110 47 85 q 38 153 40 136 q 28 271 31 204 q 25 411 25 338 q 26 500 25 449 q 31 605 26 551 q 42 708 35 658 q 61 794 49 758 q 84 838 68 818 q 128 858 100 858 q 157 847 147 858 q 172 817 167 835 q 178 781 176 800 q 181 749 179 763 q 280 827 224 797 q 397 857 336 857 q 487 840 442 857 q 567 790 532 822 q 625 715 603 758 q 647 617 647 671 q 588 467 647 528 q 433 365 529 406 q 497 306 461 343 q 563 226 532 268 q 616 142 594 183 q 638 67 638 100 q 624 22 638 43 q 582 0 610 0 q 530 24 554 0 q 489 67 506 47 q 393 197 438 129 q 307 333 349 264 m 285 415 q 376 432 338 415 q 438 478 414 449 q 474 549 463 508 q 486 639 486 590 q 483 685 486 661 q 469 728 479 708 q 441 761 460 749 q 392 774 422 774 q 334 761 363 774 q 280 728 306 749 q 233 682 254 708 q 194 628 211 656 q 188 618 193 624 q 190 534 189 576 q 192 450 190 492 q 285 415 231 415 m 301 1019 q 313 1049 301 1036 q 343 1061 325 1061 q 380 1038 369 1061 q 412 986 396 1009 q 451 1036 431 1006 q 466 1051 457 1047 q 486 1055 476 1055 q 516 1043 503 1055 q 528 1013 528 1031 q 514 978 528 999 q 482 937 500 957 q 442 905 463 918 q 408 892 421 892 q 377 906 395 892 q 341 942 359 921 q 312 984 324 963 q 301 1019 301 1006 z "},"":{"ha":735,"x_min":22,"x_max":644,"o":"m 644 475 q 642 381 644 435 q 635 272 640 328 q 622 162 631 215 q 599 69 613 108 q 591 53 596 64 q 578 31 586 42 q 558 13 569 21 q 529 4 546 4 q 493 20 506 4 q 476 59 481 36 q 471 106 471 82 q 471 144 471 129 q 472 229 471 181 q 476 344 474 278 q 477 356 476 351 q 478 368 478 361 q 447 265 467 328 q 399 144 428 203 q 330 42 369 85 q 238 0 290 0 q 156 30 190 0 q 99 107 122 60 q 60 213 75 154 q 36 329 44 271 q 25 438 28 388 q 22 521 22 489 q 23 572 22 539 q 27 642 24 604 q 38 720 31 681 q 59 792 46 760 q 92 845 72 825 q 139 865 111 865 q 171 852 160 865 q 186 821 182 839 q 191 783 190 803 q 192 749 192 763 q 188 614 192 701 q 185 511 186 565 q 183 403 183 457 q 184 353 183 385 q 187 287 185 322 q 193 215 189 251 q 203 150 197 179 q 219 102 210 121 q 240 83 228 83 q 274 104 250 83 q 328 189 297 125 q 382 333 357 251 q 426 501 407 415 q 458 672 444 588 q 479 825 471 757 q 494 851 482 840 q 521 863 506 863 q 564 849 546 863 q 594 814 582 835 q 614 769 607 793 q 625 724 621 744 q 640 596 636 664 q 644 475 644 528 m 247 993 q 255 1038 247 1017 q 277 1076 263 1060 q 311 1103 292 1093 q 356 1114 331 1114 q 422 1081 399 1114 q 444 1008 444 1047 q 415 926 444 961 q 336 892 385 892 q 270 923 293 892 q 247 993 247 954 m 356 1058 q 316 1038 329 1058 q 303 993 303 1017 q 310 963 303 978 q 336 947 317 947 q 375 966 361 947 q 389 1008 389 985 q 381 1041 389 1024 q 356 1058 374 1058 z "},"":{"ha":735,"x_min":22,"x_max":644,"o":"m 644 475 q 642 381 644 435 q 635 272 640 328 q 622 162 631 215 q 599 69 613 108 q 591 53 596 64 q 578 31 586 42 q 558 13 569 21 q 529 4 546 4 q 493 20 506 4 q 476 59 481 36 q 471 106 471 82 q 471 144 471 129 q 472 229 471 181 q 476 344 474 278 q 477 356 476 351 q 478 368 478 361 q 447 265 467 328 q 399 144 428 203 q 330 42 369 85 q 238 0 290 0 q 156 30 190 0 q 99 107 122 60 q 60 213 75 154 q 36 329 44 271 q 25 438 28 388 q 22 521 22 489 q 23 572 22 539 q 27 642 24 604 q 38 720 31 681 q 59 792 46 760 q 92 845 72 825 q 139 865 111 865 q 171 852 160 865 q 186 821 182 839 q 191 783 190 803 q 192 749 192 763 q 188 614 192 701 q 185 511 186 565 q 183 403 183 457 q 184 353 183 385 q 187 287 185 322 q 193 215 189 251 q 203 150 197 179 q 219 102 210 121 q 240 83 228 83 q 274 104 250 83 q 328 189 297 125 q 382 333 357 251 q 426 501 407 415 q 458 672 444 588 q 479 825 471 757 q 494 851 482 840 q 521 863 506 863 q 564 849 546 863 q 594 814 582 835 q 614 769 607 793 q 625 724 621 744 q 640 596 636 664 q 644 475 644 528 m 347 890 q 318 903 331 890 q 305 932 306 916 q 318 963 305 950 q 332 979 323 968 q 351 1001 341 989 q 369 1026 361 1013 q 381 1049 377 1039 q 397 1070 386 1062 q 422 1078 409 1078 q 451 1066 439 1078 q 464 1036 464 1054 q 451 1002 464 1026 q 419 953 438 979 q 380 909 400 928 q 347 890 360 890 z "},"":{"ha":668,"x_min":22,"x_max":644,"o":"m 188 614 q 185 511 186 565 q 183 403 183 457 q 184 353 183 385 q 187 287 185 322 q 193 215 189 251 q 203 150 197 179 q 219 102 210 121 q 240 83 228 83 q 274 104 250 83 q 328 189 297 125 q 382 333 357 251 q 426 501 407 415 q 458 672 444 588 q 479 825 471 757 q 494 851 482 840 q 521 863 506 863 q 564 849 546 863 q 594 814 582 835 q 614 769 607 793 q 625 724 621 744 q 640 596 636 664 q 644 475 644 528 q 642 381 644 435 q 635 272 640 328 q 622 162 631 215 q 599 69 613 108 q 591 53 596 64 q 578 31 586 42 q 558 13 569 21 q 529 4 546 4 q 493 20 506 4 q 476 59 481 36 q 471 106 471 82 q 471 144 471 129 q 472 229 471 181 q 476 344 474 278 q 477 356 476 351 q 478 368 478 361 q 447 265 467 328 q 399 144 428 203 q 330 42 369 85 q 238 0 290 0 q 156 30 190 0 q 99 107 122 60 q 60 213 75 154 q 36 329 44 271 q 25 438 28 388 q 22 521 22 489 q 23 572 22 539 q 27 642 24 604 q 38 720 31 681 q 59 792 46 760 q 92 845 72 825 q 139 865 111 865 q 171 852 160 865 q 186 821 182 839 q 191 783 190 803 q 192 749 192 763 q 188 614 192 701 m 229 922 q 242 950 229 940 q 256 966 247 956 q 274 988 265 976 q 292 1013 283 1000 q 303 1035 300 1025 q 342 1061 314 1061 q 370 1049 358 1061 q 382 1021 382 1038 q 369 988 382 1011 q 339 942 357 965 q 301 900 321 918 q 269 882 282 882 q 242 894 254 882 q 229 922 231 906 m 356 922 q 368 950 358 940 q 383 966 374 956 q 401 988 392 976 q 418 1013 410 1000 q 431 1035 426 1025 q 445 1054 435 1047 q 468 1061 456 1061 q 497 1049 485 1061 q 508 1021 508 1038 q 496 988 508 1011 q 465 942 483 965 q 428 900 447 918 q 397 882 410 882 q 369 894 381 882 q 356 922 357 906 z "},"":{"ha":735,"x_min":22,"x_max":644,"o":"m 644 475 q 642 381 644 435 q 635 272 640 328 q 622 162 631 215 q 599 69 613 108 q 591 53 596 64 q 578 31 586 42 q 558 13 569 21 q 529 4 546 4 q 493 20 506 4 q 476 59 481 36 q 471 106 471 82 q 471 144 471 129 q 472 229 471 181 q 476 344 474 278 q 477 356 476 351 q 478 368 478 361 q 447 265 467 328 q 399 144 428 203 q 330 42 369 85 q 238 0 290 0 q 156 30 190 0 q 99 107 122 60 q 60 213 75 154 q 36 329 44 271 q 25 438 28 388 q 22 521 22 489 q 23 572 22 539 q 27 642 24 604 q 38 720 31 681 q 59 792 46 760 q 92 845 72 825 q 139 865 111 865 q 171 852 160 865 q 186 821 182 839 q 191 783 190 803 q 192 749 192 763 q 188 614 192 701 q 185 511 186 565 q 183 403 183 457 q 184 353 183 385 q 187 287 185 322 q 193 215 189 251 q 203 150 197 179 q 219 102 210 121 q 240 83 228 83 q 274 104 250 83 q 328 189 297 125 q 382 333 357 251 q 426 501 407 415 q 458 672 444 588 q 479 825 471 757 q 494 851 482 840 q 521 863 506 863 q 564 849 546 863 q 594 814 582 835 q 614 769 607 793 q 625 724 621 744 q 640 596 636 664 q 644 475 644 528 m 232 938 q 244 967 232 956 q 274 979 256 979 q 303 967 292 979 q 315 938 315 956 q 303 908 315 921 q 274 896 292 896 q 244 908 256 896 q 232 938 232 921 m 357 938 q 369 967 357 956 q 399 979 381 979 q 428 967 417 979 q 440 938 440 956 q 428 908 440 921 q 399 896 417 896 q 369 908 381 896 q 357 938 357 921 z "},"":{"ha":622,"x_min":14,"x_max":572,"o":"m 196 0 q 166 12 178 0 q 154 42 154 24 q 166 72 154 60 q 194 83 178 83 q 216 100 204 83 q 240 140 228 117 q 260 185 251 163 q 274 217 269 207 q 226 299 253 251 q 169 401 199 347 q 113 513 140 456 q 63 624 85 569 q 27 728 40 679 q 14 814 14 778 q 26 843 14 831 q 56 856 38 856 q 85 843 74 856 q 97 814 97 831 q 118 715 97 775 q 171 585 139 654 q 240 447 203 517 q 310 318 276 376 q 353 463 333 389 q 392 604 374 538 q 400 640 394 617 q 413 690 406 663 q 429 747 419 718 q 451 801 439 776 q 476 840 463 825 q 506 856 489 856 q 540 845 526 856 q 560 819 553 835 q 570 784 568 803 q 572 749 572 765 q 560 633 572 706 q 523 478 547 561 q 465 310 499 394 q 390 156 432 225 q 299 44 347 88 q 196 0 250 0 m 278 890 q 250 903 263 890 q 237 932 238 916 q 250 963 237 950 q 264 979 255 968 q 283 1001 273 989 q 301 1026 293 1013 q 313 1049 309 1039 q 329 1070 318 1062 q 354 1078 341 1078 q 383 1066 371 1078 q 396 1036 396 1054 q 383 1002 396 1026 q 351 953 370 979 q 312 909 332 928 q 278 890 291 890 z "},"":{"ha":582,"x_min":18,"x_max":503,"o":"m 494 -3 q 481 -31 493 -19 q 453 -42 469 -42 q 411 -25 428 -42 q 384 15 394 -8 q 369 65 374 39 q 361 110 364 92 q 353 206 356 154 q 350 317 351 258 q 292 308 324 313 q 227 298 260 303 q 164 290 194 293 q 110 283 133 286 q 101 126 101 200 q 106 47 101 83 q 94 15 106 28 q 64 1 83 1 q 37 12 49 1 q 22 39 25 22 q 18 126 18 76 q 23 233 18 164 q 39 383 28 301 q 69 549 50 464 q 119 703 89 633 q 191 816 150 772 q 288 860 232 860 q 378 824 342 860 q 439 731 415 788 q 476 603 463 674 q 495 464 489 533 q 502 335 501 394 q 503 240 503 276 q 501 147 503 190 q 499 71 500 103 q 496 19 497 39 q 494 -3 494 -1 m 119 368 q 172 374 143 371 q 231 382 200 378 q 291 392 261 386 q 347 401 321 397 q 342 542 346 474 q 331 665 339 610 q 326 689 329 671 q 317 726 322 707 q 303 761 311 746 q 288 776 296 776 q 243 751 264 776 q 204 687 222 726 q 172 599 186 647 q 147 506 157 551 q 129 423 136 460 q 119 368 122 386 m 294 890 q 261 909 281 890 q 222 953 240 928 q 190 1002 203 979 q 177 1036 177 1026 q 189 1066 177 1054 q 219 1078 201 1078 q 243 1070 232 1078 q 259 1049 255 1062 q 272 1026 264 1039 q 290 1001 280 1013 q 309 979 300 989 q 324 963 319 968 q 336 932 336 948 q 322 903 334 916 q 294 890 310 890 z "},"":{"ha":582,"x_min":18,"x_max":503,"o":"m 494 -3 q 481 -31 493 -19 q 453 -42 469 -42 q 411 -25 428 -42 q 384 15 394 -8 q 369 65 374 39 q 361 110 364 92 q 353 206 356 154 q 350 317 351 258 q 292 308 324 313 q 227 298 260 303 q 164 290 194 293 q 110 283 133 286 q 101 126 101 200 q 106 47 101 83 q 94 15 106 28 q 64 1 83 1 q 37 12 49 1 q 22 39 25 22 q 18 126 18 76 q 23 233 18 164 q 39 383 28 301 q 69 549 50 464 q 119 703 89 633 q 191 816 150 772 q 288 860 232 860 q 378 824 342 860 q 439 731 415 788 q 476 603 463 674 q 495 464 489 533 q 502 335 501 394 q 503 240 503 276 q 501 147 503 190 q 499 71 500 103 q 496 19 497 39 q 494 -3 494 -1 m 119 368 q 172 374 143 371 q 231 382 200 378 q 291 392 261 386 q 347 401 321 397 q 342 542 346 474 q 331 665 339 610 q 326 689 329 671 q 317 726 322 707 q 303 761 311 746 q 288 776 296 776 q 243 751 264 776 q 204 687 222 726 q 172 599 186 647 q 147 506 157 551 q 129 423 136 460 q 119 368 122 386 m 239 934 q 235 926 238 934 q 220 900 232 911 q 193 890 209 890 q 163 903 176 890 q 151 932 151 915 q 178 993 151 968 q 239 1018 206 1018 q 282 1008 261 1018 q 319 981 303 999 q 339 973 327 973 q 352 1000 340 989 q 381 1012 364 1012 q 411 1000 398 1012 q 423 970 423 987 q 401 910 423 932 q 342 887 380 887 q 293 899 317 887 q 255 926 270 911 q 239 934 248 934 z "},"":{"ha":583,"x_min":21,"x_max":539,"o":"m 279 0 q 142 22 207 0 q 96 59 115 31 q 63 126 76 88 q 42 211 50 165 q 28 300 33 257 q 22 380 24 343 q 21 438 21 417 q 24 535 21 486 q 39 632 28 583 q 74 751 54 706 q 124 821 93 796 q 202 855 156 846 q 318 864 249 864 q 422 859 375 864 q 479 851 468 854 q 502 838 494 849 q 510 811 510 826 q 498 782 510 794 q 468 769 486 769 q 463 770 465 769 q 458 771 461 771 q 407 777 447 774 q 318 781 367 781 q 286 780 306 781 q 246 777 267 779 q 206 771 225 775 q 176 760 188 767 q 176 741 176 751 q 178 715 176 731 q 182 440 178 578 l 221 440 q 260 441 236 440 q 310 444 285 442 q 358 449 336 446 q 388 457 379 451 q 413 465 400 465 q 442 453 431 465 q 454 424 454 442 q 438 390 454 403 q 393 372 421 378 q 334 362 365 365 q 272 358 303 358 q 219 357 242 357 l 183 357 q 192 94 183 226 q 235 85 214 88 q 278 83 257 83 q 396 102 344 83 q 472 139 447 121 q 497 147 485 147 q 526 135 514 147 q 539 106 539 122 q 508 60 539 79 q 433 27 476 40 q 347 7 390 14 q 279 0 304 0 m 329 890 q 295 909 316 890 q 256 953 275 928 q 225 1002 238 979 q 212 1036 212 1026 q 224 1066 212 1054 q 253 1078 236 1078 q 278 1070 266 1078 q 294 1049 290 1062 q 306 1026 298 1039 q 324 1001 314 1013 q 344 979 334 989 q 359 963 353 968 q 371 932 371 948 q 357 903 369 916 q 329 890 345 890 z "},"":{"ha":583,"x_min":21,"x_max":539,"o":"m 279 0 q 142 22 207 0 q 96 59 115 31 q 63 126 76 88 q 42 211 50 165 q 28 300 33 257 q 22 380 24 343 q 21 438 21 417 q 24 535 21 486 q 39 632 28 583 q 74 751 54 706 q 124 821 93 796 q 202 855 156 846 q 318 864 249 864 q 422 859 375 864 q 479 851 468 854 q 502 838 494 849 q 510 811 510 826 q 498 782 510 794 q 468 769 486 769 q 463 770 465 769 q 458 771 461 771 q 407 777 447 774 q 318 781 367 781 q 286 780 306 781 q 246 777 267 779 q 206 771 225 775 q 176 760 188 767 q 176 741 176 751 q 178 715 176 731 q 182 440 178 578 l 221 440 q 260 441 236 440 q 310 444 285 442 q 358 449 336 446 q 388 457 379 451 q 413 465 400 465 q 442 453 431 465 q 454 424 454 442 q 438 390 454 403 q 393 372 421 378 q 334 362 365 365 q 272 358 303 358 q 219 357 242 357 l 183 357 q 192 94 183 226 q 235 85 214 88 q 278 83 257 83 q 396 102 344 83 q 472 139 447 121 q 497 147 485 147 q 526 135 514 147 q 539 106 539 122 q 508 60 539 79 q 433 27 476 40 q 347 7 390 14 q 279 0 304 0 m 254 890 q 225 903 238 890 q 212 932 212 915 q 225 968 212 947 q 259 1008 239 989 q 299 1041 278 1028 q 333 1054 319 1054 q 364 1039 346 1054 q 399 1002 382 1023 q 427 960 416 981 q 439 926 439 939 q 427 897 439 909 q 397 885 414 885 q 359 908 374 885 q 327 960 343 937 q 309 937 319 950 q 290 909 299 924 q 254 890 275 890 z "},"":{"ha":508,"x_min":15,"x_max":475,"o":"m 29 813 q 42 844 29 833 q 75 854 56 854 q 107 853 89 853 q 142 851 122 851 q 188 850 163 850 q 208 851 201 850 q 225 858 217 857 q 239 860 233 860 q 263 853 251 860 q 323 856 292 854 q 386 863 354 858 q 392 864 388 864 q 422 851 410 864 q 433 822 433 839 q 423 795 433 807 q 397 781 413 783 q 342 774 369 776 q 289 771 315 772 q 301 579 299 675 q 303 388 303 483 q 302 309 303 350 q 300 228 301 268 q 296 151 299 188 q 289 85 293 114 q 360 90 325 88 q 428 96 394 92 q 431 97 429 96 q 433 97 432 97 q 463 85 451 97 q 475 56 475 72 q 465 28 475 40 q 439 14 454 17 q 349 5 394 7 q 258 1 303 3 q 242 -9 250 -7 q 228 -11 233 -11 q 213 -9 221 -11 q 194 0 204 -7 q 97 3 136 1 q 54 4 57 4 q 26 19 38 7 q 15 46 15 31 q 28 76 15 65 q 60 88 42 88 q 88 86 61 88 q 158 85 114 85 q 140 245 143 164 q 136 406 136 326 q 140 586 136 493 q 164 767 144 679 q 67 772 76 769 q 40 785 51 774 q 29 813 29 797 m 245 890 q 212 909 232 890 q 173 953 192 928 q 141 1002 154 979 q 128 1036 128 1026 q 140 1066 128 1054 q 170 1078 153 1078 q 195 1070 183 1078 q 211 1049 206 1062 q 223 1026 215 1039 q 241 1001 231 1013 q 261 979 251 989 q 276 963 270 968 q 287 932 287 948 q 274 903 286 916 q 245 890 261 890 z "},"":{"ha":508,"x_min":15,"x_max":475,"o":"m 29 813 q 42 844 29 833 q 75 854 56 854 q 107 853 89 853 q 142 851 122 851 q 188 850 163 850 q 208 851 201 850 q 225 858 217 857 q 239 860 233 860 q 263 853 251 860 q 323 856 292 854 q 386 863 354 858 q 392 864 388 864 q 422 851 410 864 q 433 822 433 839 q 423 795 433 807 q 397 781 413 783 q 342 774 369 776 q 289 771 315 772 q 301 579 299 675 q 303 388 303 483 q 302 309 303 350 q 300 228 301 268 q 296 151 299 188 q 289 85 293 114 q 360 90 325 88 q 428 96 394 92 q 431 97 429 96 q 433 97 432 97 q 463 85 451 97 q 475 56 475 72 q 465 28 475 40 q 439 14 454 17 q 349 5 394 7 q 258 1 303 3 q 242 -9 250 -7 q 228 -11 233 -11 q 213 -9 221 -11 q 194 0 204 -7 q 97 3 136 1 q 54 4 57 4 q 26 19 38 7 q 15 46 15 31 q 28 76 15 65 q 60 88 42 88 q 88 86 61 88 q 158 85 114 85 q 140 245 143 164 q 136 406 136 326 q 140 586 136 493 q 164 767 144 679 q 67 772 76 769 q 40 785 51 774 q 29 813 29 797 m 135 938 q 147 967 135 956 q 176 979 158 979 q 206 967 194 979 q 218 938 218 956 q 206 908 218 921 q 176 896 194 896 q 147 908 158 896 q 135 938 135 921 m 260 938 q 272 967 260 956 q 301 979 283 979 q 331 967 319 979 q 343 938 343 956 q 331 908 343 921 q 301 896 319 896 q 272 908 283 896 q 260 938 260 921 z "},"":{"ha":646,"x_min":25,"x_max":546,"o":"m 424 815 q 436 845 424 833 q 465 857 449 857 q 504 831 493 857 q 526 744 518 797 q 539 634 535 692 q 544 522 543 576 q 546 431 546 468 q 545 378 546 411 q 543 303 544 344 q 539 219 542 263 q 531 138 536 176 q 519 68 526 99 q 501 24 511 38 q 460 0 488 0 q 419 17 436 0 q 389 50 401 33 q 365 90 378 67 q 335 143 351 113 q 221 383 272 261 q 119 629 169 506 q 112 480 115 558 q 108 326 108 401 q 114 168 108 240 q 135 56 119 96 q 138 42 138 47 q 125 13 138 25 q 96 0 113 0 q 56 28 67 0 q 33 147 40 72 q 25 328 25 222 q 32 571 25 450 q 51 814 39 692 q 66 840 54 829 q 93 851 78 851 q 171 813 132 851 q 247 713 210 774 q 317 578 283 653 q 377 433 350 504 q 424 304 404 363 q 454 217 444 246 q 463 436 463 328 q 453 663 463 565 q 426 800 443 760 q 424 808 425 804 q 424 815 424 811 m 249 934 q 245 926 247 934 q 230 900 242 911 q 203 890 219 890 q 173 903 185 890 q 161 932 161 915 q 188 993 161 968 q 249 1018 216 1018 q 292 1008 271 1018 q 328 981 313 999 q 349 973 337 973 q 362 1000 350 989 q 391 1012 373 1012 q 420 1000 408 1012 q 433 970 433 987 q 411 910 433 932 q 352 887 389 887 q 303 899 327 887 q 265 926 279 911 q 249 934 258 934 z "},"":{"ha":726,"x_min":18,"x_max":644,"o":"m 18 419 q 38 572 18 494 q 98 714 57 650 q 201 818 139 778 q 351 858 264 858 q 488 820 432 858 q 579 724 544 782 q 629 594 614 665 q 644 456 644 524 q 628 308 644 388 q 574 160 611 228 q 478 46 538 92 q 336 0 419 0 q 192 39 253 0 q 94 138 132 78 q 37 273 56 199 q 18 419 18 347 m 353 775 q 265 733 299 775 q 210 634 231 692 q 183 516 190 576 q 175 417 175 456 q 182 326 175 382 q 206 216 189 269 q 256 123 224 163 q 338 83 288 83 q 443 124 400 83 q 512 222 486 164 q 549 343 538 279 q 561 456 561 407 q 551 560 561 504 q 517 663 542 615 q 453 743 493 711 q 353 775 414 775 m 359 890 q 326 909 346 890 q 287 953 306 928 q 255 1002 268 979 q 242 1036 242 1026 q 254 1066 242 1054 q 284 1078 267 1078 q 309 1070 297 1078 q 325 1049 320 1062 q 337 1026 329 1039 q 355 1001 345 1013 q 374 979 365 989 q 390 963 384 968 q 401 932 401 948 q 387 903 400 916 q 359 890 375 890 z "},"":{"ha":726,"x_min":18,"x_max":644,"o":"m 18 419 q 38 572 18 494 q 98 714 57 650 q 201 818 139 778 q 351 858 264 858 q 488 820 432 858 q 579 724 544 782 q 629 594 614 665 q 644 456 644 524 q 628 308 644 388 q 574 160 611 228 q 478 46 538 92 q 336 0 419 0 q 192 39 253 0 q 94 138 132 78 q 37 273 56 199 q 18 419 18 347 m 353 775 q 265 733 299 775 q 210 634 231 692 q 183 516 190 576 q 175 417 175 456 q 182 326 175 382 q 206 216 189 269 q 256 123 224 163 q 338 83 288 83 q 443 124 400 83 q 512 222 486 164 q 549 343 538 279 q 561 456 561 407 q 551 560 561 504 q 517 663 542 615 q 453 743 493 711 q 353 775 414 775 m 306 934 q 302 926 304 934 q 287 900 299 911 q 260 890 275 890 q 230 903 242 890 q 218 932 218 915 q 245 993 218 968 q 306 1018 273 1018 q 349 1008 328 1018 q 385 981 370 999 q 406 973 394 973 q 419 1000 407 989 q 448 1012 430 1012 q 477 1000 465 1012 q 490 970 490 987 q 468 910 490 932 q 409 887 446 887 q 360 899 384 887 q 322 926 336 911 q 306 934 315 934 z "},"":{"ha":735,"x_min":22,"x_max":644,"o":"m 644 475 q 642 381 644 435 q 635 272 640 328 q 622 162 631 215 q 599 69 613 108 q 591 53 596 64 q 578 31 586 42 q 558 13 569 21 q 529 4 546 4 q 493 20 506 4 q 476 59 481 36 q 471 106 471 82 q 471 144 471 129 q 472 229 471 181 q 476 344 474 278 q 477 356 476 351 q 478 368 478 361 q 447 265 467 328 q 399 144 428 203 q 330 42 369 85 q 238 0 290 0 q 156 30 190 0 q 99 107 122 60 q 60 213 75 154 q 36 329 44 271 q 25 438 28 388 q 22 521 22 489 q 23 572 22 539 q 27 642 24 604 q 38 720 31 681 q 59 792 46 760 q 92 845 72 825 q 139 865 111 865 q 171 852 160 865 q 186 821 182 839 q 191 783 190 803 q 192 749 192 763 q 188 614 192 701 q 185 511 186 565 q 183 403 183 457 q 184 353 183 385 q 187 287 185 322 q 193 215 189 251 q 203 150 197 179 q 219 102 210 121 q 240 83 228 83 q 274 104 250 83 q 328 189 297 125 q 382 333 357 251 q 426 501 407 415 q 458 672 444 588 q 479 825 471 757 q 494 851 482 840 q 521 863 506 863 q 564 849 546 863 q 594 814 582 835 q 614 769 607 793 q 625 724 621 744 q 640 596 636 664 q 644 475 644 528 m 345 890 q 312 909 332 890 q 273 953 292 928 q 241 1002 254 979 q 228 1036 228 1026 q 240 1066 228 1054 q 270 1078 253 1078 q 295 1070 283 1078 q 311 1049 306 1062 q 323 1026 315 1039 q 341 1001 331 1013 q 361 979 351 989 q 376 963 370 968 q 387 932 387 948 q 374 903 386 916 q 345 890 361 890 z "},"":{"ha":735,"x_min":22,"x_max":644,"o":"m 644 475 q 642 381 644 435 q 635 272 640 328 q 622 162 631 215 q 599 69 613 108 q 591 53 596 64 q 578 31 586 42 q 558 13 569 21 q 529 4 546 4 q 493 20 506 4 q 476 59 481 36 q 471 106 471 82 q 471 144 471 129 q 472 229 471 181 q 476 344 474 278 q 477 356 476 351 q 478 368 478 361 q 447 265 467 328 q 399 144 428 203 q 330 42 369 85 q 238 0 290 0 q 156 30 190 0 q 99 107 122 60 q 60 213 75 154 q 36 329 44 271 q 25 438 28 388 q 22 521 22 489 q 23 572 22 539 q 27 642 24 604 q 38 720 31 681 q 59 792 46 760 q 92 845 72 825 q 139 865 111 865 q 171 852 160 865 q 186 821 182 839 q 191 783 190 803 q 192 749 192 763 q 188 614 192 701 q 185 511 186 565 q 183 403 183 457 q 184 353 183 385 q 187 287 185 322 q 193 215 189 251 q 203 150 197 179 q 219 102 210 121 q 240 83 228 83 q 274 104 250 83 q 328 189 297 125 q 382 333 357 251 q 426 501 407 415 q 458 672 444 588 q 479 825 471 757 q 494 851 482 840 q 521 863 506 863 q 564 849 546 863 q 594 814 582 835 q 614 769 607 793 q 625 724 621 744 q 640 596 636 664 q 644 475 644 528 m 272 890 q 243 903 256 890 q 230 932 230 915 q 244 968 230 947 q 277 1008 257 989 q 317 1041 296 1028 q 351 1054 337 1054 q 382 1039 364 1054 q 417 1002 401 1023 q 445 960 434 981 q 457 926 457 939 q 445 897 457 909 q 415 885 432 885 q 377 908 392 885 q 346 960 361 937 q 327 937 337 950 q 308 909 317 924 q 272 890 293 890 z "},"":{"ha":582,"x_min":18,"x_max":503,"o":"m 494 -3 q 481 -31 493 -19 q 453 -42 469 -42 q 411 -25 428 -42 q 384 15 394 -8 q 369 65 374 39 q 361 110 364 92 q 353 206 356 154 q 350 317 351 258 q 292 308 324 313 q 227 298 260 303 q 164 290 194 293 q 110 283 133 286 q 101 126 101 200 q 106 47 101 83 q 94 15 106 28 q 64 1 83 1 q 37 12 49 1 q 22 39 25 22 q 18 126 18 76 q 23 233 18 164 q 39 383 28 301 q 69 549 50 464 q 119 703 89 633 q 191 816 150 772 q 288 860 232 860 q 378 824 342 860 q 439 731 415 788 q 476 603 463 674 q 495 464 489 533 q 502 335 501 394 q 503 240 503 276 q 501 147 503 190 q 499 71 500 103 q 496 19 497 39 q 494 -3 494 -1 m 119 368 q 172 374 143 371 q 231 382 200 378 q 291 392 261 386 q 347 401 321 397 q 342 542 346 474 q 331 665 339 610 q 326 689 329 671 q 317 726 322 707 q 303 761 311 746 q 288 776 296 776 q 243 751 264 776 q 204 687 222 726 q 172 599 186 647 q 147 506 157 551 q 129 423 136 460 q 119 368 122 386 m 197 993 q 205 1038 197 1017 q 227 1076 213 1060 q 261 1103 242 1093 q 306 1114 281 1114 q 372 1081 349 1114 q 394 1008 394 1047 q 365 926 394 961 q 286 892 335 892 q 220 923 243 892 q 197 993 197 954 m 306 1058 q 266 1038 279 1058 q 253 993 253 1017 q 260 963 253 978 q 286 947 267 947 q 325 966 311 947 q 339 1008 339 985 q 331 1041 339 1024 q 306 1058 324 1058 z "},"":{"ha":611,"x_min":13,"x_max":567,"o":"m 467 749 q 443 756 454 749 q 365 775 413 775 q 289 753 319 775 q 258 672 258 731 q 297 567 258 607 q 386 493 335 526 q 450 449 418 471 q 508 397 482 426 q 551 331 535 368 q 567 243 567 294 q 541 133 567 179 q 475 58 515 88 q 385 14 435 28 q 285 0 335 0 q 141 27 211 0 q 25 101 71 54 q 13 131 13 114 q 25 160 13 149 q 54 172 38 172 q 83 160 71 172 q 174 104 119 125 q 283 83 228 83 q 380 118 353 83 q 407 208 407 153 q 397 276 407 246 q 372 331 388 307 q 335 374 356 354 q 290 410 314 393 q 223 455 257 433 q 161 502 189 476 q 116 560 133 528 q 99 639 99 593 q 125 737 99 696 q 191 805 151 778 q 276 845 231 832 q 358 858 321 858 q 402 855 376 858 q 451 844 428 851 q 492 823 475 836 q 508 790 508 810 q 496 761 508 774 q 467 749 483 749 m 259 1019 q 271 1049 259 1036 q 301 1061 284 1061 q 339 1038 327 1061 q 370 986 355 1009 q 409 1036 389 1006 q 425 1051 415 1047 q 444 1055 434 1055 q 474 1043 462 1055 q 486 1013 486 1031 q 472 978 486 999 q 440 937 459 957 q 400 905 421 918 q 366 892 379 892 q 335 906 353 892 q 300 942 317 921 q 271 984 282 963 q 259 1019 259 1006 z "},"":{"ha":611,"x_min":13,"x_max":567,"o":"m 467 749 q 443 756 454 749 q 365 775 413 775 q 289 753 319 775 q 258 672 258 731 q 297 567 258 607 q 386 493 335 526 q 450 449 418 471 q 508 397 482 426 q 551 331 535 368 q 567 243 567 294 q 541 133 567 179 q 475 58 515 88 q 385 14 435 28 q 285 0 335 0 q 141 27 211 0 q 25 101 71 54 q 13 131 13 114 q 25 160 13 149 q 54 172 38 172 q 83 160 71 172 q 174 104 119 125 q 283 83 228 83 q 380 118 353 83 q 407 208 407 153 q 397 276 407 246 q 372 331 388 307 q 335 374 356 354 q 290 410 314 393 q 223 455 257 433 q 161 502 189 476 q 116 560 133 528 q 99 639 99 593 q 125 737 99 696 q 191 805 151 778 q 276 845 231 832 q 358 858 321 858 q 402 855 376 858 q 451 844 428 851 q 492 823 475 836 q 508 790 508 810 q 496 761 508 774 q 467 749 483 749 m 370 890 q 342 903 354 890 q 328 932 330 916 q 341 963 328 950 q 356 979 347 968 q 374 1001 364 989 q 393 1026 385 1013 q 405 1049 401 1039 q 421 1070 409 1062 q 445 1078 432 1078 q 475 1066 463 1078 q 487 1036 487 1054 q 474 1002 487 1026 q 442 953 461 979 q 403 909 424 928 q 370 890 383 890 z "},"":{"ha":493,"x_min":10,"x_max":469,"o":"m 10 814 q 21 842 10 829 q 49 856 32 854 q 91 858 51 856 q 189 860 131 860 q 207 869 199 867 q 222 871 215 871 q 236 869 228 871 q 253 858 244 867 q 343 855 297 857 q 433 846 389 853 q 459 832 449 843 q 469 806 469 821 q 458 776 469 789 q 431 763 447 763 q 428 764 429 763 q 357 769 394 767 q 283 775 319 772 q 290 709 288 746 q 294 632 293 672 q 297 551 296 592 q 297 472 297 510 q 295 267 297 376 q 281 63 293 158 q 269 21 278 42 q 233 0 261 0 q 187 28 206 0 q 156 101 168 57 q 139 198 144 144 q 132 302 133 251 q 131 394 131 353 q 131 454 131 435 q 134 615 131 535 q 153 775 138 696 q 81 774 108 775 q 51 772 53 772 q 22 784 33 772 q 10 814 10 796 m 119 1019 q 131 1049 119 1036 q 161 1061 143 1061 q 198 1038 187 1061 q 230 986 214 1009 q 269 1036 249 1006 q 284 1051 275 1047 q 304 1055 294 1055 q 334 1043 321 1055 q 346 1013 346 1031 q 332 978 346 999 q 300 937 318 957 q 260 905 281 918 q 226 892 239 892 q 195 906 213 892 q 159 942 177 921 q 130 984 142 963 q 119 1019 119 1006 z "},"":{"ha":646,"x_min":14,"x_max":607,"o":"m 442 774 q 416 778 433 776 q 368 781 399 781 q 261 775 315 781 q 154 761 207 769 q 120 771 135 761 q 106 803 106 781 q 115 829 106 818 q 140 843 125 840 q 253 858 197 853 q 368 864 310 864 q 435 860 403 864 q 493 842 468 856 q 533 803 518 828 q 547 738 547 779 q 526 643 547 690 q 481 556 504 596 q 383 417 439 488 q 274 281 326 347 q 192 181 229 228 q 142 107 156 135 q 212 88 174 92 q 285 83 250 83 q 365 88 325 83 q 439 101 404 93 q 500 118 474 108 q 539 139 526 128 q 565 149 550 149 q 595 136 583 149 q 607 107 607 124 q 567 56 607 76 q 475 24 528 36 q 369 6 422 11 q 286 0 315 0 q 206 6 253 0 q 117 27 160 11 q 44 72 75 43 q 14 144 14 100 q 31 205 14 168 q 93 308 47 242 q 175 419 129 361 q 268 538 221 478 q 336 623 304 582 q 393 700 368 664 q 426 747 415 729 q 442 774 438 764 m 231 1019 q 244 1049 231 1036 q 273 1061 256 1061 q 311 1038 299 1061 q 343 986 327 1009 q 382 1036 361 1006 q 397 1051 388 1047 q 416 1055 406 1055 q 446 1043 434 1055 q 458 1013 458 1031 q 445 978 458 999 q 412 937 431 957 q 372 905 393 918 q 338 892 351 892 q 307 906 325 892 q 272 942 289 921 q 243 984 254 963 q 231 1019 231 1006 z "},"":{"ha":646,"x_min":14,"x_max":607,"o":"m 442 774 q 416 778 433 776 q 368 781 399 781 q 261 775 315 781 q 154 761 207 769 q 120 771 135 761 q 106 803 106 781 q 115 829 106 818 q 140 843 125 840 q 253 858 197 853 q 368 864 310 864 q 435 860 403 864 q 493 842 468 856 q 533 803 518 828 q 547 738 547 779 q 526 643 547 690 q 481 556 504 596 q 383 417 439 488 q 274 281 326 347 q 192 181 229 228 q 142 107 156 135 q 212 88 174 92 q 285 83 250 83 q 365 88 325 83 q 439 101 404 93 q 500 118 474 108 q 539 139 526 128 q 565 149 550 149 q 595 136 583 149 q 607 107 607 124 q 567 56 607 76 q 475 24 528 36 q 369 6 422 11 q 286 0 315 0 q 206 6 253 0 q 117 27 160 11 q 44 72 75 43 q 14 144 14 100 q 31 205 14 168 q 93 308 47 242 q 175 419 129 361 q 268 538 221 478 q 336 623 304 582 q 393 700 368 664 q 426 747 415 729 q 442 774 438 764 m 342 890 q 314 903 326 890 q 300 932 302 916 q 313 963 300 950 q 328 979 319 968 q 347 1001 337 989 q 365 1026 357 1013 q 377 1049 373 1039 q 393 1070 381 1062 q 418 1078 405 1078 q 447 1066 435 1078 q 460 1036 460 1054 q 447 1002 460 1026 q 415 953 434 979 q 376 909 396 928 q 342 890 355 890 z "},"":{"ha":646,"x_min":14,"x_max":607,"o":"m 442 774 q 416 778 433 776 q 368 781 399 781 q 261 775 315 781 q 154 761 207 769 q 120 771 135 761 q 106 803 106 781 q 115 829 106 818 q 140 843 125 840 q 253 858 197 853 q 368 864 310 864 q 435 860 403 864 q 493 842 468 856 q 533 803 518 828 q 547 738 547 779 q 526 643 547 690 q 481 556 504 596 q 383 417 439 488 q 274 281 326 347 q 192 181 229 228 q 142 107 156 135 q 212 88 174 92 q 285 83 250 83 q 365 88 325 83 q 439 101 404 93 q 500 118 474 108 q 539 139 526 128 q 565 149 550 149 q 595 136 583 149 q 607 107 607 124 q 567 56 607 76 q 475 24 528 36 q 369 6 422 11 q 286 0 315 0 q 206 6 253 0 q 117 27 160 11 q 44 72 75 43 q 14 144 14 100 q 31 205 14 168 q 93 308 47 242 q 175 419 129 361 q 268 538 221 478 q 336 623 304 582 q 393 700 368 664 q 426 747 415 729 q 442 774 438 764 m 288 938 q 299 967 288 956 q 329 979 311 979 q 359 967 347 979 q 371 938 371 956 q 359 908 371 921 q 329 896 347 896 q 299 908 311 896 q 288 938 288 921 z "},"":{"ha":575,"x_min":11,"x_max":567,"o":"m 310 83 q 388 108 354 83 q 442 161 421 132 q 475 215 464 190 q 486 239 486 239 q 501 259 490 251 q 525 267 513 267 q 554 255 542 267 q 567 225 567 243 q 560 198 567 215 q 543 163 553 181 q 523 131 533 146 q 507 108 513 115 q 317 0 428 4 q 314 -27 315 -14 q 311 -53 313 -40 q 323 -51 318 -51 q 333 -51 328 -51 q 381 -58 358 -51 q 423 -76 404 -64 q 453 -108 442 -89 q 464 -154 464 -128 q 444 -222 464 -193 q 394 -271 425 -251 q 328 -300 364 -290 q 258 -310 292 -310 q 236 -303 246 -310 q 226 -282 226 -296 q 235 -262 226 -271 q 254 -254 243 -254 q 294 -246 275 -254 q 329 -224 314 -237 q 353 -190 344 -210 q 363 -150 363 -171 q 350 -118 363 -128 q 317 -108 338 -108 q 285 -112 301 -108 l 279 -112 q 259 -103 268 -112 q 253 -82 250 -94 l 261 4 q 146 58 193 17 q 69 156 99 99 q 25 279 39 213 q 11 410 11 346 q 28 560 11 482 q 84 705 46 639 q 183 814 122 771 q 329 857 243 857 q 369 851 344 857 q 417 835 393 846 q 459 808 442 824 q 476 774 476 793 q 464 744 476 757 q 435 732 451 732 q 410 740 421 732 q 326 774 364 776 q 273 751 296 774 q 233 692 250 728 q 205 612 217 656 q 186 526 193 568 q 176 449 179 485 q 174 392 174 413 q 178 310 174 363 q 198 208 183 258 q 240 120 213 157 q 310 83 267 83 z "},"":{"ha":540,"x_min":11,"x_max":529,"o":"m 210 357 l 174 357 q 182 94 174 226 q 226 85 204 88 q 268 83 247 83 q 386 102 335 83 q 463 139 438 121 q 488 147 475 147 q 517 135 504 147 q 529 106 529 122 q 516 76 529 90 q 483 51 503 63 q 475 23 481 38 q 465 -4 469 8 q 442 -72 454 -33 q 421 -146 429 -110 q 411 -207 411 -186 q 418 -229 411 -226 q 458 -221 439 -229 q 481 -208 476 -212 q 501 -200 489 -200 q 521 -208 513 -200 q 529 -228 529 -217 q 516 -252 529 -242 q 484 -270 503 -262 q 447 -281 465 -278 q 418 -285 429 -285 q 342 -260 369 -285 q 315 -186 315 -235 q 338 -86 315 -142 q 388 17 361 -31 q 320 4 351 8 q 269 0 289 0 q 132 22 197 0 q 86 59 106 31 q 53 126 67 88 q 32 211 40 165 q 19 300 24 257 q 13 380 14 343 q 11 438 11 417 q 15 535 11 486 q 29 632 18 583 q 64 751 44 706 q 115 821 83 796 q 192 855 146 846 q 308 864 239 864 q 412 859 365 864 q 469 851 458 854 q 492 838 485 849 q 500 811 500 826 q 488 782 500 794 q 458 769 476 769 q 453 770 456 769 q 449 771 451 771 q 398 777 438 774 q 308 781 358 781 q 276 780 296 781 q 236 777 257 779 q 197 771 215 775 q 167 760 178 767 q 167 741 167 751 q 168 715 167 731 q 172 440 168 578 l 211 440 q 251 441 226 440 q 301 444 275 442 q 348 449 326 446 q 378 457 369 451 q 403 465 390 465 q 433 453 421 465 q 444 424 444 442 q 428 390 444 403 q 383 372 411 378 q 324 362 356 365 q 263 358 293 358 q 210 357 232 357 z "},"":{"ha":515,"x_min":10,"x_max":494,"o":"m 97 47 q 86 15 97 28 q 56 1 75 1 q 28 12 40 1 q 14 39 17 22 q 10 126 10 76 q 15 233 10 164 q 31 383 19 301 q 61 549 42 464 q 111 703 81 633 q 183 816 142 772 q 279 860 224 860 q 370 824 333 860 q 431 731 407 788 q 467 603 454 674 q 487 464 481 533 q 494 335 493 394 q 494 240 494 276 q 493 147 494 190 q 490 71 492 103 q 488 19 489 39 q 486 -3 486 -1 q 473 -31 485 -19 q 444 -42 461 -42 q 428 -39 436 -42 q 406 -103 417 -68 q 386 -171 394 -137 q 379 -208 381 -193 q 378 -232 378 -222 q 393 -254 378 -254 q 425 -246 408 -254 q 446 -233 442 -237 q 467 -225 454 -225 q 486 -233 478 -225 q 494 -253 494 -242 q 481 -277 494 -267 q 448 -295 467 -287 q 408 -306 429 -303 q 372 -310 388 -310 q 308 -285 333 -310 q 282 -211 282 -260 q 290 -153 282 -185 q 312 -91 299 -122 q 341 -30 325 -60 q 372 24 357 0 q 360 69 364 46 q 353 110 356 92 q 345 206 347 154 q 342 317 343 258 q 283 308 315 313 q 219 298 251 303 q 156 290 186 293 q 101 283 125 286 q 93 126 93 200 q 97 47 93 83 m 111 368 q 163 374 135 371 q 222 382 192 378 q 283 392 253 386 q 339 401 313 397 q 334 542 338 474 q 322 665 331 610 q 317 689 321 671 q 308 726 314 707 q 295 761 303 746 q 279 776 288 776 q 235 751 256 776 q 196 687 214 726 q 163 599 178 647 q 138 506 149 551 q 121 423 128 460 q 111 368 114 386 z "},"":{"ha":200,"x_min":18,"x_max":176,"o":"m 110 0 q 60 22 79 0 q 33 74 42 43 q 21 138 24 104 q 18 193 18 171 q 22 260 18 217 q 35 347 25 304 q 67 422 46 390 q 122 454 88 454 q 154 440 143 454 q 168 406 165 425 q 175 328 174 367 q 176 250 176 289 q 176 206 176 233 q 175 150 176 179 q 170 94 174 121 q 161 50 167 67 q 144 15 156 31 q 110 0 132 0 z "},"":{"ha":188,"x_min":10,"x_max":169,"o":"m 153 50 q 135 15 147 31 q 101 0 124 0 q 52 22 71 0 q 24 74 33 43 q 13 138 15 104 q 10 193 10 171 q 13 260 10 217 q 27 347 17 304 q 58 422 38 390 q 114 454 79 454 q 146 440 135 454 q 160 406 157 425 q 167 328 165 367 q 168 250 168 289 q 168 206 168 233 q 167 150 168 179 q 162 94 165 121 q 153 50 158 67 m 81 490 q 81 511 76 501 q 90 533 85 519 q 100 563 94 547 q 109 594 106 578 q 113 622 113 610 q 131 649 113 642 q 140 650 133 650 q 167 633 157 650 q 166 600 169 625 q 155 549 163 575 q 137 500 147 522 q 115 474 126 478 q 107 472 113 472 q 81 490 88 472 z "},"":{"ha":218,"x_min":15,"x_max":211,"o":"m 15 193 q 19 260 15 217 q 33 347 22 304 q 64 422 43 390 q 119 454 85 454 q 151 440 140 454 q 165 406 163 425 q 172 328 171 367 q 174 250 174 289 q 174 206 174 233 q 172 150 174 179 q 167 94 171 121 q 158 50 164 67 q 141 15 153 31 q 107 0 129 0 q 58 22 76 0 q 30 74 39 43 q 18 138 21 104 q 15 193 15 171 m 32 503 q 38 522 31 513 q 50 541 42 529 q 67 567 58 553 q 83 597 76 582 q 93 624 90 611 q 117 646 99 646 q 136 641 128 646 q 149 624 144 636 q 158 597 151 611 q 174 567 165 582 q 190 541 182 553 q 203 522 199 529 q 208 513 207 519 q 205 492 211 501 q 188 479 199 482 q 178 479 183 476 q 150 501 165 481 q 121 547 135 522 q 110 528 117 540 q 96 506 104 517 q 78 486 88 494 q 60 478 68 478 q 41 485 49 478 q 32 503 33 492 z "},"":{"ha":190,"x_min":14,"x_max":172,"o":"m 157 50 q 140 15 151 31 q 106 0 128 0 q 56 22 75 0 q 28 74 38 43 q 17 138 19 104 q 14 193 14 171 q 17 260 14 217 q 31 347 21 304 q 63 422 42 390 q 118 454 83 454 q 150 440 139 454 q 164 406 161 425 q 171 328 169 367 q 172 250 172 289 q 172 206 172 233 q 171 150 172 179 q 166 94 169 121 q 157 50 163 67 m 115 474 q 94 500 104 478 q 76 549 83 522 q 66 599 69 575 q 65 632 63 624 q 92 650 72 650 q 101 649 97 650 q 114 639 108 646 q 119 622 119 632 q 123 594 119 610 q 131 562 126 578 q 142 532 136 546 q 150 511 147 518 q 151 490 156 499 q 125 472 144 472 q 115 474 118 472 z "},"":{"ha":225,"x_min":19,"x_max":214,"o":"m 111 0 q 62 22 81 0 q 34 74 43 43 q 22 138 25 104 q 19 193 19 171 q 23 260 19 217 q 37 347 26 304 q 68 422 47 390 q 124 454 89 454 q 156 440 144 454 q 169 406 167 425 q 176 328 175 367 q 178 250 178 289 q 178 206 178 233 q 176 150 178 179 q 172 94 175 121 q 163 50 168 67 q 145 15 157 31 q 111 0 133 0 m 33 524 q 45 553 33 542 q 75 565 57 565 q 104 553 92 565 q 117 524 117 542 q 104 494 117 507 q 75 482 92 482 q 45 494 57 482 q 33 524 33 507 m 172 482 q 142 494 154 482 q 131 524 131 507 q 142 553 131 542 q 172 565 154 565 q 201 553 189 565 q 214 524 214 542 q 201 494 214 507 q 172 482 189 482 z "},"":{"ha":665,"x_min":25,"x_max":661,"o":"m 71 26 q 45 103 54 50 q 32 214 36 156 q 26 327 28 272 q 25 410 25 382 q 26 498 25 447 q 31 602 26 549 q 42 706 35 656 q 61 793 49 757 q 84 837 68 817 q 128 857 100 857 q 165 837 154 857 q 175 794 175 817 q 176 720 175 749 q 178 675 176 692 q 180 650 179 658 q 181 633 181 642 q 288 713 226 682 q 418 744 350 744 q 503 731 460 744 q 582 694 547 718 q 639 634 617 669 q 661 553 661 599 q 631 419 661 481 q 549 314 600 358 q 433 244 499 269 q 299 219 368 219 q 192 240 240 219 q 190 182 192 222 q 182 101 189 142 q 160 31 175 61 q 117 0 144 0 q 95 5 108 0 q 71 26 82 10 m 500 553 q 485 628 500 597 q 419 661 471 660 q 351 649 385 661 q 289 617 318 638 q 235 569 260 596 q 194 514 211 543 q 188 506 193 511 q 190 421 189 463 q 192 336 190 379 q 299 303 233 303 q 391 324 353 303 q 453 380 429 344 q 489 460 478 415 q 500 553 500 506 z "},"":{"ha":489,"x_min":25,"x_max":489,"o":"m 25 332 q 26 439 25 381 q 31 557 26 497 q 42 675 35 617 q 63 781 50 733 q 84 829 69 804 q 129 854 99 854 q 159 842 149 854 q 172 811 169 829 q 180 727 178 772 q 183 635 182 682 q 183 543 183 589 q 183 457 183 497 q 183 424 183 440 q 182 392 183 407 q 243 401 211 401 q 338 383 293 401 q 415 333 382 365 q 469 257 449 300 q 489 164 489 214 q 442 44 489 89 q 319 -1 394 -1 q 235 27 271 -1 q 174 92 199 56 q 173 61 174 86 q 172 1 172 36 q 172 -74 172 -35 q 171 -148 171 -114 q 170 -206 171 -182 q 169 -233 169 -231 q 165 -260 168 -246 q 157 -285 163 -274 q 142 -303 151 -296 q 117 -311 132 -311 q 84 -301 101 -311 q 56 -257 67 -290 q 43 -192 49 -237 q 35 -87 38 -146 q 30 36 32 -29 q 26 160 28 101 q 25 266 25 219 q 25 332 25 313 m 317 82 q 324 89 321 82 q 328 105 326 96 q 329 123 329 114 q 329 138 329 132 q 324 185 329 154 q 308 245 318 215 q 281 297 297 275 q 243 318 264 318 q 182 300 214 318 q 181 283 182 292 q 181 267 181 275 q 201 217 188 249 q 232 155 214 185 q 272 103 250 125 q 317 82 294 82 z "},"":{"ha":707,"x_min":21,"x_max":688,"o":"m 83 279 q 54 291 67 279 q 42 321 42 303 q 60 369 42 344 q 96 410 79 394 q 147 440 115 425 q 222 456 178 456 q 306 442 268 456 q 372 404 343 428 q 435 442 400 428 q 513 456 471 456 q 564 448 539 456 q 608 425 589 440 q 638 388 626 410 q 650 336 650 365 q 634 271 650 300 q 592 222 618 242 q 533 190 565 201 q 467 179 500 179 q 456 182 464 179 q 461 155 457 172 q 472 122 465 138 q 488 95 478 107 q 513 83 499 83 q 569 101 543 83 q 608 147 596 119 q 646 172 619 172 q 675 160 663 172 q 688 131 688 147 q 683 114 688 122 q 674 94 683 113 q 643 56 664 76 q 590 17 622 35 q 514 0 558 0 q 449 8 479 0 q 393 32 418 17 q 360 8 378 17 q 319 -1 343 -1 q 290 11 303 -1 q 278 40 278 24 q 278 47 278 43 q 279 53 279 50 q 282 65 282 58 q 160 0 225 0 q 54 35 88 0 q 21 111 21 69 q 46 190 21 157 q 108 244 71 222 q 190 275 146 265 q 271 285 233 285 q 278 283 275 285 q 273 310 276 294 q 263 339 269 325 q 247 363 257 353 q 222 372 238 372 q 194 368 210 372 q 163 356 178 364 q 138 336 149 347 q 124 311 126 325 q 110 288 121 296 q 83 279 99 279 m 454 261 q 467 263 458 263 q 542 287 517 263 q 567 335 567 311 q 549 365 567 357 q 513 372 531 372 q 488 359 499 372 q 469 327 476 346 q 459 290 463 308 q 454 261 456 272 m 272 201 q 230 194 251 201 q 191 174 208 188 q 163 142 174 160 q 153 100 153 124 q 156 85 153 85 q 193 97 175 85 q 226 126 211 108 q 253 165 242 144 q 272 201 265 186 z "},"":{"ha":889,"x_min":21,"x_max":871,"o":"m 514 440 l 553 440 q 592 441 568 440 q 642 443 617 442 q 690 448 668 444 q 721 457 713 451 q 744 465 732 465 q 774 453 763 465 q 786 424 786 442 q 769 390 786 403 q 725 372 753 378 q 666 362 697 365 q 604 358 635 358 q 551 357 574 357 l 515 357 q 524 94 515 226 q 569 85 547 88 q 610 83 590 83 q 728 102 676 83 q 806 139 779 121 q 829 147 817 147 q 858 135 846 147 q 871 106 871 122 q 840 60 871 79 q 765 27 808 40 q 679 7 722 14 q 611 0 636 0 q 541 6 575 0 q 474 22 507 11 q 426 62 446 31 q 393 135 407 93 q 372 225 379 176 q 360 318 364 274 l 353 317 q 294 308 326 313 q 230 298 263 303 q 167 290 197 293 q 113 283 136 286 q 104 126 104 200 q 108 47 104 83 q 97 15 108 28 q 67 1 86 1 q 40 12 51 1 q 25 39 28 22 q 21 126 21 76 q 26 233 21 164 q 42 383 31 301 q 72 549 53 464 q 122 703 92 633 q 194 816 153 772 q 290 860 235 860 q 363 838 332 860 q 418 776 394 815 q 503 847 450 829 q 650 864 557 864 q 705 863 678 864 q 753 859 732 861 q 791 855 775 857 q 813 851 807 853 q 834 838 826 849 q 842 811 842 826 q 830 782 842 794 q 800 769 818 769 q 795 770 797 769 q 790 771 793 771 q 763 776 782 774 q 722 778 743 778 q 680 780 700 779 q 650 781 660 781 q 618 780 638 781 q 578 777 599 779 q 538 771 557 775 q 508 760 519 767 q 508 741 508 751 q 510 715 508 731 q 514 440 510 578 m 290 776 q 246 751 267 776 q 207 687 225 726 q 174 599 189 647 q 149 506 160 551 q 132 423 139 460 q 122 368 125 386 q 174 374 146 371 q 233 382 203 378 q 294 392 264 386 q 350 401 324 397 q 345 542 349 474 q 333 665 342 610 q 328 689 332 671 q 319 726 325 707 q 306 761 314 746 q 290 776 299 776 z "},"!":{"ha":200,"x_min":15,"x_max":179,"o":"m 161 200 q 157 174 160 188 q 149 150 154 161 q 133 132 143 139 q 108 125 124 125 q 77 135 94 125 q 47 178 60 146 q 23 288 31 222 q 15 429 15 354 q 18 530 15 479 q 26 627 21 581 q 40 715 32 674 q 56 785 47 756 q 64 810 58 797 q 77 833 69 822 q 96 850 85 843 q 121 857 107 857 q 157 835 149 857 q 167 790 165 813 q 176 651 174 722 q 179 510 179 581 q 175 353 179 431 q 161 200 171 275 m 57 54 q 72 90 57 75 q 108 106 88 106 q 146 90 131 106 q 161 54 161 75 q 146 17 161 32 q 108 1 131 1 q 72 17 88 1 q 57 54 57 32 z "},"'":{"ha":135,"x_min":24,"x_max":113,"o":"m 107 610 q 108 558 107 585 q 113 508 110 531 q 101 476 113 490 q 71 463 90 463 q 44 474 56 463 q 29 500 32 485 q 26 542 28 511 q 24 607 24 572 q 25 650 24 629 q 32 686 26 671 q 71 715 40 715 q 101 703 89 715 q 113 674 113 692 q 111 661 113 665 q 108 640 108 654 q 107 610 107 626 z "},"\"":{"ha":250,"x_min":25,"x_max":225,"o":"m 31 500 q 27 542 29 511 q 25 607 25 572 q 26 650 25 629 q 33 686 28 671 q 72 715 42 715 q 102 703 90 715 q 114 674 114 692 q 113 661 114 665 q 109 640 110 654 q 108 610 108 626 q 110 558 108 585 q 114 508 111 531 q 103 476 114 490 q 72 463 92 463 q 45 474 57 463 q 31 500 33 485 m 183 715 q 213 703 201 715 q 225 674 225 692 q 224 661 225 665 q 220 640 221 654 q 219 610 219 626 q 221 558 219 585 q 225 508 222 531 q 214 476 225 490 q 183 463 203 463 q 156 474 168 463 q 142 500 144 485 q 138 542 140 511 q 136 607 136 572 q 138 650 136 629 q 144 686 139 671 q 183 715 153 715 z "},"#":{"ha":486,"x_min":13,"x_max":474,"o":"m 228 538 l 310 538 q 341 676 326 617 q 363 747 356 735 q 399 768 374 768 q 428 756 415 768 q 440 726 440 744 q 435 707 440 714 q 421 653 432 700 q 394 540 410 607 q 414 541 406 540 q 428 542 422 542 q 432 543 429 543 q 461 531 449 543 q 474 501 474 518 q 463 473 474 485 q 436 460 451 461 q 416 458 432 458 q 376 457 400 458 q 368 415 372 436 q 360 372 364 393 q 401 374 383 374 q 428 375 418 375 q 432 376 429 376 q 461 364 449 376 q 474 335 474 351 q 463 306 474 318 q 436 293 451 294 q 405 291 431 292 q 342 289 379 290 q 317 161 326 215 q 304 93 307 107 q 290 67 301 78 q 263 56 279 56 q 233 68 246 56 q 221 97 221 81 q 222 103 221 101 q 232 160 222 108 q 257 288 242 213 l 193 288 l 175 288 q 150 160 160 214 q 138 93 140 106 q 124 67 135 78 q 96 56 113 56 q 67 68 79 56 q 54 97 54 81 q 56 103 54 101 q 65 161 56 108 q 90 289 75 214 q 61 291 74 290 q 42 294 49 292 q 20 310 28 299 q 13 335 13 321 q 25 364 13 351 q 54 376 38 376 q 67 375 63 376 q 107 371 72 374 q 116 413 111 392 q 125 454 121 433 q 74 457 96 456 q 42 461 53 458 q 20 476 28 465 q 13 501 13 488 q 25 531 13 518 q 54 543 38 543 q 67 542 63 543 q 92 538 72 539 q 142 538 113 538 q 174 676 160 617 q 196 747 189 735 q 232 768 207 768 q 261 756 249 768 q 274 726 274 744 q 268 707 274 714 q 254 653 265 700 q 228 538 243 606 m 196 371 l 274 371 q 283 413 278 392 q 292 454 288 433 l 210 454 q 201 413 206 433 q 192 371 196 392 l 196 371 z "},"-":{"ha":299,"x_min":22,"x_max":275,"o":"m 238 290 q 197 287 226 289 q 131 285 167 285 q 88 286 108 285 q 51 292 67 288 q 30 307 38 296 q 22 332 22 318 q 35 361 22 349 q 64 374 47 374 q 76 372 72 374 q 97 369 83 369 q 128 368 111 368 q 180 369 153 368 q 229 372 207 369 q 233 374 231 374 q 263 361 250 374 q 275 332 275 349 q 264 303 275 315 q 238 290 253 292 z "},"=":{"ha":300,"x_min":24,"x_max":276,"o":"m 24 332 q 36 361 24 349 q 65 374 49 374 q 78 372 74 374 q 99 369 85 369 q 129 368 113 368 q 181 369 154 368 q 231 372 208 369 q 235 374 232 374 q 264 361 251 374 q 276 332 276 349 q 265 303 276 315 q 239 290 254 292 q 198 287 228 289 q 132 285 168 285 q 89 286 110 285 q 53 292 68 288 q 31 307 39 296 q 24 332 24 318 m 231 497 q 235 499 232 499 q 264 486 251 499 q 276 457 276 474 q 265 428 276 440 q 239 415 254 417 q 198 412 228 414 q 132 410 168 410 q 89 411 110 410 q 53 417 68 413 q 31 432 39 421 q 24 457 24 443 q 36 486 24 474 q 65 499 49 499 q 78 497 74 499 q 99 494 85 494 q 129 493 113 493 q 181 494 154 493 q 231 497 208 494 z "},"":{"ha":313,"x_min":17,"x_max":296,"o":"m 143 707 q 147 722 144 714 q 156 736 149 729 q 170 751 161 742 q 188 773 179 761 q 206 797 197 785 q 217 819 214 810 q 256 847 228 847 q 284 835 272 847 q 296 807 296 824 q 283 774 296 797 q 253 727 271 751 q 216 685 235 703 q 185 667 197 667 q 156 679 168 667 q 143 707 144 692 m 90 819 q 106 840 94 832 q 129 847 117 847 q 158 835 146 847 q 169 807 169 824 q 157 774 169 797 q 126 727 144 751 q 89 685 108 703 q 57 667 69 667 q 30 679 42 667 q 17 707 18 692 q 29 736 17 724 q 43 751 35 742 q 61 773 51 761 q 78 797 71 785 q 90 819 86 810 z "},"+":{"ha":269,"x_min":8,"x_max":261,"o":"m 90 285 q 64 286 78 285 q 38 292 50 288 q 17 306 25 297 q 8 332 8 315 q 21 361 8 349 q 50 374 33 374 q 63 372 58 374 q 89 368 71 368 q 90 395 89 381 q 97 422 92 410 q 110 443 101 435 q 136 451 119 451 q 166 440 154 451 q 178 410 178 428 q 176 397 178 401 q 172 369 175 389 q 194 372 183 371 q 215 372 206 372 q 219 374 217 374 q 249 361 236 374 q 261 332 261 349 q 250 303 261 315 q 224 290 239 292 q 174 286 213 289 q 178 244 176 264 q 167 213 178 226 q 136 199 156 199 q 109 210 121 199 q 94 236 97 221 q 92 256 93 243 q 90 285 92 268 z "},".":{"ha":144,"x_min":19,"x_max":125,"o":"m 19 53 q 35 90 19 75 q 72 106 50 106 q 110 90 94 106 q 125 53 125 75 q 110 15 125 31 q 72 0 94 0 q 35 15 50 0 q 19 53 19 31 z "},"$":{"ha":576,"x_min":8,"x_max":563,"o":"m 50 172 q 79 160 67 172 q 164 107 113 128 q 268 83 215 86 q 273 233 271 146 q 279 415 275 319 q 214 458 247 438 q 154 504 181 479 q 111 562 128 529 q 94 639 94 594 q 113 723 94 686 q 162 786 132 760 q 228 829 192 813 q 300 853 265 846 q 303 874 301 864 q 309 894 304 885 q 322 908 314 903 q 344 914 331 914 q 374 901 361 914 q 386 872 386 889 q 385 866 386 869 q 383 857 385 863 q 424 851 403 856 q 463 839 444 847 q 492 819 481 831 q 504 790 504 807 q 492 761 504 774 q 463 749 479 749 q 439 756 450 749 q 378 775 418 771 q 372 654 375 725 q 365 504 368 583 q 382 493 376 496 q 446 449 414 471 q 504 397 478 426 q 547 331 531 368 q 563 243 563 294 q 544 150 563 190 q 497 81 526 110 q 430 33 468 51 q 350 7 392 15 q 342 -31 350 -14 q 308 -47 333 -47 q 277 -33 288 -47 q 267 0 267 -19 q 131 30 196 3 q 21 101 65 57 q 8 131 8 114 q 21 160 8 149 q 50 172 33 172 m 358 343 q 354 210 356 272 q 350 99 353 147 q 391 142 379 114 q 403 208 403 169 q 390 285 403 253 q 358 343 378 318 m 254 672 q 262 619 254 643 q 285 576 269 596 q 289 674 288 628 q 293 760 290 721 q 265 726 275 747 q 254 672 254 706 z "},"/":{"ha":363,"x_min":3,"x_max":361,"o":"m 3 42 q 14 86 3 49 q 44 181 25 124 q 87 310 63 239 q 136 456 111 382 q 186 601 161 531 q 232 729 211 672 q 267 823 253 786 q 285 865 281 860 q 319 883 299 883 q 349 871 336 883 q 361 842 361 858 q 353 817 361 828 q 338 778 350 813 q 306 692 325 744 q 264 572 288 639 q 217 434 240 504 q 170 296 193 364 q 129 172 147 228 q 99 78 111 115 q 85 32 88 40 q 71 8 82 17 q 44 0 60 0 q 15 13 28 0 q 3 42 3 25 z "},"%":{"ha":489,"x_min":18,"x_max":469,"o":"m 72 42 q 83 86 72 49 q 113 181 94 124 q 156 310 132 239 q 206 456 181 382 q 256 601 231 531 q 301 729 281 672 q 337 823 322 786 q 356 865 351 860 q 389 883 369 883 q 418 871 406 883 q 431 842 431 858 q 422 817 431 828 q 407 778 419 813 q 376 692 394 744 q 334 572 357 639 q 288 434 311 504 q 241 296 264 364 q 199 172 218 228 q 169 78 181 115 q 154 32 157 40 q 140 8 151 17 q 114 0 129 0 q 85 13 97 0 q 72 42 72 25 m 253 113 q 262 161 253 138 q 286 203 271 185 q 323 232 301 221 q 371 243 344 243 q 413 233 394 243 q 444 206 432 222 q 463 168 457 189 q 469 126 469 147 q 438 39 469 76 q 353 1 406 1 q 278 35 304 1 q 253 113 253 69 m 235 758 q 202 669 235 707 q 117 632 169 632 q 43 666 68 632 q 18 743 18 700 q 26 792 18 768 q 51 833 35 815 q 88 863 67 851 q 136 874 110 874 q 178 863 160 874 q 208 837 196 853 q 228 800 221 821 q 235 758 235 779 m 99 743 q 103 723 99 732 q 117 714 107 714 q 144 727 135 714 q 154 757 154 740 q 150 780 154 768 q 135 792 146 792 q 108 776 118 792 q 99 743 99 761 m 371 161 q 344 145 353 161 q 335 113 335 129 q 338 92 335 101 q 353 83 342 83 q 380 97 371 83 q 389 126 389 110 q 385 149 389 138 q 371 161 382 161 z "},"(":{"ha":336,"x_min":14,"x_max":322,"o":"m 299 828 q 288 798 300 810 q 257 785 275 786 q 235 765 251 785 q 204 683 219 744 q 181 553 189 626 q 174 397 174 481 q 183 225 174 307 q 208 81 192 143 q 247 -13 228 14 q 281 -40 267 -40 q 310 -52 299 -40 q 322 -81 322 -64 q 310 -110 322 -99 q 282 -124 299 -122 q 185 -97 226 -124 q 113 -28 143 -71 q 65 69 83 14 q 34 180 46 124 q 18 290 22 236 q 14 383 14 343 q 18 471 14 421 q 33 575 22 521 q 60 681 43 629 q 105 775 78 733 q 169 842 132 817 q 257 868 207 868 q 287 856 275 868 q 299 828 299 844 z "},")":{"ha":336,"x_min":14,"x_max":322,"o":"m 133 683 q 101 765 117 744 q 78 785 85 785 q 49 798 61 786 q 38 828 38 810 q 49 856 38 844 q 79 868 61 868 q 167 842 129 868 q 231 775 204 817 q 276 680 258 733 q 303 573 293 626 q 318 469 314 519 q 322 383 322 419 q 318 289 322 343 q 302 178 314 235 q 272 68 290 122 q 223 -28 253 14 q 152 -97 193 -71 q 56 -124 111 -124 q 26 -110 38 -122 q 14 -81 14 -99 q 26 -52 14 -64 q 56 -40 39 -40 q 89 -13 69 -40 q 128 81 108 14 q 154 225 144 143 q 164 397 164 307 q 156 553 164 481 q 133 683 149 626 z "},",":{"ha":150,"x_min":14,"x_max":138,"o":"m 57 -108 q 41 -67 49 -90 q 27 -19 33 -44 q 17 29 21 6 q 14 72 14 53 q 28 101 15 89 q 58 111 40 113 q 87 97 75 110 q 97 68 99 85 q 101 40 97 58 q 110 1 104 22 q 122 -42 115 -19 q 135 -81 129 -64 q 138 -94 138 -89 q 125 -124 138 -112 q 96 -136 113 -136 q 57 -108 67 -136 z "},":":{"ha":150,"x_min":22,"x_max":128,"o":"m 75 0 q 38 15 53 0 q 22 53 22 31 q 38 90 22 75 q 75 106 53 106 q 113 90 97 106 q 128 53 128 75 q 113 15 128 31 q 75 0 97 0 m 22 403 q 38 440 22 425 q 75 456 53 456 q 113 440 97 456 q 128 403 128 425 q 113 365 128 381 q 75 350 97 350 q 38 365 53 350 q 22 403 22 381 z "},"&":{"ha":538,"x_min":19,"x_max":529,"o":"m 207 764 q 291 727 265 763 q 317 639 317 692 q 309 567 317 606 q 290 488 301 528 q 265 410 279 449 q 240 342 251 372 q 331 206 281 275 q 393 292 363 244 q 450 399 424 340 q 488 422 461 422 q 517 410 506 422 q 529 381 529 399 q 511 328 529 364 q 468 256 493 293 q 418 185 443 218 q 381 138 393 151 q 418 91 404 108 q 432 72 432 74 q 442 46 442 63 q 430 17 442 29 q 400 4 418 4 q 368 19 381 4 q 353 36 367 21 q 321 79 340 51 q 226 22 274 42 q 135 1 179 1 q 47 38 75 1 q 19 131 19 75 q 28 203 19 164 q 48 283 36 243 q 74 362 60 324 q 100 432 88 400 q 71 517 81 478 q 61 589 61 556 q 71 651 61 621 q 99 707 81 682 q 145 748 118 732 q 207 764 172 764 m 271 146 q 236 194 253 169 q 204 243 219 218 q 185 191 193 215 q 169 144 176 167 q 156 86 158 103 q 271 146 208 97 m 149 556 q 186 674 171 617 q 154 638 164 663 q 144 589 144 613 q 149 556 144 572 z "},"*":{"ha":325,"x_min":14,"x_max":311,"o":"m 76 831 q 94 819 83 828 q 118 799 106 810 q 121 831 119 817 q 125 853 122 844 q 164 882 133 882 q 194 870 182 882 q 206 840 206 858 q 204 828 206 832 q 201 794 201 819 q 247 831 229 821 q 267 836 257 836 q 297 824 285 836 q 308 794 308 811 q 288 758 308 769 q 263 738 281 754 q 221 697 244 721 q 274 640 251 665 q 301 610 296 615 q 311 583 311 597 q 299 554 311 567 q 269 542 286 542 q 236 557 249 542 q 222 574 231 564 q 203 596 214 583 q 203 567 203 579 q 206 546 204 554 q 194 513 206 526 q 164 500 183 500 q 137 511 149 500 q 122 538 125 522 q 122 556 122 542 q 119 593 121 571 q 88 557 97 568 q 56 542 75 542 q 26 554 39 542 q 14 583 14 567 q 24 610 14 600 q 51 640 28 615 q 104 697 74 665 q 63 738 81 721 q 38 758 44 754 q 15 794 15 769 q 28 824 15 811 q 57 836 40 836 q 76 831 69 836 z "},";":{"ha":169,"x_min":11,"x_max":157,"o":"m 33 72 q 47 101 35 89 q 78 111 60 113 q 106 97 94 110 q 117 68 118 85 q 120 40 117 58 q 129 1 124 22 q 142 -42 135 -19 q 154 -81 149 -64 q 157 -94 157 -89 q 144 -124 157 -112 q 115 -136 132 -136 q 92 -128 103 -136 q 76 -108 81 -121 q 60 -67 68 -90 q 47 -19 53 -44 q 37 29 40 6 q 33 72 33 53 m 117 403 q 101 365 117 381 q 64 350 86 350 q 26 365 42 350 q 11 403 11 381 q 26 440 11 425 q 64 456 42 456 q 101 440 86 456 q 117 403 117 425 z "},"|":{"ha":126,"x_min":19,"x_max":113,"o":"m 25 -100 q 24 -39 25 -94 q 22 97 22 17 q 20 272 21 178 q 20 450 19 367 q 22 593 21 533 q 28 665 24 653 q 67 694 36 694 q 79 693 75 694 q 104 672 96 688 q 107 640 113 657 q 105 604 106 636 q 103 522 104 572 q 103 410 103 472 q 103 283 103 349 q 103 155 103 218 q 105 40 104 92 q 106 -47 106 -12 q 108 -92 107 -82 q 100 -122 111 -108 q 71 -137 89 -135 q 40 -128 53 -137 q 25 -100 28 -118 z "},"_":{"ha":415,"x_min":15,"x_max":396,"o":"m 47 -181 q 24 -160 32 -175 q 19 -129 15 -144 q 40 -103 26 -107 q 72 -100 54 -100 q 107 -103 79 -103 q 171 -104 135 -104 q 223 -104 196 -104 q 275 -103 250 -104 q 319 -102 300 -103 q 350 -100 339 -101 q 354 -99 351 -99 q 383 -111 371 -99 q 396 -142 396 -124 q 385 -169 396 -157 q 358 -182 374 -181 q 334 -183 353 -182 q 289 -185 315 -185 q 231 -187 263 -186 q 169 -187 200 -187 q 96 -186 129 -187 q 47 -181 63 -185 z "},"":{"ha":663,"x_min":18,"x_max":644,"o":"m 222 -26 q 193 -14 206 -26 q 181 15 181 -1 q 186 43 181 22 q 111 113 143 71 q 58 206 79 156 q 28 312 38 257 q 18 419 18 367 q 38 572 18 494 q 98 714 57 650 q 201 818 139 778 q 351 858 264 858 q 460 835 413 858 q 461 838 461 838 l 463 839 q 496 857 476 857 q 526 844 514 857 q 538 815 538 832 q 529 790 538 801 q 582 720 560 760 q 618 637 604 681 q 638 547 632 593 q 644 456 644 500 q 628 308 644 388 q 574 160 611 228 q 478 46 538 92 q 336 0 419 0 q 299 2 317 0 q 264 10 281 4 q 263 6 263 8 q 248 -18 260 -10 q 222 -26 236 -26 m 290 94 q 338 83 313 83 q 443 124 400 83 q 512 222 486 164 q 549 343 538 279 q 561 456 561 407 q 547 581 561 514 q 496 700 532 649 q 448 563 475 643 q 392 398 421 483 q 336 232 363 313 q 290 94 310 151 m 353 775 q 265 733 299 775 q 210 634 231 692 q 183 516 190 576 q 175 417 175 456 q 177 365 175 396 q 185 301 179 335 q 201 232 192 267 q 226 168 211 197 q 274 314 247 233 q 329 476 301 394 q 383 631 357 557 q 429 757 410 706 q 353 775 393 775 z "},"":{"ha":429,"x_min":15,"x_max":413,"o":"m 268 432 l 278 432 q 292 461 286 456 q 325 478 304 478 q 354 466 342 478 q 367 436 367 454 q 358 413 367 424 q 354 403 356 407 q 399 326 386 374 q 413 236 413 279 q 403 157 413 199 q 371 81 393 115 q 313 23 349 46 q 224 0 276 0 q 215 -26 217 -21 q 201 -50 213 -42 q 175 -58 190 -58 q 146 -46 158 -58 q 133 -17 133 -33 q 140 17 133 -11 q 51 90 86 39 q 15 217 15 142 q 31 306 15 263 q 74 382 46 349 q 142 435 103 415 q 229 456 182 456 q 255 448 244 456 q 268 432 265 440 m 249 83 q 288 102 272 85 q 312 143 303 119 q 325 193 321 167 q 329 238 329 219 q 327 269 329 251 q 319 306 325 288 q 283 195 303 256 q 249 83 264 135 m 232 374 q 208 352 218 374 q 191 303 197 331 q 181 250 185 276 q 178 215 178 224 q 178 194 178 211 q 183 158 179 178 q 216 260 199 208 q 249 354 233 311 q 232 374 238 364 z "},"":{"ha":721,"x_min":17,"x_max":703,"o":"m 235 57 q 230 26 233 43 q 220 -5 226 10 q 203 -29 214 -19 q 174 -39 192 -39 q 151 -34 165 -39 q 126 -11 138 -29 q 103 63 113 13 q 90 168 94 113 q 84 276 86 224 q 82 356 82 328 q 38 366 60 358 q 17 401 17 374 q 29 431 17 418 q 58 443 42 443 q 71 442 67 443 q 82 439 76 439 q 84 528 82 481 q 90 624 86 576 q 100 716 93 672 q 118 793 107 760 q 140 838 125 817 q 185 860 156 860 q 209 853 200 860 q 223 835 218 846 q 230 810 228 824 q 233 786 232 797 q 321 840 274 819 q 417 860 368 860 q 552 817 497 860 q 640 708 607 774 q 688 568 674 643 q 703 428 703 493 q 688 288 703 363 q 640 149 674 213 q 550 42 606 85 q 414 0 494 0 q 319 15 365 0 q 235 57 274 29 m 543 428 q 533 563 543 500 q 506 674 524 626 q 466 749 489 721 q 417 776 443 776 q 366 767 392 776 q 317 744 340 758 q 274 709 293 729 q 242 667 254 689 q 246 553 244 608 q 249 439 247 497 q 283 441 268 440 q 307 442 299 442 q 311 443 308 443 q 340 431 328 443 q 353 401 353 418 q 342 373 353 385 q 315 360 331 361 q 292 358 311 358 q 249 357 274 357 q 247 258 249 310 q 243 160 246 207 q 319 104 274 125 q 414 83 365 83 q 462 104 442 83 q 497 157 482 125 q 520 228 511 189 q 534 307 529 268 q 541 378 539 346 q 543 428 543 410 z "},"":{"ha":728,"x_min":17,"x_max":703,"o":"m 235 57 q 230 26 233 43 q 220 -5 226 10 q 203 -29 214 -19 q 174 -39 192 -39 q 151 -34 165 -39 q 126 -11 138 -29 q 103 63 113 13 q 90 168 94 113 q 84 276 86 224 q 82 356 82 328 q 38 366 60 358 q 17 401 17 374 q 29 431 17 418 q 58 443 42 443 q 71 442 67 443 q 82 439 76 439 q 84 528 82 481 q 90 624 86 576 q 100 716 93 672 q 118 793 107 760 q 140 838 125 817 q 185 860 156 860 q 209 853 200 860 q 223 835 218 846 q 230 810 228 824 q 233 786 232 797 q 321 840 274 819 q 417 860 368 860 q 552 817 497 860 q 640 708 607 774 q 688 568 674 643 q 703 428 703 493 q 688 288 703 363 q 640 149 674 213 q 550 42 606 85 q 414 0 494 0 q 319 15 365 0 q 235 57 274 29 m 543 428 q 533 563 543 500 q 506 674 524 626 q 466 749 489 721 q 417 776 443 776 q 366 767 392 776 q 317 744 340 758 q 274 709 293 729 q 242 667 254 689 q 246 553 244 608 q 249 439 247 497 q 283 441 268 440 q 307 442 299 442 q 311 443 308 443 q 340 431 328 443 q 353 401 353 418 q 342 373 353 385 q 315 360 331 361 q 292 358 311 358 q 249 357 274 357 q 247 258 249 310 q 243 160 246 207 q 319 104 274 125 q 414 83 365 83 q 462 104 442 83 q 497 157 482 125 q 520 228 511 189 q 534 307 529 268 q 541 378 539 346 q 543 428 543 410 z "},"":{"ha":594,"x_min":10,"x_max":590,"o":"m 229 99 q 265 88 240 93 q 335 83 289 83 q 380 85 354 83 q 432 89 406 86 q 483 96 458 92 q 524 107 507 100 q 549 115 535 115 q 578 103 565 115 q 590 74 590 90 q 557 33 590 47 q 480 10 524 18 q 394 1 436 3 q 335 0 351 0 q 284 2 313 0 q 228 12 256 4 q 178 33 200 19 q 146 72 156 47 q 113 196 124 126 q 96 332 101 265 q 64 317 71 318 q 59 316 61 317 q 54 315 57 315 q 18 336 32 315 q 14 368 10 351 q 33 393 18 385 q 44 399 36 396 q 60 406 47 399 q 90 424 72 413 q 92 519 90 461 q 99 640 93 578 q 115 756 104 701 q 143 840 125 811 q 171 865 157 860 q 193 871 185 871 q 214 866 200 871 q 239 840 228 861 q 252 786 250 819 q 256 731 254 753 q 257 691 257 711 q 257 647 257 671 q 257 587 257 617 q 256 526 257 557 q 266 533 261 529 q 275 540 271 538 q 300 549 286 549 q 336 528 322 549 q 340 499 343 514 q 325 474 338 483 q 298 453 318 468 q 253 424 278 439 q 244 260 250 342 q 229 99 239 179 z "},"":{"ha":343,"x_min":4,"x_max":338,"o":"m 58 317 q 53 316 56 317 q 49 315 51 315 q 13 336 26 315 q 8 368 4 351 q 28 393 13 385 q 39 399 31 396 q 56 407 42 399 q 89 426 69 415 q 94 549 90 485 q 105 673 97 613 q 126 785 113 733 q 148 833 133 808 q 193 857 163 857 q 228 835 221 857 q 239 790 236 813 q 247 657 246 724 q 247 524 247 590 q 259 532 254 528 q 269 540 264 536 q 294 549 281 549 q 331 528 317 549 q 335 499 338 514 q 319 474 332 483 q 292 453 313 468 q 247 424 272 439 q 246 247 247 338 q 233 75 244 156 q 229 49 232 63 q 221 25 226 36 q 206 7 215 14 q 181 0 196 0 q 149 10 165 0 q 119 53 132 21 q 103 113 110 78 q 94 187 97 149 q 90 263 92 225 q 89 332 89 301 q 58 317 67 319 z "},"":{"ha":540,"x_min":6,"x_max":524,"o":"m 161 607 q 140 622 147 611 q 132 647 132 633 q 144 676 132 664 q 174 689 156 689 q 185 688 182 689 q 200 685 188 686 q 231 684 213 685 q 272 683 250 683 q 313 683 293 683 q 315 735 314 710 q 318 788 315 761 q 328 833 321 811 q 365 856 336 856 q 388 850 374 856 q 415 824 403 844 q 435 767 426 804 q 449 686 443 731 q 464 687 457 686 q 478 689 471 688 q 510 678 496 689 q 524 647 524 667 q 513 619 524 631 q 486 606 501 607 q 475 604 482 604 q 458 603 468 604 q 463 522 461 563 q 467 447 465 482 q 469 382 468 411 q 469 333 469 353 q 457 96 469 186 q 450 56 454 79 q 438 10 446 32 q 415 -26 429 -11 q 378 -40 401 -40 q 353 -33 363 -40 q 338 -13 343 -25 q 329 12 332 -1 q 325 38 326 25 q 322 63 322 49 q 319 93 321 76 q 259 28 294 57 q 178 0 224 0 q 53 45 101 0 q 6 165 6 90 q 26 258 6 215 q 79 334 46 301 q 157 385 113 367 q 250 403 201 403 q 311 393 282 403 l 311 458 l 311 600 q 265 601 289 600 q 219 602 240 601 q 182 604 197 603 q 161 607 167 606 m 165 139 q 165 124 165 133 q 167 106 165 115 q 171 90 168 97 q 178 83 174 83 q 222 105 200 83 q 262 157 243 126 q 294 219 281 188 q 313 268 307 250 l 313 301 q 251 319 281 319 q 214 298 231 319 q 187 247 197 276 q 171 186 176 217 q 165 139 165 156 z "},"":{"ha":654,"x_min":8,"x_max":640,"o":"m 40 417 q 17 438 25 422 q 13 469 8 453 q 28 490 17 482 q 53 499 39 499 q 59 498 56 499 q 65 497 63 497 q 90 494 74 494 q 121 625 99 560 q 181 742 143 690 q 273 825 218 793 q 401 857 328 857 q 442 851 417 857 q 490 835 467 846 q 531 808 514 824 q 549 774 549 793 q 537 744 549 757 q 507 732 525 732 q 482 740 494 732 q 399 774 436 776 q 341 745 365 772 q 299 676 317 718 q 271 586 282 635 q 254 493 260 538 q 316 495 289 494 q 357 497 343 496 q 361 499 358 499 q 390 486 378 499 q 403 457 403 474 q 392 428 403 440 q 365 415 381 417 q 325 413 358 414 q 247 410 292 411 l 247 392 l 247 368 q 313 370 283 369 q 357 372 342 371 q 361 374 358 374 q 390 361 378 374 q 403 332 403 349 q 392 303 403 315 q 365 290 381 292 q 327 288 358 289 q 254 285 296 286 q 269 214 260 250 q 294 149 278 178 q 331 101 310 119 q 383 83 353 83 q 461 108 428 83 q 516 161 494 132 q 548 215 538 190 q 558 239 558 239 q 599 267 569 267 q 628 255 615 267 q 640 225 640 243 q 633 198 640 215 q 617 163 626 181 q 597 131 607 146 q 581 108 586 115 q 490 28 540 56 q 383 0 440 0 q 271 24 319 0 q 188 88 222 49 q 131 179 153 128 q 97 286 108 231 q 63 288 78 286 q 40 292 49 289 q 17 313 25 297 q 13 344 8 328 q 28 365 17 357 q 53 374 39 374 q 59 373 56 374 q 65 372 63 372 q 86 369 71 369 q 85 390 85 381 q 85 410 85 399 l 85 411 q 58 413 69 413 q 40 417 47 414 z "},"[":{"ha":379,"x_min":22,"x_max":368,"o":"m 24 86 q 23 140 24 111 q 22 200 22 168 q 23 276 22 228 q 26 381 24 324 q 31 499 28 438 q 40 615 35 560 q 53 715 46 671 q 69 783 60 760 q 110 828 81 811 q 176 856 140 846 q 251 869 213 865 q 317 874 289 874 q 345 862 333 874 q 357 832 357 850 q 346 803 358 815 q 317 790 333 790 q 292 789 307 790 q 261 783 276 788 q 233 772 246 779 q 217 756 221 765 q 203 698 210 738 q 193 608 197 658 q 186 500 189 557 q 182 388 183 443 q 180 286 181 333 q 179 210 179 239 q 179 154 179 190 q 181 81 179 118 q 185 10 182 43 q 193 -35 188 -22 q 217 -39 197 -39 q 265 -33 240 -39 q 313 -18 289 -26 q 326 -15 317 -15 q 356 -28 344 -15 q 368 -57 368 -40 q 342 -96 368 -85 q 256 -121 304 -111 q 167 -131 207 -131 q 50 -78 79 -131 q 35 -33 42 -67 q 24 86 28 0 z "},"]":{"ha":379,"x_min":11,"x_max":357,"o":"m 11 -57 q 24 -28 11 -40 q 53 -15 36 -15 q 67 -18 63 -15 q 115 -33 90 -26 q 164 -39 139 -39 q 186 -35 186 -39 q 194 10 192 -22 q 199 81 197 43 q 200 154 200 118 q 200 210 200 190 q 199 287 200 240 q 197 388 199 333 q 193 500 196 443 q 186 608 190 557 q 176 698 182 658 q 163 756 171 738 q 146 772 158 765 q 119 783 133 779 q 89 789 104 788 q 63 790 74 790 q 34 803 46 790 q 22 832 22 815 q 34 862 22 850 q 64 874 46 874 q 129 869 92 874 q 203 856 167 865 q 270 828 240 846 q 311 783 300 811 q 328 715 321 760 q 340 615 335 671 q 349 499 346 560 q 353 381 351 438 q 356 276 356 324 q 357 200 357 228 q 357 140 357 168 q 356 86 357 111 q 345 -33 353 0 q 331 -78 338 -67 q 213 -131 299 -131 q 124 -121 172 -131 q 38 -96 75 -111 q 11 -57 11 -85 z "},"":{"ha":531,"x_min":13,"x_max":518,"o":"m 286 772 q 271 751 278 772 q 257 695 264 729 q 244 619 250 661 q 235 537 239 578 q 228 461 231 496 q 224 406 225 426 q 282 408 254 407 q 321 410 310 410 q 350 399 338 411 q 363 368 363 386 q 351 341 363 353 q 325 326 340 329 q 287 325 318 326 q 219 322 256 324 q 217 265 218 294 q 217 208 217 236 q 219 148 217 179 q 229 100 221 117 q 251 90 232 96 q 318 85 269 85 q 397 90 356 85 q 476 100 439 96 q 507 89 496 100 q 518 58 518 78 q 508 32 518 43 q 483 18 499 21 q 401 6 443 11 q 317 1 358 1 q 222 13 258 1 q 167 44 186 24 q 127 103 143 68 q 100 176 111 138 q 83 252 89 214 q 75 322 78 290 q 33 333 54 325 q 13 368 13 340 q 25 398 13 386 q 54 410 38 410 q 63 409 60 410 q 72 407 67 408 q 72 416 72 411 q 71 425 71 421 q 74 505 71 460 q 87 598 78 550 q 111 692 96 646 q 149 776 126 739 q 202 835 171 813 q 275 857 233 857 q 328 846 301 857 q 381 817 356 835 q 427 777 406 799 q 464 736 449 756 q 472 710 472 724 q 460 681 472 693 q 431 668 449 668 q 399 683 411 668 q 376 710 390 694 q 345 739 361 725 q 313 763 329 753 q 286 772 297 772 z "},"":{"ha":515,"x_min":14,"x_max":494,"o":"m 297 668 q 276 659 288 664 q 253 654 264 654 q 217 675 228 654 q 213 707 208 690 q 232 732 217 724 q 243 738 238 736 q 250 739 246 738 q 258 742 254 740 q 196 774 231 774 q 151 768 174 774 q 142 767 149 767 q 113 779 125 767 q 100 808 100 792 q 111 835 100 825 q 138 849 122 844 q 172 856 154 854 q 201 857 189 857 q 286 842 249 857 q 354 799 324 826 q 365 807 360 803 q 375 814 369 811 q 400 822 386 822 q 436 801 422 822 q 440 772 443 788 q 424 747 438 757 q 406 733 418 742 q 451 631 433 688 q 478 517 468 575 q 491 406 488 460 q 494 313 494 353 q 485 189 494 246 q 451 90 476 132 q 380 24 425 47 q 261 0 335 0 q 82 56 150 0 q 14 217 14 113 q 28 306 14 263 q 71 382 43 349 q 138 435 99 415 q 226 456 176 456 q 279 451 251 456 q 335 435 307 446 q 331 479 333 451 q 325 539 329 507 q 315 604 321 571 q 297 668 308 638 m 219 85 q 272 97 251 85 q 306 130 293 110 q 325 175 319 150 q 331 224 331 200 q 324 275 331 249 q 305 323 318 301 q 271 358 292 344 q 221 372 250 372 q 168 359 192 372 q 129 324 144 346 q 106 276 114 303 q 97 221 97 249 q 131 124 97 163 q 219 85 165 85 z "},"":{"ha":272,"x_min":132,"x_max":297,"o":"m 151 1368 q 156 1394 153 1381 q 164 1418 158 1407 q 179 1436 169 1429 q 204 1443 189 1443 q 235 1433 218 1443 q 265 1390 253 1422 q 290 1280 282 1346 q 297 1139 297 1214 q 294 1038 297 1089 q 286 941 292 988 q 273 854 281 894 q 257 783 265 813 q 249 758 254 771 q 235 735 243 746 q 217 718 228 725 q 192 711 206 711 q 156 733 164 711 q 146 778 147 756 q 136 917 139 846 q 133 1058 133 988 q 138 1215 133 1138 q 151 1368 142 1293 m 256 1514 q 240 1478 256 1493 q 204 1463 225 1463 q 167 1478 182 1463 q 151 1514 151 1493 q 167 1551 151 1536 q 204 1567 182 1567 q 240 1551 225 1567 q 256 1514 256 1536 z "},"{":{"ha":339,"x_min":14,"x_max":328,"o":"m 328 -69 q 306 -103 328 -90 q 257 -124 285 -117 q 201 -134 229 -132 q 157 -136 172 -136 q 106 -130 131 -136 q 62 -110 81 -124 q 32 -74 43 -96 q 21 -22 21 -53 q 31 40 21 8 q 56 107 42 72 q 76 163 67 133 q 86 213 86 192 q 83 228 86 219 q 77 233 81 231 q 71 239 74 236 q 33 275 53 254 q 15 324 14 296 q 28 365 17 347 q 50 399 39 383 q 71 428 63 414 q 79 458 79 442 q 68 500 79 478 q 42 614 42 554 q 58 701 42 657 q 104 783 75 746 q 173 842 133 819 q 258 867 213 865 q 293 857 278 867 q 308 825 308 847 q 297 797 308 808 q 267 785 285 785 q 232 769 247 785 q 207 730 217 753 q 192 683 197 707 q 188 643 188 658 q 193 592 188 619 q 213 536 199 565 q 232 458 232 496 q 216 393 232 419 q 186 349 200 367 q 177 336 182 343 q 169 325 172 329 q 181 313 174 319 q 193 303 189 307 q 228 264 217 283 q 239 213 239 244 q 228 145 239 179 q 203 75 217 111 q 183 22 192 49 q 174 -24 174 -4 q 182 -41 174 -39 q 203 -43 190 -43 q 238 -40 219 -43 q 272 -31 256 -36 q 286 -28 281 -28 q 316 -40 304 -28 q 328 -69 328 -53 z "},"}":{"ha":339,"x_min":11,"x_max":325,"o":"m 153 349 q 123 393 139 367 q 107 458 107 419 q 126 536 107 496 q 146 592 140 565 q 151 643 151 619 q 147 683 151 658 q 132 730 142 707 q 108 769 122 753 q 72 785 93 785 q 43 797 56 785 q 31 825 31 808 q 46 857 31 847 q 81 867 61 867 q 166 842 126 865 q 235 783 206 819 q 281 701 264 746 q 297 614 297 657 q 271 500 297 554 q 260 458 260 474 q 268 428 260 442 q 289 399 276 414 q 311 365 300 383 q 324 324 322 347 q 306 275 325 296 q 268 239 286 254 q 262 233 265 236 q 256 228 258 231 q 254 213 254 224 q 263 163 254 192 q 283 107 272 133 q 308 40 297 72 q 318 -22 318 8 q 307 -74 318 -53 q 277 -110 296 -96 q 234 -130 258 -124 q 182 -136 210 -136 q 139 -134 168 -136 q 82 -124 110 -132 q 33 -103 54 -117 q 11 -69 11 -90 q 24 -40 11 -53 q 53 -28 36 -28 q 67 -31 58 -28 q 101 -40 83 -36 q 136 -43 119 -43 q 157 -41 149 -43 q 165 -24 165 -39 q 156 22 165 -4 q 136 75 147 49 q 111 145 122 111 q 100 213 100 179 q 111 264 100 244 q 146 303 122 283 q 158 313 150 307 q 169 325 165 319 q 162 336 167 329 q 153 349 157 343 z "},">":{"ha":353,"x_min":25,"x_max":347,"o":"m 51 267 q 147 309 99 288 q 239 356 194 331 q 147 403 194 382 q 50 444 99 425 q 25 483 25 456 q 38 513 25 500 q 67 525 50 525 q 110 512 78 525 q 177 481 142 499 q 244 447 213 464 q 289 422 276 429 q 329 393 311 408 q 347 354 347 378 q 330 316 347 331 q 289 288 313 301 q 244 264 276 281 q 176 231 213 247 q 109 201 140 214 q 67 188 78 188 q 38 199 50 188 q 25 229 25 211 q 32 252 25 242 q 51 267 39 263 z "},"<":{"ha":353,"x_min":6,"x_max":328,"o":"m 114 356 q 206 309 158 331 q 301 267 253 288 q 326 229 326 257 q 315 199 326 211 q 285 188 303 188 q 243 201 275 188 q 175 231 211 214 q 107 264 139 247 q 64 288 75 281 q 23 316 40 301 q 6 354 6 331 q 23 393 6 378 q 63 422 40 408 q 107 447 75 429 q 175 481 139 464 q 243 512 211 499 q 286 525 275 525 q 315 513 303 525 q 328 483 328 500 q 301 444 328 456 q 206 403 253 425 q 114 356 158 382 z "},"\\":{"ha":363,"x_min":3,"x_max":361,"o":"m 3 842 q 15 871 3 858 q 44 883 28 883 q 78 865 64 883 q 96 823 82 860 q 131 729 110 786 q 176 601 151 672 q 227 456 201 531 q 277 310 253 382 q 320 181 301 239 q 350 86 339 124 q 361 42 361 49 q 349 13 361 25 q 319 0 336 0 q 278 32 288 0 q 264 78 276 40 q 233 172 251 115 q 192 296 215 228 q 146 434 169 364 q 99 572 122 504 q 58 692 76 639 q 26 778 39 744 q 11 817 14 813 q 3 842 3 828 z "},"^":{"ha":365,"x_min":14,"x_max":351,"o":"m 117 640 q 146 680 131 663 q 185 697 161 697 q 223 680 208 697 q 251 639 238 663 q 275 596 258 628 q 308 528 292 564 q 338 460 325 492 q 351 418 351 429 q 340 388 351 400 q 310 376 328 376 q 271 401 282 376 q 230 497 251 450 q 183 590 208 544 q 135 497 157 544 q 94 401 114 450 q 78 383 89 389 q 56 376 68 376 q 26 388 39 376 q 14 418 14 400 q 27 460 14 429 q 58 528 40 492 q 92 596 75 564 q 117 640 110 628 z "},"@":{"ha":744,"x_min":18,"x_max":725,"o":"m 426 660 q 317 633 364 660 q 239 561 271 606 q 191 460 207 517 q 175 346 175 404 q 190 238 175 290 q 233 144 204 185 q 308 78 263 103 q 414 53 353 53 q 571 101 482 53 q 590 107 578 107 q 620 94 608 107 q 632 65 632 82 q 611 29 632 40 q 414 -31 508 -31 q 258 -4 331 -31 q 132 72 185 22 q 49 191 79 121 q 18 347 18 261 q 49 506 18 433 q 135 632 81 579 q 264 714 189 685 q 426 743 339 743 q 558 713 501 743 q 651 633 614 683 q 706 519 688 583 q 725 388 725 456 q 719 317 725 357 q 697 240 713 276 q 656 179 682 204 q 590 154 631 154 q 552 164 575 154 q 510 208 529 174 q 451 156 482 168 q 397 144 421 144 q 324 160 356 144 q 273 203 293 176 q 242 263 253 229 q 232 335 232 297 q 245 423 232 379 q 284 501 258 467 q 347 558 310 536 q 433 581 385 581 q 492 565 468 581 q 533 525 517 550 q 556 470 549 500 q 564 411 564 440 q 540 374 564 386 q 564 360 551 371 q 585 328 576 350 q 593 301 590 315 q 599 272 596 288 q 601 258 600 265 q 604 244 601 251 q 629 293 617 257 q 642 388 642 329 q 629 487 642 438 q 591 574 617 536 q 524 636 565 613 q 426 660 483 660 m 435 497 q 402 474 415 496 q 381 422 389 451 q 369 364 372 393 q 365 322 365 335 q 367 301 365 317 q 372 269 368 286 q 381 240 375 253 q 397 228 388 228 q 443 259 425 228 q 475 328 461 290 q 485 353 479 342 q 506 372 492 365 q 488 388 494 378 q 481 411 481 397 q 466 475 481 453 q 435 497 451 497 z "},"?":{"ha":371,"x_min":15,"x_max":364,"o":"m 57 671 q 28 683 40 671 q 15 713 15 696 q 22 736 15 725 q 101 817 56 788 q 192 846 146 846 q 258 838 226 846 q 313 810 289 829 q 350 764 336 792 q 364 696 364 736 q 349 574 364 642 q 310 439 335 507 q 253 308 285 371 q 186 200 221 246 q 85 129 133 129 q 56 142 68 129 q 43 172 43 154 q 56 218 44 188 q 96 319 67 249 q 137 419 115 365 q 178 528 158 474 q 210 632 197 582 q 222 718 222 682 q 219 742 222 733 q 210 756 215 751 q 201 760 206 760 q 193 761 196 761 q 145 746 174 763 q 92 690 117 729 q 57 671 79 671 m 40 54 q 56 90 40 75 q 93 106 71 106 q 130 90 115 106 q 144 54 144 75 q 130 17 144 32 q 93 1 115 1 q 56 17 71 1 q 40 54 40 32 z "},"":{"ha":407,"x_min":107,"x_max":457,"o":"m 414 -136 q 443 -149 431 -136 q 456 -178 456 -161 q 449 -201 456 -190 q 370 -282 415 -253 q 279 -311 325 -311 q 213 -303 244 -311 q 158 -276 182 -294 q 121 -229 135 -257 q 107 -161 107 -201 q 122 -40 107 -107 q 161 96 136 28 q 218 226 186 164 q 285 335 250 289 q 386 406 338 406 q 415 393 403 406 q 428 363 428 381 q 415 317 426 347 q 375 215 404 286 q 334 115 356 169 q 293 7 313 61 q 261 -97 274 -47 q 249 -183 249 -147 q 252 -208 249 -199 q 260 -221 256 -217 q 270 -226 265 -225 q 278 -226 275 -226 q 326 -211 297 -228 q 379 -156 354 -194 q 414 -136 392 -136 m 431 481 q 415 444 431 460 q 378 429 400 429 q 341 444 356 429 q 326 481 326 460 q 341 518 326 503 q 378 533 356 533 q 415 518 400 533 q 431 481 431 503 z "},"":{"ha":150,"x_min":13,"x_max":136,"o":"m 54 -136 q 25 -124 38 -136 q 13 -94 13 -112 q 15 -81 13 -89 q 28 -42 22 -64 q 40 1 35 -19 q 49 40 46 22 q 53 68 53 58 q 63 97 51 85 q 92 111 75 110 q 122 101 110 113 q 136 72 135 89 q 133 29 136 53 q 123 -19 129 6 q 109 -67 117 -44 q 93 -108 101 -90 q 78 -128 89 -121 q 54 -136 67 -136 z "},"":{"ha":272,"x_min":18,"x_max":253,"o":"m 60 -136 q 31 -124 43 -136 q 18 -94 18 -112 q 21 -81 18 -89 q 34 -42 28 -64 q 46 1 40 -19 q 55 40 51 22 q 58 68 58 58 q 69 97 57 85 q 97 111 81 110 q 128 101 115 113 q 142 72 140 89 q 138 29 142 53 q 128 -19 135 6 q 115 -67 122 -44 q 99 -108 107 -90 q 83 -128 94 -121 q 60 -136 72 -136 m 129 -94 q 132 -81 129 -89 q 145 -42 139 -64 q 157 1 151 -19 q 166 40 163 22 q 169 68 169 58 q 180 97 168 85 q 208 111 192 110 q 239 101 226 113 q 253 72 251 89 q 249 29 253 53 q 240 -19 246 6 q 226 -67 233 -44 q 210 -108 218 -90 q 194 -128 206 -121 q 171 -136 183 -136 q 142 -124 154 -136 q 129 -94 129 -112 z "},"":{"ha":272,"x_min":18,"x_max":253,"o":"m 60 489 q 31 501 43 489 q 18 531 18 513 q 21 544 18 536 q 34 583 28 561 q 46 626 40 606 q 55 665 51 647 q 58 693 58 683 q 69 722 57 710 q 97 736 81 735 q 128 726 115 738 q 142 697 140 714 q 128 606 142 657 q 99 517 114 554 q 83 497 94 504 q 60 489 72 489 m 171 489 q 142 501 154 489 q 129 531 129 513 q 132 544 129 536 q 145 583 139 561 q 157 626 151 606 q 166 665 163 647 q 169 693 169 683 q 180 722 168 710 q 208 736 192 735 q 239 726 226 738 q 253 697 251 714 q 239 606 253 657 q 210 517 225 554 q 194 497 206 504 q 171 489 183 489 z "},"":{"ha":272,"x_min":19,"x_max":254,"o":"m 174 517 q 144 606 158 554 q 131 697 131 657 q 144 726 132 714 q 175 736 157 738 q 203 722 192 735 q 214 693 215 710 q 217 665 214 683 q 226 626 221 647 q 239 583 232 606 q 251 544 246 561 q 254 531 254 536 q 242 501 254 513 q 213 489 229 489 q 174 517 183 489 m 63 517 q 33 606 47 554 q 19 697 19 657 q 33 726 21 714 q 64 736 46 738 q 92 722 81 735 q 103 693 104 710 q 106 665 103 683 q 115 626 110 647 q 128 583 121 606 q 140 544 135 561 q 143 531 143 536 q 131 501 143 513 q 101 489 118 489 q 63 517 72 489 z "}}}
